G04 Layer_Color=7318015*
%FSAX44Y44*%
%MOMM*%
G71*
G01*
G75*
%ADD10R,0.7870X0.8680*%
G04:AMPARAMS|DCode=11|XSize=2.54mm|YSize=1.524mm|CornerRadius=0.381mm|HoleSize=0mm|Usage=FLASHONLY|Rotation=0.000|XOffset=0mm|YOffset=0mm|HoleType=Round|Shape=RoundedRectangle|*
%AMROUNDEDRECTD11*
21,1,2.5400,0.7620,0,0,0.0*
21,1,1.7780,1.5240,0,0,0.0*
1,1,0.7620,0.8890,-0.3810*
1,1,0.7620,-0.8890,-0.3810*
1,1,0.7620,-0.8890,0.3810*
1,1,0.7620,0.8890,0.3810*
%
%ADD11ROUNDEDRECTD11*%
%ADD12R,0.8680X0.7870*%
%ADD13R,0.6000X1.1500*%
%ADD14R,1.0000X1.0000*%
%ADD15R,0.4000X0.4000*%
%ADD16R,1.3208X1.0795*%
G04:AMPARAMS|DCode=19|XSize=1.9mm|YSize=2.6mm|CornerRadius=0.475mm|HoleSize=0mm|Usage=FLASHONLY|Rotation=90.000|XOffset=0mm|YOffset=0mm|HoleType=Round|Shape=RoundedRectangle|*
%AMROUNDEDRECTD19*
21,1,1.9000,1.6500,0,0,90.0*
21,1,0.9500,2.6000,0,0,90.0*
1,1,0.9500,0.8250,0.4750*
1,1,0.9500,0.8250,-0.4750*
1,1,0.9500,-0.8250,-0.4750*
1,1,0.9500,-0.8250,0.4750*
%
%ADD19ROUNDEDRECTD19*%
G04:AMPARAMS|DCode=20|XSize=2.8mm|YSize=0.5mm|CornerRadius=0.125mm|HoleSize=0mm|Usage=FLASHONLY|Rotation=0.000|XOffset=0mm|YOffset=0mm|HoleType=Round|Shape=RoundedRectangle|*
%AMROUNDEDRECTD20*
21,1,2.8000,0.2500,0,0,0.0*
21,1,2.5500,0.5000,0,0,0.0*
1,1,0.2500,1.2750,-0.1250*
1,1,0.2500,-1.2750,-0.1250*
1,1,0.2500,-1.2750,0.1250*
1,1,0.2500,1.2750,0.1250*
%
%ADD20ROUNDEDRECTD20*%
G04:AMPARAMS|DCode=21|XSize=3.5mm|YSize=2.05mm|CornerRadius=0.5125mm|HoleSize=0mm|Usage=FLASHONLY|Rotation=0.000|XOffset=0mm|YOffset=0mm|HoleType=Round|Shape=RoundedRectangle|*
%AMROUNDEDRECTD21*
21,1,3.5000,1.0250,0,0,0.0*
21,1,2.4750,2.0500,0,0,0.0*
1,1,1.0250,1.2375,-0.5125*
1,1,1.0250,-1.2375,-0.5125*
1,1,1.0250,-1.2375,0.5125*
1,1,1.0250,1.2375,0.5125*
%
%ADD21ROUNDEDRECTD21*%
G04:AMPARAMS|DCode=22|XSize=4mm|YSize=2.05mm|CornerRadius=0.5125mm|HoleSize=0mm|Usage=FLASHONLY|Rotation=0.000|XOffset=0mm|YOffset=0mm|HoleType=Round|Shape=RoundedRectangle|*
%AMROUNDEDRECTD22*
21,1,4.0000,1.0250,0,0,0.0*
21,1,2.9750,2.0500,0,0,0.0*
1,1,1.0250,1.4875,-0.5125*
1,1,1.0250,-1.4875,-0.5125*
1,1,1.0250,-1.4875,0.5125*
1,1,1.0250,1.4875,0.5125*
%
%ADD22ROUNDEDRECTD22*%
G04:AMPARAMS|DCode=23|XSize=3.5mm|YSize=2.05mm|CornerRadius=0.5125mm|HoleSize=0mm|Usage=FLASHONLY|Rotation=0.000|XOffset=0mm|YOffset=0mm|HoleType=Round|Shape=RoundedRectangle|*
%AMROUNDEDRECTD23*
21,1,3.5000,1.0250,0,0,0.0*
21,1,2.4750,2.0500,0,0,0.0*
1,1,1.0250,1.2375,-0.5125*
1,1,1.0250,-1.2375,-0.5125*
1,1,1.0250,-1.2375,0.5125*
1,1,1.0250,1.2375,0.5125*
%
%ADD23ROUNDEDRECTD23*%
%ADD24R,1.2000X1.4000*%
%ADD25R,1.0000X1.4000*%
%ADD26O,0.2500X1.5500*%
%ADD27O,1.5500X0.2500*%
G36*
X01352956Y00661327D02*
X01340256D01*
Y00680377D01*
X01352956D01*
Y00661327D01*
D02*
G37*
G36*
X01388770Y00599349D02*
X01350670D01*
Y00618399D01*
X01388770D01*
Y00599349D01*
D02*
G37*
G36*
X01399184Y00661327D02*
X01386484D01*
Y00680377D01*
X01399184D01*
Y00661327D01*
D02*
G37*
G36*
X01376070D02*
X01363370D01*
Y00680377D01*
X01376070D01*
Y00661327D01*
D02*
G37*
D10*
X00827920Y00665480D02*
D03*
X00812920D02*
D03*
X01337190Y00511810D02*
D03*
X01322190D02*
D03*
X01337190Y00524510D02*
D03*
X01322190D02*
D03*
X01337190Y00548640D02*
D03*
X01322190D02*
D03*
X01362830Y00309880D02*
D03*
X01377830D02*
D03*
X01362830Y00325120D02*
D03*
X01377830D02*
D03*
X01423550Y00309880D02*
D03*
X01408550D02*
D03*
X01423550Y00325120D02*
D03*
X01408550D02*
D03*
X01403470Y00355600D02*
D03*
X01418470D02*
D03*
X01223130Y00309880D02*
D03*
X01238130D02*
D03*
X01223130Y00325120D02*
D03*
X01238130D02*
D03*
X01283850Y00309880D02*
D03*
X01268850D02*
D03*
X01283850Y00325120D02*
D03*
X01268850D02*
D03*
X01263770Y00355600D02*
D03*
X01278770D02*
D03*
X01083430Y00309880D02*
D03*
X01098430D02*
D03*
X01083430Y00325120D02*
D03*
X01098430D02*
D03*
X01144150Y00309880D02*
D03*
X01129150D02*
D03*
X01144150Y00325120D02*
D03*
X01129150D02*
D03*
X01124070Y00355600D02*
D03*
X01139070D02*
D03*
X00943730Y00309880D02*
D03*
X00958730D02*
D03*
X00943730Y00325120D02*
D03*
X00958730D02*
D03*
X01004450Y00309880D02*
D03*
X00989450D02*
D03*
X01004450Y00325120D02*
D03*
X00989450D02*
D03*
X00984370Y00355600D02*
D03*
X00999370D02*
D03*
X00804030Y00309880D02*
D03*
X00819030D02*
D03*
X00804030Y00325120D02*
D03*
X00819030D02*
D03*
X00864750Y00309880D02*
D03*
X00849750D02*
D03*
X00864750Y00325120D02*
D03*
X00849750D02*
D03*
X00844670Y00355600D02*
D03*
X00859670D02*
D03*
X00664330Y00309880D02*
D03*
X00679330D02*
D03*
X00664330Y00325120D02*
D03*
X00679330D02*
D03*
X00725050Y00309880D02*
D03*
X00710050D02*
D03*
X00725050Y00325120D02*
D03*
X00710050D02*
D03*
X00704970Y00355600D02*
D03*
X00719970D02*
D03*
X00524630Y00309880D02*
D03*
X00539630D02*
D03*
X00524630Y00325120D02*
D03*
X00539630D02*
D03*
X00585350Y00309880D02*
D03*
X00570350D02*
D03*
X00585350Y00325120D02*
D03*
X00570350D02*
D03*
X00565270Y00355600D02*
D03*
X00580270D02*
D03*
X00384930Y00309880D02*
D03*
X00399930D02*
D03*
X00384930Y00325120D02*
D03*
X00399930D02*
D03*
X00445650Y00309880D02*
D03*
X00430650D02*
D03*
X00445650Y00325120D02*
D03*
X00430650D02*
D03*
X00425570Y00355600D02*
D03*
X00440570D02*
D03*
X00245230Y00309880D02*
D03*
X00260230D02*
D03*
X00245230Y00325120D02*
D03*
X00260230D02*
D03*
X00305950Y00309880D02*
D03*
X00290950D02*
D03*
X00305950Y00325120D02*
D03*
X00290950D02*
D03*
X00285870Y00355600D02*
D03*
X00300870D02*
D03*
X00105530Y00309880D02*
D03*
X00120530D02*
D03*
X00105530Y00325120D02*
D03*
X00120530D02*
D03*
X00166250Y00309880D02*
D03*
X00151250D02*
D03*
X00166250Y00325120D02*
D03*
X00151250D02*
D03*
X00146170Y00355600D02*
D03*
X00161170D02*
D03*
X01087240Y00477520D02*
D03*
X01102240D02*
D03*
X01124070Y00565150D02*
D03*
X01139070D02*
D03*
X01217810Y00452120D02*
D03*
X01202810D02*
D03*
X01102240Y00490220D02*
D03*
X01087240D02*
D03*
D11*
X01441450Y00279400D02*
D03*
Y00254000D02*
D03*
Y00228600D02*
D03*
Y00203200D02*
D03*
Y00177800D02*
D03*
X01339850D02*
D03*
Y00203200D02*
D03*
Y00228600D02*
D03*
Y00254000D02*
D03*
Y00279400D02*
D03*
X01301750D02*
D03*
Y00254000D02*
D03*
Y00228600D02*
D03*
Y00203200D02*
D03*
Y00177800D02*
D03*
X01200150D02*
D03*
Y00203200D02*
D03*
Y00228600D02*
D03*
Y00254000D02*
D03*
Y00279400D02*
D03*
X01162050D02*
D03*
Y00254000D02*
D03*
Y00228600D02*
D03*
Y00203200D02*
D03*
Y00177800D02*
D03*
X01060450D02*
D03*
Y00203200D02*
D03*
Y00228600D02*
D03*
Y00254000D02*
D03*
Y00279400D02*
D03*
X01022350D02*
D03*
Y00254000D02*
D03*
Y00228600D02*
D03*
Y00203200D02*
D03*
Y00177800D02*
D03*
X00920750D02*
D03*
Y00203200D02*
D03*
Y00228600D02*
D03*
Y00254000D02*
D03*
Y00279400D02*
D03*
X00882650D02*
D03*
Y00254000D02*
D03*
Y00228600D02*
D03*
Y00203200D02*
D03*
Y00177800D02*
D03*
X00781050D02*
D03*
Y00203200D02*
D03*
Y00228600D02*
D03*
Y00254000D02*
D03*
Y00279400D02*
D03*
X00742950D02*
D03*
Y00254000D02*
D03*
Y00228600D02*
D03*
Y00203200D02*
D03*
Y00177800D02*
D03*
X00641350D02*
D03*
Y00203200D02*
D03*
Y00228600D02*
D03*
Y00254000D02*
D03*
Y00279400D02*
D03*
X00603250D02*
D03*
Y00254000D02*
D03*
Y00228600D02*
D03*
Y00203200D02*
D03*
Y00177800D02*
D03*
X00501650D02*
D03*
Y00203200D02*
D03*
Y00228600D02*
D03*
Y00254000D02*
D03*
Y00279400D02*
D03*
X00463550D02*
D03*
Y00254000D02*
D03*
Y00228600D02*
D03*
Y00203200D02*
D03*
Y00177800D02*
D03*
X00361950D02*
D03*
Y00203200D02*
D03*
Y00228600D02*
D03*
Y00254000D02*
D03*
Y00279400D02*
D03*
X00323850D02*
D03*
Y00254000D02*
D03*
Y00228600D02*
D03*
Y00203200D02*
D03*
Y00177800D02*
D03*
X00222250D02*
D03*
Y00203200D02*
D03*
Y00228600D02*
D03*
Y00254000D02*
D03*
Y00279400D02*
D03*
X00184150D02*
D03*
Y00254000D02*
D03*
Y00228600D02*
D03*
Y00203200D02*
D03*
Y00177800D02*
D03*
X00082550D02*
D03*
Y00203200D02*
D03*
Y00228600D02*
D03*
Y00254000D02*
D03*
Y00279400D02*
D03*
D12*
X01380490Y00383660D02*
D03*
Y00398660D02*
D03*
X01365250D02*
D03*
Y00383660D02*
D03*
X01436370Y00322460D02*
D03*
Y00307460D02*
D03*
X01240790Y00383660D02*
D03*
Y00398660D02*
D03*
X01225550D02*
D03*
Y00383660D02*
D03*
X01296670Y00322460D02*
D03*
Y00307460D02*
D03*
X01101090Y00383660D02*
D03*
Y00398660D02*
D03*
X01085850D02*
D03*
Y00383660D02*
D03*
X01156970Y00322460D02*
D03*
Y00307460D02*
D03*
X00961390Y00383660D02*
D03*
Y00398660D02*
D03*
X00946150D02*
D03*
Y00383660D02*
D03*
X01017270Y00322460D02*
D03*
Y00307460D02*
D03*
X00821690Y00383660D02*
D03*
Y00398660D02*
D03*
X00806450D02*
D03*
Y00383660D02*
D03*
X00877570Y00322460D02*
D03*
Y00307460D02*
D03*
X00681990Y00383660D02*
D03*
Y00398660D02*
D03*
X00666750D02*
D03*
Y00383660D02*
D03*
X00737870Y00322460D02*
D03*
Y00307460D02*
D03*
X00542290Y00383660D02*
D03*
Y00398660D02*
D03*
X00527050D02*
D03*
Y00383660D02*
D03*
X00598170Y00322460D02*
D03*
Y00307460D02*
D03*
X00402590Y00383660D02*
D03*
Y00398660D02*
D03*
X00387350D02*
D03*
Y00383660D02*
D03*
X00458470Y00322460D02*
D03*
Y00307460D02*
D03*
X00262890Y00383660D02*
D03*
Y00398660D02*
D03*
X00247650D02*
D03*
Y00383660D02*
D03*
X00318770Y00322460D02*
D03*
Y00307460D02*
D03*
X00123190Y00383660D02*
D03*
Y00398660D02*
D03*
X00107950D02*
D03*
Y00383660D02*
D03*
X00179070Y00322460D02*
D03*
Y00307460D02*
D03*
X01322920Y00649064D02*
D03*
Y00664064D02*
D03*
X01112520Y00557410D02*
D03*
Y00542410D02*
D03*
X01224280Y00557410D02*
D03*
Y00542410D02*
D03*
X01074420Y00505340D02*
D03*
Y00490340D02*
D03*
Y00520820D02*
D03*
Y00535820D02*
D03*
D13*
X01415390Y00397330D02*
D03*
X01396390D02*
D03*
X01405890Y00374830D02*
D03*
X01275690Y00397330D02*
D03*
X01256690D02*
D03*
X01266190Y00374830D02*
D03*
X01135990Y00397330D02*
D03*
X01116990D02*
D03*
X01126490Y00374830D02*
D03*
X00996290Y00397330D02*
D03*
X00977290D02*
D03*
X00986790Y00374830D02*
D03*
X00856590Y00397330D02*
D03*
X00837590D02*
D03*
X00847090Y00374830D02*
D03*
X00716890Y00397330D02*
D03*
X00697890D02*
D03*
X00707390Y00374830D02*
D03*
X00577190Y00397330D02*
D03*
X00558190D02*
D03*
X00567690Y00374830D02*
D03*
X00437490Y00397330D02*
D03*
X00418490D02*
D03*
X00427990Y00374830D02*
D03*
X00297790Y00397330D02*
D03*
X00278790D02*
D03*
X00288290Y00374830D02*
D03*
X00158090Y00397330D02*
D03*
X00139090D02*
D03*
X00148590Y00374830D02*
D03*
D14*
X01386450Y00355600D02*
D03*
X01369450D02*
D03*
X01246750D02*
D03*
X01229750D02*
D03*
X01107050D02*
D03*
X01090050D02*
D03*
X00967350D02*
D03*
X00950350D02*
D03*
X00827650D02*
D03*
X00810650D02*
D03*
X00687950D02*
D03*
X00670950D02*
D03*
X00548250D02*
D03*
X00531250D02*
D03*
X00408550D02*
D03*
X00391550D02*
D03*
X00268850D02*
D03*
X00251850D02*
D03*
X00129150D02*
D03*
X00112150D02*
D03*
D15*
X01363330Y00339090D02*
D03*
X01377330D02*
D03*
X01223630D02*
D03*
X01237630D02*
D03*
X01083930D02*
D03*
X01097930D02*
D03*
X00944230D02*
D03*
X00958230D02*
D03*
X00804530D02*
D03*
X00818530D02*
D03*
X00664830D02*
D03*
X00678830D02*
D03*
X00525130D02*
D03*
X00539130D02*
D03*
X00385430D02*
D03*
X00399430D02*
D03*
X00245730D02*
D03*
X00259730D02*
D03*
X00106030D02*
D03*
X00120030D02*
D03*
D16*
X01418170Y00648690D02*
D03*
Y00664438D02*
D03*
D19*
X01049020Y00491580D02*
D03*
Y00534580D02*
D03*
D20*
X01410970Y00515110D02*
D03*
Y00531110D02*
D03*
Y00523110D02*
D03*
Y00499110D02*
D03*
Y00507110D02*
D03*
D21*
X01410720Y00564360D02*
D03*
D22*
X01453220D02*
D03*
Y00465860D02*
D03*
D23*
X01410720D02*
D03*
D24*
X01372750Y00535510D02*
D03*
D25*
X01355750D02*
D03*
Y00513510D02*
D03*
X01374750D02*
D03*
D26*
X01140900Y00548250D02*
D03*
X01145900D02*
D03*
X01150900Y00548250D02*
D03*
X01155900Y00548250D02*
D03*
X01160900D02*
D03*
X01165900Y00548250D02*
D03*
X01170900D02*
D03*
X01175900Y00548250D02*
D03*
X01180900D02*
D03*
X01185900Y00548250D02*
D03*
X01190900Y00548250D02*
D03*
X01195900D02*
D03*
Y00467750D02*
D03*
X01190900D02*
D03*
X01185900Y00467750D02*
D03*
X01180900Y00467750D02*
D03*
X01175900D02*
D03*
X01170900Y00467750D02*
D03*
X01165900Y00467750D02*
D03*
X01160900D02*
D03*
X01155900D02*
D03*
X01150900Y00467750D02*
D03*
X01145900Y00467750D02*
D03*
X01140900D02*
D03*
D27*
X01208650Y00535500D02*
D03*
Y00530500D02*
D03*
X01208650Y00525500D02*
D03*
X01208650Y00520500D02*
D03*
Y00515500D02*
D03*
X01208650Y00510500D02*
D03*
Y00505500D02*
D03*
X01208650Y00500500D02*
D03*
Y00495500D02*
D03*
X01208650Y00490500D02*
D03*
X01208650Y00485500D02*
D03*
Y00480500D02*
D03*
X01128150D02*
D03*
Y00485500D02*
D03*
X01128150Y00490500D02*
D03*
X01128150Y00495500D02*
D03*
Y00500500D02*
D03*
Y00505500D02*
D03*
X01128150Y00510500D02*
D03*
X01128150Y00515500D02*
D03*
Y00520500D02*
D03*
X01128150Y00525500D02*
D03*
X01128150Y00530500D02*
D03*
Y00535500D02*
D03*
M02*
