G04 Layer_Color=8150272*
%FSAX44Y44*%
%MOMM*%
G71*
G01*
G75*
%ADD63R,1.7032X1.7032*%
%ADD64C,1.7032*%
%ADD65C,1.7272*%
%ADD66R,1.7032X1.7032*%
%ADD67C,1.1032*%
%ADD68C,3.2032*%
%ADD69O,2.7032X3.2032*%
%ADD70C,0.9032*%
D63*
X01041400Y00685800D02*
D03*
X00762000D02*
D03*
D64*
X01244600Y00711200D02*
D03*
Y00685800D02*
D03*
X01219200Y00711200D02*
D03*
Y00685800D02*
D03*
X01193800Y00711200D02*
D03*
Y00685800D02*
D03*
X01168400Y00711200D02*
D03*
Y00685800D02*
D03*
X01143000Y00711200D02*
D03*
Y00685800D02*
D03*
X01117600Y00711200D02*
D03*
Y00685800D02*
D03*
X01092200Y00711200D02*
D03*
Y00685800D02*
D03*
X01066800Y00711200D02*
D03*
Y00685800D02*
D03*
X01041400Y00711200D02*
D03*
X00965200D02*
D03*
Y00685800D02*
D03*
X00939800Y00711200D02*
D03*
Y00685800D02*
D03*
X00914400Y00711200D02*
D03*
Y00685800D02*
D03*
X00889000Y00711200D02*
D03*
Y00685800D02*
D03*
X00863600Y00711200D02*
D03*
Y00685800D02*
D03*
X00838200Y00711200D02*
D03*
Y00685800D02*
D03*
X00812800Y00711200D02*
D03*
Y00685800D02*
D03*
X00787400Y00711200D02*
D03*
Y00685800D02*
D03*
X00762000Y00711200D02*
D03*
X01258570Y00590550D02*
D03*
Y00565150D02*
D03*
Y00539750D02*
D03*
D65*
X00050000Y00700000D02*
D03*
X01450000D02*
D03*
X00050000Y00050000D02*
D03*
X01450000D02*
D03*
D66*
X01258570Y00615950D02*
D03*
D67*
X01434220Y00537110D02*
D03*
Y00493110D02*
D03*
D68*
X00190500Y00698500D02*
D03*
Y00540500D02*
D03*
X00381000Y00698500D02*
D03*
Y00540500D02*
D03*
D69*
X00787400Y00050800D02*
D03*
X00838200D02*
D03*
X00939800D02*
D03*
X00889000D02*
D03*
X01041400D02*
D03*
X00990600D02*
D03*
X01143000D02*
D03*
X01092200D02*
D03*
X01244600D02*
D03*
X01193800D02*
D03*
X00685800D02*
D03*
X00736600D02*
D03*
X00584200D02*
D03*
X00635000D02*
D03*
X00482600D02*
D03*
X00533400D02*
D03*
X00381000D02*
D03*
X00431800D02*
D03*
X00330200D02*
D03*
X00279400D02*
D03*
D70*
X01290000Y00440000D02*
D03*
Y00490000D02*
D03*
X01310640Y00662940D02*
D03*
X01301750D02*
D03*
X01322190Y00559950D02*
D03*
X01102240Y00464940D02*
D03*
X01106170Y00574040D02*
D03*
X01206500Y00468630D02*
D03*
X01073150Y00391160D02*
D03*
X00179070Y00334130D02*
D03*
X00139090Y00409720D02*
D03*
X00318770Y00334130D02*
D03*
X00278790Y00409720D02*
D03*
X00458470Y00334130D02*
D03*
X00418490Y00409720D02*
D03*
X00598170Y00334130D02*
D03*
X00558190Y00409720D02*
D03*
X00737870Y00334130D02*
D03*
X00697890Y00409720D02*
D03*
X00877570Y00334130D02*
D03*
X00837590Y00409720D02*
D03*
X01017270Y00334130D02*
D03*
X00977290Y00409720D02*
D03*
X01156970Y00334130D02*
D03*
X01296670D02*
D03*
X01256690Y00409720D02*
D03*
X01396390Y00409600D02*
D03*
X01436370Y00334010D02*
D03*
X00194310Y00323850D02*
D03*
X00334010D02*
D03*
X00473710D02*
D03*
X00613410D02*
D03*
X00753110D02*
D03*
X00892810D02*
D03*
X01032510D02*
D03*
X01172210D02*
D03*
X01311910D02*
D03*
X01451610D02*
D03*
X01264920Y00431800D02*
D03*
X01198880Y00398780D02*
D03*
X01188720Y00391160D02*
D03*
X01176020Y00388620D02*
D03*
X01163320Y00391160D02*
D03*
X01155700Y00398780D02*
D03*
X01252220Y00426720D02*
D03*
X01242060D02*
D03*
X01224280D02*
D03*
X01214000Y00557410D02*
D03*
X01217810Y00462400D02*
D03*
X01112520Y00566420D02*
D03*
X01160900Y00530980D02*
D03*
X01192170Y00530500D02*
D03*
X01190900Y00482960D02*
D03*
X01146690Y00500500D02*
D03*
X01069340Y00481330D02*
D03*
X01070610Y00544830D02*
D03*
X01386000Y00535510D02*
D03*
X01344510Y00613384D02*
D03*
Y00603224D02*
D03*
Y00593064D02*
D03*
X01358480D02*
D03*
X01369910D02*
D03*
X01381340D02*
D03*
X01395310D02*
D03*
Y00603224D02*
D03*
Y00613384D02*
D03*
X00107950Y00228600D02*
D03*
X00247650D02*
D03*
X00387350D02*
D03*
X00527050D02*
D03*
X00666750D02*
D03*
X00806450D02*
D03*
X00946150D02*
D03*
X01085850D02*
D03*
X01225550D02*
D03*
X01365250D02*
D03*
X01276350D02*
D03*
X01136650D02*
D03*
X00996950D02*
D03*
X00857250D02*
D03*
X00717550D02*
D03*
X00577850D02*
D03*
X00438150D02*
D03*
X00298450D02*
D03*
X00158750D02*
D03*
X01416050D02*
D03*
M02*
