M48
;Layer_Color=6321
;FILE_FORMAT=4:4
METRIC
;TYPE=PLATED
T1F00S00C0.4000
T2F00S00C0.9000
T3F00S00C1.3000
T4F00S00C1.5000
T5F00S00C3.0000
;TYPE=NON_PLATED
T6F00S00C0.9000
%
T01
X01365250Y00228600
X01416050
X01436370Y00334010
X01451610Y00323850
X01396390Y00409600
X01386000Y00535510
X01290000Y00490000
Y00440000
X01264920Y00431800
X01252220Y00426720
X01242060
X01224280
X01217810Y00462400
X01206500Y00468630
X01190900Y00482960
X01192170Y00530500
X01160900Y00530980
X01146690Y00500500
X01102240Y00464940
X01069340Y00481330
X01073150Y00391160
X01163320
X01176020Y00388620
X01188720Y00391160
X01198880Y00398780
X01155700
X01156970Y00334130
X01172210Y00323850
X01136650Y00228600
X01085850
X00996950
X00946150
X01017270Y00334130
X01032510Y00323850
X00977290Y00409720
X01256690
X01296670Y00334130
X01311910Y00323850
X01276350Y00228600
X01225550
X00857250
X00806450
X00717550
X00666750
X00577850
X00598170Y00334130
X00613410Y00323850
X00737870Y00334130
X00753110Y00323850
X00877570Y00334130
X00892810Y00323850
X00837590Y00409720
X00697890
X00558190
X00418490
X00458470Y00334130
X00473710Y00323850
X00438150Y00228600
X00387350
X00298450
X00247650
X00158750
X00179070Y00334130
X00194310Y00323850
X00318770Y00334130
X00334010Y00323850
X00278790Y00409720
X00527050Y00228600
X00107950
X00139090Y00409720
X01070610Y00544830
X01112520Y00566420
X01106170Y00574040
X01214000Y00557410
X01322190Y00559950
X01310640Y00662940
X01301750
X01344510Y00613384
Y00603224
Y00593064
X01358480
X01369910
X01381340
X01395310
Y00603224
Y00613384
T02
X01258570Y00539750
X00939800Y00685800
Y00711200
X00914400
Y00685800
X00889000
Y00711200
X00863600
Y00685800
X00838200
Y00711200
X00812800
Y00685800
X00787400
X00762000
Y00711200
X00787400
X00965200
Y00685800
X01041400
X01066800
X01092200
X01117600
X01143000
X01168400
X01193800
X01219200
X01244600
Y00711200
X01219200
X01193800
X01168400
X01143000
X01117600
X01092200
X01066800
X01041400
X01258570Y00615950
Y00590550
Y00565150
T03
X00279400Y00050800
X00330200
X00381000
X00431800
X00482600
X00533400
X00584200
X00635000
X00685800
X00736600
X00787400
X00838200
X00889000
X00939800
X00990600
X01041400
X01092200
X01143000
X01193800
X01244600
T04
X00190500Y00540500
X00381000
Y00698500
X00190500
T05
X00050000Y00050000
X01450000
X00050000Y00700000
X01450000
T06
X01434220Y00493110
Y00537110
M30
