G04 Layer_Physical_Order=1*
G04 Layer_Color=11767835*
%FSAX44Y44*%
%MOMM*%
G71*
G01*
G75*
%ADD10R,0.7870X0.8680*%
G04:AMPARAMS|DCode=11|XSize=2.54mm|YSize=1.524mm|CornerRadius=0.381mm|HoleSize=0mm|Usage=FLASHONLY|Rotation=0.000|XOffset=0mm|YOffset=0mm|HoleType=Round|Shape=RoundedRectangle|*
%AMROUNDEDRECTD11*
21,1,2.5400,0.7620,0,0,0.0*
21,1,1.7780,1.5240,0,0,0.0*
1,1,0.7620,0.8890,-0.3810*
1,1,0.7620,-0.8890,-0.3810*
1,1,0.7620,-0.8890,0.3810*
1,1,0.7620,0.8890,0.3810*
%
%ADD11ROUNDEDRECTD11*%
%ADD12R,0.8680X0.7870*%
%ADD13R,0.6000X1.1500*%
%ADD14R,1.0000X1.0000*%
%ADD15R,0.4000X0.4000*%
%ADD16R,1.3208X1.0795*%
%ADD17R,3.8100X1.9050*%
%ADD18R,1.2700X1.9050*%
G04:AMPARAMS|DCode=19|XSize=1.9mm|YSize=2.6mm|CornerRadius=0.475mm|HoleSize=0mm|Usage=FLASHONLY|Rotation=90.000|XOffset=0mm|YOffset=0mm|HoleType=Round|Shape=RoundedRectangle|*
%AMROUNDEDRECTD19*
21,1,1.9000,1.6500,0,0,90.0*
21,1,0.9500,2.6000,0,0,90.0*
1,1,0.9500,0.8250,0.4750*
1,1,0.9500,0.8250,-0.4750*
1,1,0.9500,-0.8250,-0.4750*
1,1,0.9500,-0.8250,0.4750*
%
%ADD19ROUNDEDRECTD19*%
G04:AMPARAMS|DCode=20|XSize=2.8mm|YSize=0.5mm|CornerRadius=0.125mm|HoleSize=0mm|Usage=FLASHONLY|Rotation=0.000|XOffset=0mm|YOffset=0mm|HoleType=Round|Shape=RoundedRectangle|*
%AMROUNDEDRECTD20*
21,1,2.8000,0.2500,0,0,0.0*
21,1,2.5500,0.5000,0,0,0.0*
1,1,0.2500,1.2750,-0.1250*
1,1,0.2500,-1.2750,-0.1250*
1,1,0.2500,-1.2750,0.1250*
1,1,0.2500,1.2750,0.1250*
%
%ADD20ROUNDEDRECTD20*%
G04:AMPARAMS|DCode=21|XSize=3.5mm|YSize=2.05mm|CornerRadius=0.5125mm|HoleSize=0mm|Usage=FLASHONLY|Rotation=0.000|XOffset=0mm|YOffset=0mm|HoleType=Round|Shape=RoundedRectangle|*
%AMROUNDEDRECTD21*
21,1,3.5000,1.0250,0,0,0.0*
21,1,2.4750,2.0500,0,0,0.0*
1,1,1.0250,1.2375,-0.5125*
1,1,1.0250,-1.2375,-0.5125*
1,1,1.0250,-1.2375,0.5125*
1,1,1.0250,1.2375,0.5125*
%
%ADD21ROUNDEDRECTD21*%
G04:AMPARAMS|DCode=22|XSize=4mm|YSize=2.05mm|CornerRadius=0.5125mm|HoleSize=0mm|Usage=FLASHONLY|Rotation=0.000|XOffset=0mm|YOffset=0mm|HoleType=Round|Shape=RoundedRectangle|*
%AMROUNDEDRECTD22*
21,1,4.0000,1.0250,0,0,0.0*
21,1,2.9750,2.0500,0,0,0.0*
1,1,1.0250,1.4875,-0.5125*
1,1,1.0250,-1.4875,-0.5125*
1,1,1.0250,-1.4875,0.5125*
1,1,1.0250,1.4875,0.5125*
%
%ADD22ROUNDEDRECTD22*%
G04:AMPARAMS|DCode=23|XSize=3.5mm|YSize=2.05mm|CornerRadius=0.5125mm|HoleSize=0mm|Usage=FLASHONLY|Rotation=0.000|XOffset=0mm|YOffset=0mm|HoleType=Round|Shape=RoundedRectangle|*
%AMROUNDEDRECTD23*
21,1,3.5000,1.0250,0,0,0.0*
21,1,2.4750,2.0500,0,0,0.0*
1,1,1.0250,1.2375,-0.5125*
1,1,1.0250,-1.2375,-0.5125*
1,1,1.0250,-1.2375,0.5125*
1,1,1.0250,1.2375,0.5125*
%
%ADD23ROUNDEDRECTD23*%
%ADD24R,1.2000X1.4000*%
%ADD25R,1.0000X1.4000*%
%ADD26O,0.2500X1.5500*%
%ADD27O,1.5500X0.2500*%
%ADD28C,0.3810*%
%ADD29C,0.2032*%
%ADD30C,0.2540*%
%ADD31R,1.5000X1.5000*%
%ADD32C,1.5000*%
%ADD33C,1.5240*%
%ADD34R,1.5000X1.5000*%
%ADD35C,0.9000*%
%ADD36C,3.0000*%
%ADD37O,2.5000X3.0000*%
%ADD38C,0.7000*%
G36*
X01444304Y00539572D02*
Y00528498D01*
X01430088Y00514282D01*
X01429330Y00513148D01*
X01429064Y00511810D01*
Y00505638D01*
X01427171Y00503745D01*
X01426184Y00504555D01*
X01426333Y00504778D01*
X01426549Y00505860D01*
Y00508360D01*
X01426333Y00509442D01*
X01425720Y00510360D01*
Y00511860D01*
X01426333Y00512778D01*
X01426549Y00513860D01*
Y00516360D01*
X01426333Y00517443D01*
X01425720Y00518360D01*
Y00519860D01*
X01426333Y00520778D01*
X01426549Y00521860D01*
Y00524360D01*
X01426333Y00525443D01*
X01426297Y00525496D01*
X01426453Y00527128D01*
X01427290Y00528381D01*
X01427581Y00529840D01*
X01394360D01*
X01394650Y00528381D01*
X01395488Y00527128D01*
X01395643Y00525496D01*
X01395607Y00525443D01*
X01395392Y00524360D01*
Y00521860D01*
X01395607Y00520778D01*
X01396220Y00519860D01*
Y00518787D01*
X01395224Y00517700D01*
X01381274D01*
Y00522034D01*
X01373089D01*
X01370326Y00524797D01*
X01370812Y00525970D01*
X01371480D01*
Y00535510D01*
X01374020D01*
Y00525970D01*
X01381290D01*
Y00529865D01*
X01382560Y00530544D01*
X01383643Y00529821D01*
X01384730Y00529604D01*
Y00535510D01*
Y00541416D01*
X01383643Y00541200D01*
X01382560Y00540476D01*
X01381290Y00541155D01*
Y00545050D01*
X01382521Y00545144D01*
X01438732D01*
X01444304Y00539572D01*
D02*
G37*
G36*
X01469579Y00739633D02*
X01474367Y00738180D01*
X01478780Y00735822D01*
X01482647Y00732647D01*
X01485821Y00728780D01*
X01488180Y00724367D01*
X01489632Y00719579D01*
X01490111Y00714722D01*
X01490000Y00714600D01*
X01490000D01*
Y00700000D01*
X01490123Y00325400D01*
X01489632Y00320421D01*
X01488180Y00315633D01*
X01485821Y00311220D01*
X01482647Y00307353D01*
X01478780Y00304179D01*
X01474367Y00301820D01*
X01469579Y00300368D01*
X01464722Y00299889D01*
X01464600Y00300000D01*
Y00300000D01*
X01460000D01*
X01419538Y00299996D01*
X01418640Y00300894D01*
Y00304016D01*
X01429009D01*
Y00307290D01*
X01430506D01*
Y00302001D01*
X01442234D01*
Y00304611D01*
X01446650D01*
X01446650Y00304611D01*
X01447740Y00304828D01*
X01448664Y00305446D01*
X01453624Y00310406D01*
X01454242Y00311330D01*
X01454459Y00312420D01*
X01454459Y00312420D01*
Y00319711D01*
X01455232Y00320228D01*
X01456342Y00321890D01*
X01456732Y00323850D01*
X01456342Y00325810D01*
X01455232Y00327472D01*
X01455106Y00327556D01*
Y00411480D01*
X01454840Y00412818D01*
X01454082Y00413952D01*
X01429952Y00438082D01*
X01428818Y00438840D01*
X01427480Y00439106D01*
X01400988D01*
X01383986Y00456108D01*
Y00484962D01*
X01394638Y00495614D01*
X01396589D01*
X01397138Y00495247D01*
X01398220Y00495032D01*
X01423720D01*
X01424803Y00495247D01*
X01425352Y00495614D01*
X01427281D01*
X01427729Y00495294D01*
X01428353Y00494493D01*
X01428078Y00493110D01*
X01428545Y00490760D01*
X01429877Y00488767D01*
X01431869Y00487436D01*
X01434220Y00486968D01*
X01436570Y00487436D01*
X01438563Y00488767D01*
X01439894Y00490760D01*
X01440362Y00493110D01*
X01439894Y00495461D01*
X01438563Y00497453D01*
X01436570Y00498785D01*
X01434339Y00499229D01*
X01433649Y00500335D01*
X01435032Y00501718D01*
X01435790Y00502852D01*
X01436056Y00504190D01*
X01436056Y00504190D01*
Y00510362D01*
X01450272Y00524578D01*
X01451030Y00525712D01*
X01451296Y00527050D01*
Y00537524D01*
X01468120D01*
X01469458Y00537790D01*
X01470592Y00538548D01*
X01482022Y00549978D01*
X01482780Y00551112D01*
X01483046Y00552450D01*
Y00577850D01*
X01483046Y00577850D01*
X01482780Y00579188D01*
X01482022Y00580322D01*
X01438596Y00623748D01*
Y00659130D01*
X01438596Y00659130D01*
X01438330Y00660468D01*
X01437572Y00661602D01*
X01437572Y00661602D01*
X01432264Y00666910D01*
X01431130Y00667668D01*
X01429792Y00667934D01*
X01426298D01*
Y00671359D01*
X01410042D01*
Y00670220D01*
X01400708D01*
Y00681901D01*
X01384960D01*
Y00659803D01*
X01400708D01*
Y00663228D01*
X01409144D01*
X01410042Y00662330D01*
Y00657897D01*
X01410042Y00657516D01*
X01409144Y00656631D01*
X01409140Y00656628D01*
X01409026D01*
Y00649960D01*
X01427314D01*
Y00656628D01*
X01427200D01*
X01426298Y00657516D01*
X01426298Y00657897D01*
Y00660942D01*
X01428344D01*
X01431604Y00657682D01*
Y00622300D01*
X01431870Y00620962D01*
X01432628Y00619828D01*
X01476054Y00576402D01*
Y00573619D01*
X01474790Y00573351D01*
X01473562Y00574952D01*
X01471961Y00576181D01*
X01470096Y00576953D01*
X01468095Y00577216D01*
X01454490D01*
Y00564360D01*
Y00551504D01*
X01468095D01*
X01470096Y00551768D01*
X01471961Y00552540D01*
X01473562Y00553769D01*
X01474790Y00555370D01*
X01476054Y00555101D01*
Y00553898D01*
X01466672Y00544516D01*
X01449248D01*
X01443530Y00550234D01*
X01444056Y00551504D01*
X01451950D01*
Y00564360D01*
Y00577216D01*
X01438345D01*
X01436344Y00576953D01*
X01434480Y00576181D01*
X01432878Y00574952D01*
X01431650Y00573351D01*
X01431407Y00572765D01*
X01430033D01*
X01429790Y00573351D01*
X01428562Y00574952D01*
X01426960Y00576181D01*
X01425096Y00576953D01*
X01423095Y00577216D01*
X01411990D01*
Y00564360D01*
X01410720D01*
Y00563090D01*
X01390614D01*
Y00559235D01*
X01390877Y00557234D01*
X01391649Y00555370D01*
X01392878Y00553769D01*
X01393350Y00553406D01*
X01392919Y00552136D01*
X01358900D01*
X01357562Y00551870D01*
X01356428Y00551112D01*
X01353278Y00547962D01*
X01352520Y00546828D01*
X01352254Y00545490D01*
Y00544034D01*
X01349226D01*
Y00527100D01*
X01342649D01*
Y00530374D01*
X01339780D01*
Y00542776D01*
X01342649D01*
Y00554504D01*
X01331731D01*
Y00542776D01*
X01334600D01*
Y00530374D01*
X01331731D01*
Y00518646D01*
X01331731D01*
Y00517674D01*
X01331731D01*
Y00505946D01*
X01342649D01*
Y00510920D01*
X01349226D01*
Y00504986D01*
X01360612D01*
X01364509Y00501089D01*
X01365349Y00500527D01*
X01366340Y00500330D01*
X01384300D01*
X01385291Y00500527D01*
X01386131Y00501089D01*
X01389563Y00504520D01*
X01395242D01*
X01395698Y00503876D01*
X01395064Y00502606D01*
X01393190D01*
X01393190Y00502606D01*
X01391852Y00502340D01*
X01390718Y00501582D01*
X01390718Y00501582D01*
X01378018Y00488882D01*
X01377260Y00487748D01*
X01376994Y00486410D01*
Y00454660D01*
X01377260Y00453322D01*
X01378018Y00452188D01*
X01397068Y00433138D01*
X01398202Y00432380D01*
X01399540Y00432114D01*
X01426032D01*
X01448114Y00410032D01*
Y00327556D01*
X01447988Y00327472D01*
X01446877Y00325810D01*
X01446488Y00323850D01*
X01446877Y00321890D01*
X01447988Y00320228D01*
X01448761Y00319711D01*
Y00313600D01*
X01445470Y00310309D01*
X01442234D01*
Y00312919D01*
X01430506D01*
Y00312470D01*
X01429009D01*
Y00314914D01*
X01429420Y00315829D01*
X01430179Y00315985D01*
X01435100D01*
Y00322460D01*
X01436370D01*
Y00323730D01*
X01443250D01*
Y00328935D01*
X01441758D01*
X01441092Y00330205D01*
X01442059Y00331653D01*
X01442276Y00332740D01*
X01430464D01*
X01430681Y00331653D01*
X01431648Y00330205D01*
X01430982Y00328935D01*
X01430279D01*
X01429490Y00328935D01*
X01429009Y00330006D01*
Y00330984D01*
X01426140D01*
Y00332860D01*
Y00345560D01*
X01425943Y00346551D01*
X01425381Y00347391D01*
X01424243Y00348529D01*
X01423929Y00349736D01*
X01423929D01*
X01423929Y00349736D01*
Y00361464D01*
X01413011D01*
Y00349736D01*
X01416060D01*
X01416077Y00349649D01*
X01416639Y00348809D01*
X01420960Y00344487D01*
Y00340772D01*
X01419787Y00340286D01*
X01419151Y00340921D01*
X01418311Y00341483D01*
X01417320Y00341680D01*
X01380854D01*
Y00342614D01*
X01373806D01*
Y00335566D01*
X01380854D01*
Y00336500D01*
X01416247D01*
X01420493Y00332254D01*
X01419967Y00330984D01*
X01418091D01*
Y00320918D01*
X01416821Y00320392D01*
X01414009Y00323204D01*
Y00330984D01*
X01403091D01*
Y00319256D01*
X01410632D01*
X01412874Y00317014D01*
X01412348Y00315744D01*
X01403091D01*
Y00312470D01*
X01400613D01*
X01386131Y00326951D01*
X01385291Y00327513D01*
X01384300Y00327710D01*
X01383289D01*
Y00330984D01*
X01372371D01*
Y00323324D01*
X01369559Y00320511D01*
X01368289Y00321037D01*
Y00330984D01*
X01365420D01*
Y00335566D01*
X01366854D01*
Y00342614D01*
X01365920D01*
Y00344987D01*
X01366323Y00345390D01*
X01369060D01*
X01370051Y00345587D01*
X01370891Y00346149D01*
X01371281Y00346539D01*
X01371842Y00347379D01*
X01372039Y00348370D01*
Y00349076D01*
X01375974D01*
Y00362124D01*
X01373423D01*
X01372897Y00363394D01*
X01375213Y00365710D01*
X01393190D01*
X01394181Y00365907D01*
X01395021Y00366469D01*
X01400096Y00371544D01*
X01401366Y00371017D01*
Y00367556D01*
X01410414D01*
Y00382104D01*
X01402292D01*
X01401767Y00383374D01*
X01407721Y00389329D01*
X01408283Y00390169D01*
X01408480Y00391160D01*
Y00393897D01*
X01409323Y00394740D01*
X01410866D01*
Y00390056D01*
X01419914D01*
Y00404604D01*
X01410866D01*
Y00399920D01*
X01408250D01*
X01407259Y00399723D01*
X01406419Y00399161D01*
X01404059Y00396801D01*
X01403497Y00395961D01*
X01403300Y00394970D01*
Y00393329D01*
X01403200Y00393262D01*
X01401930Y00393941D01*
Y00396060D01*
X01397660D01*
Y00389040D01*
X01398448D01*
X01398934Y00387867D01*
X01388640Y00377573D01*
X01387370Y00378098D01*
Y00382390D01*
X01381760D01*
Y00377185D01*
X01386456D01*
X01386983Y00375915D01*
X01385767Y00374700D01*
X01370133D01*
X01367901Y00376931D01*
X01367989Y00378201D01*
X01371114D01*
Y00389119D01*
X01359386D01*
Y00378201D01*
X01362660D01*
Y00375920D01*
X01362857Y00374929D01*
X01363419Y00374089D01*
X01367229Y00370279D01*
X01368069Y00369717D01*
X01369060Y00369520D01*
X01370038D01*
X01370524Y00368347D01*
X01367619Y00365441D01*
X01367057Y00364601D01*
X01366860Y00363610D01*
Y00362124D01*
X01362926D01*
Y00349318D01*
X01361499Y00347891D01*
X01360937Y00347051D01*
X01360740Y00346060D01*
Y00342614D01*
X01359806D01*
Y00335566D01*
X01360240D01*
Y00330984D01*
X01357371D01*
Y00319256D01*
X01360240D01*
Y00315744D01*
X01357371D01*
Y00304016D01*
X01367740D01*
Y00299992D01*
X01279838Y00299984D01*
X01278940Y00300882D01*
Y00304016D01*
X01289309D01*
Y00307290D01*
X01290806D01*
Y00302001D01*
X01302534D01*
Y00304611D01*
X01306950D01*
X01306950Y00304611D01*
X01308040Y00304828D01*
X01308964Y00305446D01*
X01313924Y00310406D01*
X01314542Y00311330D01*
X01314759Y00312420D01*
X01314759Y00312420D01*
Y00319711D01*
X01315532Y00320228D01*
X01316642Y00321890D01*
X01317032Y00323850D01*
X01316642Y00325810D01*
X01315532Y00327472D01*
X01313870Y00328582D01*
X01311910Y00328972D01*
X01309950Y00328582D01*
X01308288Y00327472D01*
X01307177Y00325810D01*
X01306788Y00323850D01*
X01307177Y00321890D01*
X01308288Y00320228D01*
X01309061Y00319711D01*
Y00313600D01*
X01305770Y00310309D01*
X01302534D01*
Y00312919D01*
X01290806D01*
Y00312470D01*
X01289309D01*
Y00314914D01*
X01289720Y00315829D01*
X01290479Y00315985D01*
X01295400D01*
Y00322460D01*
X01296670D01*
Y00323730D01*
X01303550D01*
Y00328935D01*
X01301879D01*
X01301312Y00330205D01*
X01302359Y00331773D01*
X01302576Y00332860D01*
X01290764D01*
X01290981Y00331773D01*
X01292028Y00330205D01*
X01291461Y00328935D01*
X01290579D01*
X01289790Y00328935D01*
X01289309Y00330006D01*
Y00330984D01*
X01286440D01*
Y00332860D01*
Y00345560D01*
X01286243Y00346551D01*
X01285681Y00347391D01*
X01284543Y00348529D01*
X01284229Y00349736D01*
X01284229D01*
X01284229Y00349736D01*
Y00361464D01*
X01273311D01*
Y00349736D01*
X01276360D01*
X01276377Y00349649D01*
X01276939Y00348809D01*
X01281260Y00344487D01*
Y00340772D01*
X01280087Y00340286D01*
X01279451Y00340921D01*
X01278611Y00341483D01*
X01277620Y00341680D01*
X01241154D01*
Y00342614D01*
X01234106D01*
Y00335566D01*
X01241154D01*
Y00336500D01*
X01276547D01*
X01280793Y00332254D01*
X01280267Y00330984D01*
X01278391D01*
Y00320918D01*
X01277121Y00320392D01*
X01274309Y00323204D01*
Y00330984D01*
X01263391D01*
Y00319256D01*
X01270931D01*
X01273174Y00317014D01*
X01272647Y00315744D01*
X01263391D01*
Y00312470D01*
X01260913D01*
X01246431Y00326951D01*
X01245591Y00327513D01*
X01244600Y00327710D01*
X01243589D01*
Y00330984D01*
X01232671D01*
Y00323324D01*
X01229859Y00320511D01*
X01228589Y00321037D01*
Y00330984D01*
X01225720D01*
Y00335566D01*
X01227154D01*
Y00342614D01*
X01226220D01*
Y00344987D01*
X01226623Y00345390D01*
X01229360D01*
X01230351Y00345587D01*
X01231191Y00346149D01*
X01231581Y00346539D01*
X01232142Y00347379D01*
X01232339Y00348370D01*
Y00349076D01*
X01236274D01*
Y00362124D01*
X01233723D01*
X01233196Y00363394D01*
X01234243Y00364440D01*
X01252220D01*
X01253211Y00364637D01*
X01254051Y00365199D01*
X01260396Y00371544D01*
X01261666Y00371017D01*
Y00367556D01*
X01270714D01*
Y00382104D01*
X01262592D01*
X01262066Y00383374D01*
X01268021Y00389329D01*
X01268583Y00390169D01*
X01268780Y00391160D01*
Y00393897D01*
X01269623Y00394740D01*
X01271166D01*
Y00390056D01*
X01280214D01*
Y00404604D01*
X01271166D01*
Y00399920D01*
X01268550D01*
X01267559Y00399723D01*
X01266719Y00399161D01*
X01264359Y00396801D01*
X01263797Y00395961D01*
X01263600Y00394970D01*
Y00393329D01*
X01263500Y00393262D01*
X01262230Y00393941D01*
Y00396060D01*
X01257960D01*
Y00389040D01*
X01258748D01*
X01259234Y00387867D01*
X01248940Y00377573D01*
X01247670Y00378098D01*
Y00382390D01*
X01233910D01*
Y00377240D01*
X01233910Y00377185D01*
X01233778Y00375970D01*
X01229163D01*
X01228202Y00376931D01*
X01228289Y00378201D01*
X01231414D01*
Y00389119D01*
X01219686D01*
Y00378201D01*
X01222960D01*
Y00375920D01*
X01223157Y00374929D01*
X01223719Y00374089D01*
X01226259Y00371549D01*
X01227099Y00370987D01*
X01228090Y00370790D01*
X01232545D01*
X01232670Y00369520D01*
X01232179Y00369423D01*
X01231339Y00368861D01*
X01227918Y00365441D01*
X01227357Y00364601D01*
X01227160Y00363610D01*
Y00362124D01*
X01223226D01*
Y00349318D01*
X01221799Y00347891D01*
X01221237Y00347051D01*
X01221040Y00346060D01*
Y00342614D01*
X01220106D01*
Y00335566D01*
X01220540D01*
Y00330984D01*
X01217671D01*
Y00319256D01*
X01220540D01*
Y00315744D01*
X01217671D01*
Y00304016D01*
X01228040D01*
Y00299979D01*
X01140138Y00299971D01*
X01139240Y00300869D01*
Y00304016D01*
X01149609D01*
Y00307290D01*
X01151106D01*
Y00302001D01*
X01162834D01*
Y00304611D01*
X01167250D01*
X01167250Y00304611D01*
X01168340Y00304828D01*
X01169264Y00305446D01*
X01174224Y00310406D01*
X01174842Y00311330D01*
X01175059Y00312420D01*
X01175059Y00312420D01*
Y00319711D01*
X01175832Y00320228D01*
X01176943Y00321890D01*
X01177332Y00323850D01*
X01176943Y00325810D01*
X01175832Y00327472D01*
X01174170Y00328582D01*
X01172210Y00328972D01*
X01170250Y00328582D01*
X01168588Y00327472D01*
X01167477Y00325810D01*
X01167088Y00323850D01*
X01167477Y00321890D01*
X01168588Y00320228D01*
X01169361Y00319711D01*
Y00313600D01*
X01166070Y00310309D01*
X01162834D01*
Y00312919D01*
X01151106D01*
Y00312470D01*
X01149609D01*
Y00314914D01*
X01150020Y00315829D01*
X01150779Y00315985D01*
X01155700D01*
Y00322460D01*
X01156970D01*
Y00323730D01*
X01163850D01*
Y00328935D01*
X01162179D01*
X01161612Y00330205D01*
X01162660Y00331773D01*
X01162876Y00332860D01*
X01151064D01*
X01151281Y00331773D01*
X01152328Y00330205D01*
X01151761Y00328935D01*
X01150879D01*
X01150090Y00328935D01*
X01149609Y00330006D01*
Y00330984D01*
X01146740D01*
Y00332860D01*
Y00345560D01*
X01146543Y00346551D01*
X01145981Y00347391D01*
X01144843Y00348529D01*
X01144529Y00349736D01*
X01144529D01*
X01144529Y00349736D01*
Y00361464D01*
X01133611D01*
Y00349736D01*
X01136660D01*
X01136677Y00349649D01*
X01137239Y00348809D01*
X01141560Y00344487D01*
Y00340772D01*
X01140387Y00340286D01*
X01139751Y00340921D01*
X01138911Y00341483D01*
X01137920Y00341680D01*
X01101454D01*
Y00342614D01*
X01094406D01*
Y00335566D01*
X01101454D01*
Y00336500D01*
X01136847D01*
X01141094Y00332254D01*
X01140567Y00330984D01*
X01138691D01*
Y00320918D01*
X01137421Y00320392D01*
X01134609Y00323204D01*
Y00330984D01*
X01123691D01*
Y00319256D01*
X01131232D01*
X01133474Y00317014D01*
X01132947Y00315744D01*
X01123691D01*
Y00312470D01*
X01121213D01*
X01106731Y00326951D01*
X01105891Y00327513D01*
X01104900Y00327710D01*
X01103889D01*
Y00330984D01*
X01092971D01*
Y00323324D01*
X01090159Y00320511D01*
X01088889Y00321037D01*
Y00330984D01*
X01086020D01*
Y00335566D01*
X01087454D01*
Y00342614D01*
X01086520D01*
Y00344987D01*
X01086923Y00345390D01*
X01089660D01*
X01090651Y00345587D01*
X01091491Y00346149D01*
X01091881Y00346539D01*
X01092442Y00347379D01*
X01092639Y00348370D01*
Y00349076D01*
X01096574D01*
Y00362124D01*
X01094023D01*
X01093496Y00363394D01*
X01094543Y00364440D01*
X01112520D01*
X01113511Y00364637D01*
X01114351Y00365199D01*
X01120696Y00371544D01*
X01121966Y00371017D01*
Y00367556D01*
X01131014D01*
Y00382104D01*
X01122893D01*
X01122366Y00383374D01*
X01128321Y00389329D01*
X01128883Y00390169D01*
X01129080Y00391160D01*
Y00393897D01*
X01129923Y00394740D01*
X01131466D01*
Y00390056D01*
X01140514D01*
Y00404604D01*
X01131466D01*
Y00399920D01*
X01128850D01*
X01127859Y00399723D01*
X01127019Y00399161D01*
X01124659Y00396801D01*
X01124097Y00395961D01*
X01123900Y00394970D01*
Y00393329D01*
X01123800Y00393262D01*
X01122530Y00393941D01*
Y00396060D01*
X01118260D01*
Y00389040D01*
X01119048D01*
X01119534Y00387867D01*
X01109240Y00377573D01*
X01107970Y00378098D01*
Y00382390D01*
X01094210D01*
Y00377240D01*
X01094210Y00377185D01*
X01094078Y00375970D01*
X01089463D01*
X01088502Y00376931D01*
X01088589Y00378201D01*
X01091714D01*
Y00389119D01*
X01080197D01*
X01079197Y00389890D01*
X01074420D01*
Y00385254D01*
X01075507Y00385471D01*
X01077505Y00386805D01*
X01078716Y00388618D01*
X01079491Y00388578D01*
X01079986Y00388407D01*
Y00378201D01*
X01083260D01*
Y00375920D01*
X01083457Y00374929D01*
X01084019Y00374089D01*
X01086559Y00371549D01*
X01087399Y00370987D01*
X01088390Y00370790D01*
X01092845D01*
X01092970Y00369520D01*
X01092479Y00369423D01*
X01091639Y00368861D01*
X01088219Y00365441D01*
X01087657Y00364601D01*
X01087460Y00363610D01*
Y00362124D01*
X01083526D01*
Y00349318D01*
X01082099Y00347891D01*
X01081537Y00347051D01*
X01081340Y00346060D01*
Y00342614D01*
X01080406D01*
Y00335566D01*
X01080840D01*
Y00330984D01*
X01077971D01*
Y00319256D01*
X01080840D01*
Y00315744D01*
X01077971D01*
Y00304016D01*
X01088340D01*
Y00299966D01*
X01000438Y00299958D01*
X00999540Y00300856D01*
Y00304016D01*
X01009909D01*
Y00307290D01*
X01011406D01*
Y00302001D01*
X01023134D01*
Y00304611D01*
X01027550D01*
X01027550Y00304611D01*
X01028640Y00304828D01*
X01029564Y00305446D01*
X01034524Y00310406D01*
X01035142Y00311330D01*
X01035359Y00312420D01*
X01035359Y00312420D01*
Y00319711D01*
X01036132Y00320228D01*
X01037243Y00321890D01*
X01037632Y00323850D01*
X01037243Y00325810D01*
X01036132Y00327472D01*
X01034470Y00328582D01*
X01032510Y00328972D01*
X01030550Y00328582D01*
X01028888Y00327472D01*
X01027777Y00325810D01*
X01027388Y00323850D01*
X01027777Y00321890D01*
X01028888Y00320228D01*
X01029661Y00319711D01*
Y00313600D01*
X01026370Y00310309D01*
X01023134D01*
Y00312919D01*
X01011406D01*
Y00312470D01*
X01009909D01*
Y00314914D01*
X01010320Y00315829D01*
X01011079Y00315985D01*
X01016000D01*
Y00322460D01*
X01017270D01*
Y00323730D01*
X01024150D01*
Y00328935D01*
X01022479D01*
X01021912Y00330205D01*
X01022960Y00331773D01*
X01023176Y00332860D01*
X01011364D01*
X01011581Y00331773D01*
X01012628Y00330205D01*
X01012061Y00328935D01*
X01011179D01*
X01010390Y00328935D01*
X01009909Y00330006D01*
Y00330984D01*
X01007040D01*
Y00332860D01*
Y00345560D01*
X01006843Y00346551D01*
X01006281Y00347391D01*
X01005143Y00348529D01*
X01004829Y00349736D01*
X01004829D01*
X01004829Y00349736D01*
Y00361464D01*
X00993911D01*
Y00349736D01*
X00996960D01*
X00996977Y00349649D01*
X00997539Y00348809D01*
X01001860Y00344487D01*
Y00340772D01*
X01000687Y00340286D01*
X01000051Y00340921D01*
X00999211Y00341483D01*
X00998220Y00341680D01*
X00961754D01*
Y00342614D01*
X00954706D01*
Y00335566D01*
X00961754D01*
Y00336500D01*
X00997147D01*
X01001394Y00332254D01*
X01000867Y00330984D01*
X00998991D01*
Y00320918D01*
X00997721Y00320392D01*
X00994909Y00323204D01*
Y00330984D01*
X00983991D01*
Y00319256D01*
X00991532D01*
X00993773Y00317014D01*
X00993248Y00315744D01*
X00983991D01*
Y00312470D01*
X00981513D01*
X00967031Y00326951D01*
X00966191Y00327513D01*
X00965200Y00327710D01*
X00964189D01*
Y00330984D01*
X00953271D01*
Y00323324D01*
X00950459Y00320511D01*
X00949189Y00321037D01*
Y00330984D01*
X00946320D01*
Y00335566D01*
X00947754D01*
Y00342614D01*
X00946820D01*
Y00344987D01*
X00947223Y00345390D01*
X00949960D01*
X00950951Y00345587D01*
X00951791Y00346149D01*
X00952181Y00346539D01*
X00952742Y00347379D01*
X00952940Y00348370D01*
Y00349076D01*
X00956874D01*
Y00362124D01*
X00954323D01*
X00953796Y00363394D01*
X00954843Y00364440D01*
X00972820D01*
X00973811Y00364637D01*
X00974651Y00365199D01*
X00980996Y00371544D01*
X00982266Y00371017D01*
Y00367556D01*
X00991314D01*
Y00382104D01*
X00983193D01*
X00982666Y00383374D01*
X00988621Y00389329D01*
X00989183Y00390169D01*
X00989380Y00391160D01*
Y00393897D01*
X00990223Y00394740D01*
X00991766D01*
Y00390056D01*
X01000814D01*
Y00404604D01*
X00991766D01*
Y00399920D01*
X00989150D01*
X00988159Y00399723D01*
X00987319Y00399161D01*
X00984959Y00396801D01*
X00984397Y00395961D01*
X00984200Y00394970D01*
Y00393329D01*
X00984100Y00393262D01*
X00982830Y00393941D01*
Y00396060D01*
X00978560D01*
Y00389040D01*
X00979348D01*
X00979834Y00387867D01*
X00969540Y00377573D01*
X00968270Y00378098D01*
Y00382390D01*
X00954510D01*
Y00377240D01*
X00954510Y00377185D01*
X00954378Y00375970D01*
X00949763D01*
X00948801Y00376931D01*
X00948889Y00378201D01*
X00952014D01*
Y00389119D01*
X00940286D01*
Y00378201D01*
X00943560D01*
Y00375920D01*
X00943757Y00374929D01*
X00944319Y00374089D01*
X00946859Y00371549D01*
X00947699Y00370987D01*
X00948690Y00370790D01*
X00953145D01*
X00953270Y00369520D01*
X00952779Y00369423D01*
X00951939Y00368861D01*
X00948519Y00365441D01*
X00947957Y00364601D01*
X00947760Y00363610D01*
Y00362124D01*
X00943826D01*
Y00349318D01*
X00942399Y00347891D01*
X00941837Y00347051D01*
X00941640Y00346060D01*
Y00342614D01*
X00940706D01*
Y00335566D01*
X00941140D01*
Y00330984D01*
X00938271D01*
Y00319256D01*
X00941140D01*
Y00315744D01*
X00938271D01*
Y00304016D01*
X00948640D01*
Y00299953D01*
X00860738Y00299945D01*
X00859840Y00300843D01*
Y00304016D01*
X00870209D01*
Y00307290D01*
X00871706D01*
Y00302001D01*
X00883434D01*
Y00304611D01*
X00887850D01*
X00887850Y00304611D01*
X00888940Y00304828D01*
X00889864Y00305446D01*
X00894824Y00310406D01*
X00895442Y00311330D01*
X00895659Y00312420D01*
X00895659Y00312420D01*
Y00319711D01*
X00896432Y00320228D01*
X00897542Y00321890D01*
X00897932Y00323850D01*
X00897542Y00325810D01*
X00896432Y00327472D01*
X00894770Y00328582D01*
X00892810Y00328972D01*
X00890850Y00328582D01*
X00889188Y00327472D01*
X00888077Y00325810D01*
X00887688Y00323850D01*
X00888077Y00321890D01*
X00889188Y00320228D01*
X00889961Y00319711D01*
Y00313600D01*
X00886670Y00310309D01*
X00883434D01*
Y00312919D01*
X00871706D01*
Y00312470D01*
X00870209D01*
Y00314914D01*
X00870620Y00315829D01*
X00871379Y00315985D01*
X00876300D01*
Y00322460D01*
X00877570D01*
Y00323730D01*
X00884450D01*
Y00328935D01*
X00882779D01*
X00882212Y00330205D01*
X00883260Y00331773D01*
X00883476Y00332860D01*
X00871664D01*
X00871880Y00331773D01*
X00872928Y00330205D01*
X00872361Y00328935D01*
X00871479D01*
X00870690Y00328935D01*
X00870209Y00330006D01*
Y00330984D01*
X00867340D01*
Y00332860D01*
Y00345560D01*
X00867143Y00346551D01*
X00866581Y00347391D01*
X00865443Y00348529D01*
X00865129Y00349736D01*
X00865129D01*
X00865129Y00349736D01*
Y00361464D01*
X00854211D01*
Y00349736D01*
X00857260D01*
X00857277Y00349649D01*
X00857839Y00348809D01*
X00862160Y00344487D01*
Y00340772D01*
X00860987Y00340286D01*
X00860351Y00340921D01*
X00859511Y00341483D01*
X00858520Y00341680D01*
X00822054D01*
Y00342614D01*
X00815006D01*
Y00335566D01*
X00822054D01*
Y00336500D01*
X00857447D01*
X00861693Y00332254D01*
X00861168Y00330984D01*
X00859291D01*
Y00320918D01*
X00858021Y00320392D01*
X00855209Y00323204D01*
Y00330984D01*
X00844291D01*
Y00319256D01*
X00851832D01*
X00854073Y00317014D01*
X00853548Y00315744D01*
X00844291D01*
Y00312470D01*
X00841813D01*
X00827331Y00326951D01*
X00826491Y00327513D01*
X00825500Y00327710D01*
X00824489D01*
Y00330984D01*
X00813571D01*
Y00323324D01*
X00810759Y00320511D01*
X00809489Y00321037D01*
Y00330984D01*
X00806620D01*
Y00335566D01*
X00808054D01*
Y00342614D01*
X00807120D01*
Y00344987D01*
X00807523Y00345390D01*
X00810260D01*
X00811251Y00345587D01*
X00812091Y00346149D01*
X00812481Y00346539D01*
X00813042Y00347379D01*
X00813240Y00348370D01*
Y00349076D01*
X00817174D01*
Y00362124D01*
X00814622D01*
X00814097Y00363394D01*
X00815143Y00364440D01*
X00833120D01*
X00834111Y00364637D01*
X00834951Y00365199D01*
X00841296Y00371544D01*
X00842566Y00371017D01*
Y00367556D01*
X00851614D01*
Y00382104D01*
X00843493D01*
X00842967Y00383374D01*
X00848921Y00389329D01*
X00849483Y00390169D01*
X00849680Y00391160D01*
Y00393897D01*
X00850523Y00394740D01*
X00852066D01*
Y00390056D01*
X00861114D01*
Y00404604D01*
X00852066D01*
Y00399920D01*
X00849450D01*
X00848459Y00399723D01*
X00847619Y00399161D01*
X00845259Y00396801D01*
X00844697Y00395961D01*
X00844500Y00394970D01*
Y00393329D01*
X00844400Y00393262D01*
X00843130Y00393941D01*
Y00396060D01*
X00838860D01*
Y00389040D01*
X00839648D01*
X00840134Y00387867D01*
X00829840Y00377573D01*
X00828570Y00378098D01*
Y00382390D01*
X00814810D01*
Y00377240D01*
X00814810Y00377185D01*
X00814678Y00375970D01*
X00810063D01*
X00809101Y00376931D01*
X00809189Y00378201D01*
X00812314D01*
Y00389119D01*
X00800586D01*
Y00378201D01*
X00803860D01*
Y00375920D01*
X00804057Y00374929D01*
X00804619Y00374089D01*
X00807159Y00371549D01*
X00807999Y00370987D01*
X00808990Y00370790D01*
X00813445D01*
X00813570Y00369520D01*
X00813079Y00369423D01*
X00812239Y00368861D01*
X00808819Y00365441D01*
X00808257Y00364601D01*
X00808060Y00363610D01*
Y00362124D01*
X00804126D01*
Y00349318D01*
X00802699Y00347891D01*
X00802137Y00347051D01*
X00801940Y00346060D01*
Y00342614D01*
X00801006D01*
Y00335566D01*
X00801440D01*
Y00330984D01*
X00798571D01*
Y00319256D01*
X00801440D01*
Y00315744D01*
X00798571D01*
Y00304016D01*
X00808940D01*
Y00299940D01*
X00721038Y00299932D01*
X00720140Y00300830D01*
Y00304016D01*
X00730509D01*
Y00307290D01*
X00732006D01*
Y00302001D01*
X00743734D01*
Y00304611D01*
X00748150D01*
X00748150Y00304611D01*
X00749240Y00304828D01*
X00750164Y00305446D01*
X00755124Y00310406D01*
X00755742Y00311330D01*
X00755959Y00312420D01*
X00755959Y00312420D01*
Y00319711D01*
X00756732Y00320228D01*
X00757842Y00321890D01*
X00758232Y00323850D01*
X00757842Y00325810D01*
X00756732Y00327472D01*
X00755070Y00328582D01*
X00753110Y00328972D01*
X00751150Y00328582D01*
X00749488Y00327472D01*
X00748378Y00325810D01*
X00747988Y00323850D01*
X00748378Y00321890D01*
X00749488Y00320228D01*
X00750261Y00319711D01*
Y00313600D01*
X00746970Y00310309D01*
X00743734D01*
Y00312919D01*
X00732006D01*
Y00312470D01*
X00730509D01*
Y00314914D01*
X00730920Y00315829D01*
X00731679Y00315985D01*
X00736600D01*
Y00322460D01*
X00737870D01*
Y00323730D01*
X00744750D01*
Y00328935D01*
X00743079D01*
X00742512Y00330205D01*
X00743559Y00331773D01*
X00743776Y00332860D01*
X00731964D01*
X00732180Y00331773D01*
X00733228Y00330205D01*
X00732661Y00328935D01*
X00731779D01*
X00730990Y00328935D01*
X00730509Y00330006D01*
Y00330984D01*
X00727640D01*
Y00332860D01*
Y00345560D01*
X00727443Y00346551D01*
X00726881Y00347391D01*
X00725743Y00348529D01*
X00725429Y00349736D01*
X00725429D01*
X00725429Y00349736D01*
Y00361464D01*
X00714511D01*
Y00349736D01*
X00717560D01*
X00717577Y00349649D01*
X00718139Y00348809D01*
X00722460Y00344487D01*
Y00340772D01*
X00721287Y00340286D01*
X00720651Y00340921D01*
X00719811Y00341483D01*
X00718820Y00341680D01*
X00682354D01*
Y00342614D01*
X00675306D01*
Y00335566D01*
X00682354D01*
Y00336500D01*
X00717747D01*
X00721993Y00332254D01*
X00721468Y00330984D01*
X00719591D01*
Y00320918D01*
X00718321Y00320392D01*
X00715509Y00323204D01*
Y00330984D01*
X00704591D01*
Y00319256D01*
X00712132D01*
X00714373Y00317014D01*
X00713848Y00315744D01*
X00704591D01*
Y00312470D01*
X00702113D01*
X00687631Y00326951D01*
X00686791Y00327513D01*
X00685800Y00327710D01*
X00684789D01*
Y00330984D01*
X00673871D01*
Y00323324D01*
X00671059Y00320511D01*
X00669789Y00321037D01*
Y00330984D01*
X00666920D01*
Y00335566D01*
X00668354D01*
Y00342614D01*
X00667420D01*
Y00344987D01*
X00667823Y00345390D01*
X00670560D01*
X00671551Y00345587D01*
X00672391Y00346149D01*
X00672781Y00346539D01*
X00673342Y00347379D01*
X00673540Y00348370D01*
Y00349076D01*
X00677474D01*
Y00362124D01*
X00674922D01*
X00674397Y00363394D01*
X00675443Y00364440D01*
X00693420D01*
X00694411Y00364637D01*
X00695251Y00365199D01*
X00701596Y00371544D01*
X00702866Y00371017D01*
Y00367556D01*
X00711914D01*
Y00382104D01*
X00703792D01*
X00703267Y00383374D01*
X00709221Y00389329D01*
X00709783Y00390169D01*
X00709980Y00391160D01*
Y00393897D01*
X00710823Y00394740D01*
X00712366D01*
Y00390056D01*
X00721414D01*
Y00404604D01*
X00712366D01*
Y00399920D01*
X00709750D01*
X00708759Y00399723D01*
X00707919Y00399161D01*
X00705559Y00396801D01*
X00704997Y00395961D01*
X00704800Y00394970D01*
Y00393329D01*
X00704700Y00393262D01*
X00703430Y00393941D01*
Y00396060D01*
X00699160D01*
Y00389040D01*
X00699948D01*
X00700434Y00387867D01*
X00690140Y00377573D01*
X00688870Y00378098D01*
Y00382390D01*
X00675110D01*
Y00377240D01*
X00675110Y00377185D01*
X00674978Y00375970D01*
X00670363D01*
X00669401Y00376931D01*
X00669489Y00378201D01*
X00672614D01*
Y00389119D01*
X00660886D01*
Y00378201D01*
X00664160D01*
Y00375920D01*
X00664357Y00374929D01*
X00664919Y00374089D01*
X00667459Y00371549D01*
X00668299Y00370987D01*
X00669290Y00370790D01*
X00673745D01*
X00673870Y00369520D01*
X00673379Y00369423D01*
X00672539Y00368861D01*
X00669119Y00365441D01*
X00668557Y00364601D01*
X00668360Y00363610D01*
Y00362124D01*
X00664426D01*
Y00349318D01*
X00662999Y00347891D01*
X00662437Y00347051D01*
X00662240Y00346060D01*
Y00342614D01*
X00661306D01*
Y00335566D01*
X00661740D01*
Y00330984D01*
X00658871D01*
Y00319256D01*
X00661740D01*
Y00315744D01*
X00658871D01*
Y00304016D01*
X00669240D01*
Y00299927D01*
X00581338Y00299919D01*
X00580440Y00300817D01*
Y00304016D01*
X00590809D01*
Y00307290D01*
X00592306D01*
Y00302001D01*
X00604034D01*
Y00304611D01*
X00608450D01*
X00608450Y00304611D01*
X00609540Y00304828D01*
X00610464Y00305446D01*
X00615424Y00310406D01*
X00616042Y00311330D01*
X00616259Y00312420D01*
X00616259Y00312420D01*
Y00319711D01*
X00617032Y00320228D01*
X00618143Y00321890D01*
X00618532Y00323850D01*
X00618143Y00325810D01*
X00617032Y00327472D01*
X00615370Y00328582D01*
X00613410Y00328972D01*
X00611450Y00328582D01*
X00609788Y00327472D01*
X00608677Y00325810D01*
X00608288Y00323850D01*
X00608677Y00321890D01*
X00609788Y00320228D01*
X00610561Y00319711D01*
Y00313600D01*
X00607270Y00310309D01*
X00604034D01*
Y00312919D01*
X00592306D01*
Y00312470D01*
X00590809D01*
Y00314914D01*
X00591220Y00315829D01*
X00591979Y00315985D01*
X00596900D01*
Y00322460D01*
X00598170D01*
Y00323730D01*
X00605050D01*
Y00328935D01*
X00603379D01*
X00602812Y00330205D01*
X00603859Y00331773D01*
X00604076Y00332860D01*
X00592264D01*
X00592481Y00331773D01*
X00593528Y00330205D01*
X00592961Y00328935D01*
X00592079D01*
X00591290Y00328935D01*
X00590809Y00330006D01*
Y00330984D01*
X00587940D01*
Y00332860D01*
Y00345560D01*
X00587743Y00346551D01*
X00587181Y00347391D01*
X00586043Y00348529D01*
X00585729Y00349736D01*
X00585729D01*
X00585729Y00349736D01*
Y00361464D01*
X00574811D01*
Y00349736D01*
X00577860D01*
X00577877Y00349649D01*
X00578439Y00348809D01*
X00582760Y00344487D01*
Y00340772D01*
X00581587Y00340286D01*
X00580951Y00340921D01*
X00580111Y00341483D01*
X00579120Y00341680D01*
X00542654D01*
Y00342614D01*
X00535606D01*
Y00335566D01*
X00542654D01*
Y00336500D01*
X00578047D01*
X00582294Y00332254D01*
X00581768Y00330984D01*
X00579891D01*
Y00320918D01*
X00578621Y00320392D01*
X00575809Y00323204D01*
Y00330984D01*
X00564891D01*
Y00319256D01*
X00572431D01*
X00574674Y00317014D01*
X00574147Y00315744D01*
X00564891D01*
Y00312470D01*
X00562413D01*
X00547931Y00326951D01*
X00547091Y00327513D01*
X00546100Y00327710D01*
X00545089D01*
Y00330984D01*
X00534171D01*
Y00323324D01*
X00531359Y00320511D01*
X00530089Y00321037D01*
Y00330984D01*
X00527220D01*
Y00335566D01*
X00528654D01*
Y00342614D01*
X00527720D01*
Y00344987D01*
X00528123Y00345390D01*
X00530860D01*
X00531851Y00345587D01*
X00532691Y00346149D01*
X00533081Y00346539D01*
X00533642Y00347379D01*
X00533839Y00348370D01*
Y00349076D01*
X00537774D01*
Y00362124D01*
X00535223D01*
X00534697Y00363394D01*
X00535743Y00364440D01*
X00553720D01*
X00554711Y00364637D01*
X00555551Y00365199D01*
X00561896Y00371544D01*
X00563166Y00371017D01*
Y00367556D01*
X00572214D01*
Y00382104D01*
X00564092D01*
X00563567Y00383374D01*
X00569521Y00389329D01*
X00570083Y00390169D01*
X00570280Y00391160D01*
Y00393897D01*
X00571123Y00394740D01*
X00572666D01*
Y00390056D01*
X00581714D01*
Y00404604D01*
X00572666D01*
Y00399920D01*
X00570050D01*
X00569059Y00399723D01*
X00568219Y00399161D01*
X00565859Y00396801D01*
X00565297Y00395961D01*
X00565100Y00394970D01*
Y00393329D01*
X00565000Y00393262D01*
X00563730Y00393941D01*
Y00396060D01*
X00559460D01*
Y00389040D01*
X00560248D01*
X00560734Y00387867D01*
X00550440Y00377573D01*
X00549170Y00378098D01*
Y00382390D01*
X00535410D01*
Y00377240D01*
X00535410Y00377185D01*
X00535278Y00375970D01*
X00530663D01*
X00529701Y00376931D01*
X00529789Y00378201D01*
X00532914D01*
Y00389119D01*
X00521186D01*
Y00378201D01*
X00524460D01*
Y00375920D01*
X00524657Y00374929D01*
X00525219Y00374089D01*
X00527759Y00371549D01*
X00528599Y00370987D01*
X00529590Y00370790D01*
X00534045D01*
X00534170Y00369520D01*
X00533679Y00369423D01*
X00532839Y00368861D01*
X00529418Y00365441D01*
X00528857Y00364601D01*
X00528660Y00363610D01*
Y00362124D01*
X00524726D01*
Y00349318D01*
X00523299Y00347891D01*
X00522737Y00347051D01*
X00522540Y00346060D01*
Y00342614D01*
X00521606D01*
Y00335566D01*
X00522040D01*
Y00330984D01*
X00519171D01*
Y00319256D01*
X00522040D01*
Y00315744D01*
X00519171D01*
Y00304016D01*
X00529540D01*
Y00299914D01*
X00441638Y00299906D01*
X00440740Y00300804D01*
Y00304016D01*
X00451109D01*
Y00307290D01*
X00452606D01*
Y00302001D01*
X00464334D01*
Y00304611D01*
X00468750D01*
X00468750Y00304611D01*
X00469840Y00304828D01*
X00470764Y00305446D01*
X00475724Y00310406D01*
X00476342Y00311330D01*
X00476559Y00312420D01*
X00476559Y00312420D01*
Y00319711D01*
X00477332Y00320228D01*
X00478442Y00321890D01*
X00478832Y00323850D01*
X00478442Y00325810D01*
X00477332Y00327472D01*
X00475670Y00328582D01*
X00473710Y00328972D01*
X00471750Y00328582D01*
X00470088Y00327472D01*
X00468978Y00325810D01*
X00468588Y00323850D01*
X00468978Y00321890D01*
X00470088Y00320228D01*
X00470861Y00319711D01*
Y00313600D01*
X00467570Y00310309D01*
X00464334D01*
Y00312919D01*
X00452606D01*
Y00312470D01*
X00451109D01*
Y00314914D01*
X00451520Y00315829D01*
X00452279Y00315985D01*
X00457200D01*
Y00322460D01*
X00458470D01*
Y00323730D01*
X00465350D01*
Y00328935D01*
X00463679D01*
X00463112Y00330205D01*
X00464160Y00331773D01*
X00464376Y00332860D01*
X00452564D01*
X00452780Y00331773D01*
X00453828Y00330205D01*
X00453261Y00328935D01*
X00452379D01*
X00451590Y00328935D01*
X00451109Y00330006D01*
Y00330984D01*
X00448240D01*
Y00332860D01*
Y00345560D01*
X00448043Y00346551D01*
X00447481Y00347391D01*
X00446343Y00348529D01*
X00446029Y00349736D01*
X00446029D01*
X00446029Y00349736D01*
Y00361464D01*
X00435111D01*
Y00349736D01*
X00438160D01*
X00438177Y00349649D01*
X00438739Y00348809D01*
X00443060Y00344487D01*
Y00340772D01*
X00441887Y00340286D01*
X00441251Y00340921D01*
X00440411Y00341483D01*
X00439420Y00341680D01*
X00402954D01*
Y00342614D01*
X00395906D01*
Y00335566D01*
X00402954D01*
Y00336500D01*
X00438347D01*
X00442593Y00332254D01*
X00442067Y00330984D01*
X00440191D01*
Y00320918D01*
X00438921Y00320392D01*
X00436109Y00323204D01*
Y00330984D01*
X00425191D01*
Y00319256D01*
X00432732D01*
X00434973Y00317014D01*
X00434448Y00315744D01*
X00425191D01*
Y00312470D01*
X00422713D01*
X00408231Y00326951D01*
X00407391Y00327513D01*
X00406400Y00327710D01*
X00405389D01*
Y00330984D01*
X00394471D01*
Y00323324D01*
X00391659Y00320511D01*
X00390389Y00321037D01*
Y00330984D01*
X00387520D01*
Y00335566D01*
X00388954D01*
Y00342614D01*
X00388020D01*
Y00344987D01*
X00388423Y00345390D01*
X00391160D01*
X00392151Y00345587D01*
X00392991Y00346149D01*
X00393381Y00346539D01*
X00393942Y00347379D01*
X00394140Y00348370D01*
Y00349076D01*
X00398074D01*
Y00362124D01*
X00395522D01*
X00394996Y00363394D01*
X00396043Y00364440D01*
X00414020D01*
X00415011Y00364637D01*
X00415851Y00365199D01*
X00422196Y00371544D01*
X00423466Y00371017D01*
Y00367556D01*
X00432514D01*
Y00382104D01*
X00424393D01*
X00423867Y00383374D01*
X00429821Y00389329D01*
X00430383Y00390169D01*
X00430580Y00391160D01*
Y00393897D01*
X00431423Y00394740D01*
X00432966D01*
Y00390056D01*
X00442014D01*
Y00404604D01*
X00432966D01*
Y00399920D01*
X00430350D01*
X00429359Y00399723D01*
X00428519Y00399161D01*
X00426159Y00396801D01*
X00425597Y00395961D01*
X00425400Y00394970D01*
Y00393329D01*
X00425300Y00393262D01*
X00424030Y00393941D01*
Y00396060D01*
X00419760D01*
Y00389040D01*
X00420548D01*
X00421034Y00387867D01*
X00410740Y00377573D01*
X00409470Y00378098D01*
Y00382390D01*
X00395710D01*
Y00377240D01*
X00395710Y00377185D01*
X00395578Y00375970D01*
X00390963D01*
X00390001Y00376931D01*
X00390089Y00378201D01*
X00393214D01*
Y00389119D01*
X00381486D01*
Y00378201D01*
X00384760D01*
Y00375920D01*
X00384957Y00374929D01*
X00385519Y00374089D01*
X00388059Y00371549D01*
X00388899Y00370987D01*
X00389890Y00370790D01*
X00394345D01*
X00394470Y00369520D01*
X00393979Y00369423D01*
X00393139Y00368861D01*
X00389719Y00365441D01*
X00389157Y00364601D01*
X00388960Y00363610D01*
Y00362124D01*
X00385026D01*
Y00349318D01*
X00383599Y00347891D01*
X00383037Y00347051D01*
X00382840Y00346060D01*
Y00342614D01*
X00381906D01*
Y00335566D01*
X00382340D01*
Y00330984D01*
X00379471D01*
Y00319256D01*
X00382340D01*
Y00315744D01*
X00379471D01*
Y00304016D01*
X00389840D01*
Y00299902D01*
X00301938Y00299893D01*
X00301040Y00300791D01*
Y00304016D01*
X00311409D01*
Y00307290D01*
X00312906D01*
Y00302001D01*
X00324634D01*
Y00304611D01*
X00329050D01*
X00329050Y00304611D01*
X00330140Y00304828D01*
X00331064Y00305446D01*
X00336024Y00310406D01*
X00336642Y00311330D01*
X00336859Y00312420D01*
X00336859Y00312420D01*
Y00319711D01*
X00337632Y00320228D01*
X00338742Y00321890D01*
X00339132Y00323850D01*
X00338742Y00325810D01*
X00337632Y00327472D01*
X00335970Y00328582D01*
X00334010Y00328972D01*
X00332050Y00328582D01*
X00330388Y00327472D01*
X00329277Y00325810D01*
X00328888Y00323850D01*
X00329277Y00321890D01*
X00330388Y00320228D01*
X00331161Y00319711D01*
Y00313600D01*
X00327870Y00310309D01*
X00324634D01*
Y00312919D01*
X00312906D01*
Y00312470D01*
X00311409D01*
Y00314914D01*
X00311820Y00315829D01*
X00312579Y00315985D01*
X00317500D01*
Y00322460D01*
X00318770D01*
Y00323730D01*
X00325650D01*
Y00328935D01*
X00323979D01*
X00323412Y00330205D01*
X00324459Y00331773D01*
X00324676Y00332860D01*
X00312864D01*
X00313081Y00331773D01*
X00314128Y00330205D01*
X00313561Y00328935D01*
X00312679D01*
X00311890Y00328935D01*
X00311409Y00330006D01*
Y00330984D01*
X00308540D01*
Y00332860D01*
Y00345560D01*
X00308343Y00346551D01*
X00307781Y00347391D01*
X00306643Y00348529D01*
X00306329Y00349736D01*
X00306329D01*
X00306329Y00349736D01*
Y00361464D01*
X00295411D01*
Y00349736D01*
X00298460D01*
X00298477Y00349649D01*
X00299039Y00348809D01*
X00303360Y00344487D01*
Y00340772D01*
X00302187Y00340286D01*
X00301551Y00340921D01*
X00300711Y00341483D01*
X00299720Y00341680D01*
X00263254D01*
Y00342614D01*
X00256206D01*
Y00335566D01*
X00263254D01*
Y00336500D01*
X00298647D01*
X00302894Y00332254D01*
X00302367Y00330984D01*
X00300491D01*
Y00320918D01*
X00299221Y00320392D01*
X00296409Y00323204D01*
Y00330984D01*
X00285491D01*
Y00319256D01*
X00293032D01*
X00295273Y00317014D01*
X00294748Y00315744D01*
X00285491D01*
Y00312470D01*
X00283013D01*
X00268531Y00326951D01*
X00267691Y00327513D01*
X00266700Y00327710D01*
X00265689D01*
Y00330984D01*
X00254771D01*
Y00323324D01*
X00251959Y00320511D01*
X00250689Y00321037D01*
Y00330984D01*
X00247820D01*
Y00335566D01*
X00249254D01*
Y00342614D01*
X00248320D01*
Y00344987D01*
X00248723Y00345390D01*
X00251460D01*
X00252451Y00345587D01*
X00253291Y00346149D01*
X00253681Y00346539D01*
X00254242Y00347379D01*
X00254440Y00348370D01*
Y00349076D01*
X00258374D01*
Y00362124D01*
X00255823D01*
X00255296Y00363394D01*
X00256343Y00364440D01*
X00274320D01*
X00275311Y00364637D01*
X00276151Y00365199D01*
X00282496Y00371544D01*
X00283766Y00371017D01*
Y00367556D01*
X00292814D01*
Y00382104D01*
X00284692D01*
X00284167Y00383374D01*
X00290121Y00389329D01*
X00290683Y00390169D01*
X00290880Y00391160D01*
Y00393897D01*
X00291723Y00394740D01*
X00293266D01*
Y00390056D01*
X00302314D01*
Y00404604D01*
X00293266D01*
Y00399920D01*
X00290650D01*
X00289659Y00399723D01*
X00288819Y00399161D01*
X00286459Y00396801D01*
X00285897Y00395961D01*
X00285700Y00394970D01*
Y00393329D01*
X00285600Y00393262D01*
X00284330Y00393941D01*
Y00396060D01*
X00280060D01*
Y00389040D01*
X00280848D01*
X00281334Y00387867D01*
X00271040Y00377573D01*
X00269770Y00378098D01*
Y00382390D01*
X00256010D01*
Y00377240D01*
X00256010Y00377185D01*
X00255878Y00375970D01*
X00251263D01*
X00250301Y00376931D01*
X00250389Y00378201D01*
X00253514D01*
Y00389119D01*
X00241786D01*
Y00378201D01*
X00245060D01*
Y00375920D01*
X00245257Y00374929D01*
X00245819Y00374089D01*
X00248359Y00371549D01*
X00249199Y00370987D01*
X00250190Y00370790D01*
X00254645D01*
X00254770Y00369520D01*
X00254279Y00369423D01*
X00253439Y00368861D01*
X00250019Y00365441D01*
X00249457Y00364601D01*
X00249260Y00363610D01*
Y00362124D01*
X00245326D01*
Y00349318D01*
X00243899Y00347891D01*
X00243337Y00347051D01*
X00243140Y00346060D01*
Y00342614D01*
X00242206D01*
Y00335566D01*
X00242640D01*
Y00330984D01*
X00239771D01*
Y00319256D01*
X00242640D01*
Y00315744D01*
X00239771D01*
Y00304016D01*
X00250140D01*
Y00299889D01*
X00162238Y00299881D01*
X00161340Y00300779D01*
Y00304016D01*
X00171709D01*
Y00307290D01*
X00173206D01*
Y00302001D01*
X00184934D01*
Y00304611D01*
X00189350D01*
X00189350Y00304611D01*
X00190440Y00304828D01*
X00191364Y00305446D01*
X00196324Y00310406D01*
X00196942Y00311330D01*
X00197159Y00312420D01*
X00197159Y00312420D01*
Y00319711D01*
X00197932Y00320228D01*
X00199042Y00321890D01*
X00199432Y00323850D01*
X00199042Y00325810D01*
X00197932Y00327472D01*
X00196270Y00328582D01*
X00194310Y00328972D01*
X00192350Y00328582D01*
X00190688Y00327472D01*
X00189578Y00325810D01*
X00189188Y00323850D01*
X00189578Y00321890D01*
X00190688Y00320228D01*
X00191461Y00319711D01*
Y00313600D01*
X00188170Y00310309D01*
X00184934D01*
Y00312919D01*
X00173206D01*
Y00312470D01*
X00171709D01*
Y00314914D01*
X00172120Y00315829D01*
X00172879Y00315985D01*
X00177800D01*
Y00322460D01*
X00179070D01*
Y00323730D01*
X00185950D01*
Y00328935D01*
X00184279D01*
X00183712Y00330205D01*
X00184760Y00331773D01*
X00184976Y00332860D01*
X00173164D01*
X00173381Y00331773D01*
X00174428Y00330205D01*
X00173861Y00328935D01*
X00172979D01*
X00172190Y00328935D01*
X00171709Y00330006D01*
Y00330984D01*
X00168840D01*
Y00332860D01*
Y00345560D01*
X00168643Y00346551D01*
X00168081Y00347391D01*
X00166943Y00348529D01*
X00166629Y00349736D01*
X00166629D01*
X00166629Y00349736D01*
Y00361464D01*
X00155711D01*
Y00349736D01*
X00158760D01*
X00158777Y00349649D01*
X00159339Y00348809D01*
X00163660Y00344487D01*
Y00340772D01*
X00162487Y00340286D01*
X00161851Y00340921D01*
X00161011Y00341483D01*
X00160020Y00341680D01*
X00123554D01*
Y00342614D01*
X00116506D01*
Y00335566D01*
X00123554D01*
Y00336500D01*
X00158947D01*
X00163193Y00332254D01*
X00162668Y00330984D01*
X00160791D01*
Y00320918D01*
X00159521Y00320392D01*
X00156709Y00323204D01*
Y00330984D01*
X00145791D01*
Y00319256D01*
X00153331D01*
X00155574Y00317014D01*
X00155048Y00315744D01*
X00145791D01*
Y00312470D01*
X00143313D01*
X00128831Y00326951D01*
X00127991Y00327513D01*
X00127000Y00327710D01*
X00125989D01*
Y00330984D01*
X00115071D01*
Y00323324D01*
X00112259Y00320511D01*
X00110989Y00321037D01*
Y00330984D01*
X00108120D01*
Y00335566D01*
X00109554D01*
Y00342614D01*
X00108620D01*
Y00344987D01*
X00109023Y00345390D01*
X00111760D01*
X00112751Y00345587D01*
X00113591Y00346149D01*
X00113981Y00346539D01*
X00114542Y00347379D01*
X00114740Y00348370D01*
Y00349076D01*
X00118674D01*
Y00362124D01*
X00116123D01*
X00115597Y00363394D01*
X00116643Y00364440D01*
X00134620D01*
X00135611Y00364637D01*
X00136451Y00365199D01*
X00142796Y00371544D01*
X00144066Y00371017D01*
Y00367556D01*
X00153114D01*
Y00382104D01*
X00144993D01*
X00144466Y00383374D01*
X00150421Y00389329D01*
X00150983Y00390169D01*
X00151180Y00391160D01*
Y00393897D01*
X00152023Y00394740D01*
X00153566D01*
Y00390056D01*
X00162614D01*
Y00404604D01*
X00153566D01*
Y00399920D01*
X00150950D01*
X00149959Y00399723D01*
X00149119Y00399161D01*
X00146759Y00396801D01*
X00146197Y00395961D01*
X00146000Y00394970D01*
Y00393329D01*
X00145900Y00393262D01*
X00144630Y00393941D01*
Y00396060D01*
X00140360D01*
Y00389040D01*
X00141148D01*
X00141634Y00387867D01*
X00131340Y00377573D01*
X00130070Y00378098D01*
Y00382390D01*
X00116310D01*
Y00377240D01*
X00116310Y00377185D01*
X00116178Y00375970D01*
X00111563D01*
X00110602Y00376931D01*
X00110689Y00378201D01*
X00113814D01*
Y00389119D01*
X00102086D01*
Y00378201D01*
X00105360D01*
Y00375920D01*
X00105557Y00374929D01*
X00106119Y00374089D01*
X00108659Y00371549D01*
X00109499Y00370987D01*
X00110490Y00370790D01*
X00114945D01*
X00115070Y00369520D01*
X00114579Y00369423D01*
X00113739Y00368861D01*
X00110319Y00365441D01*
X00109757Y00364601D01*
X00109560Y00363610D01*
Y00362124D01*
X00105626D01*
Y00349318D01*
X00104199Y00347891D01*
X00103637Y00347051D01*
X00103440Y00346060D01*
Y00342614D01*
X00102506D01*
Y00335566D01*
X00102940D01*
Y00331882D01*
X00102042Y00330984D01*
X00100071D01*
X00099996Y00332223D01*
X00099877Y00394600D01*
X00100367Y00399579D01*
X00100816Y00401058D01*
X00102086Y00400870D01*
Y00393201D01*
X00113814D01*
Y00396070D01*
X00117326D01*
Y00393201D01*
X00129054D01*
Y00404119D01*
X00125780D01*
Y00410407D01*
X00135373Y00420000D01*
X00140000D01*
X00266054Y00419965D01*
X00266539Y00418792D01*
X00261059Y00413311D01*
X00260497Y00412471D01*
X00260300Y00411480D01*
Y00404119D01*
X00257026D01*
Y00401250D01*
X00253514D01*
Y00404119D01*
X00241786D01*
Y00393201D01*
X00253514D01*
Y00396070D01*
X00257026D01*
Y00393201D01*
X00268754D01*
Y00404119D01*
X00265480D01*
Y00410407D01*
X00275035Y00419963D01*
X00406985Y00419926D01*
X00407470Y00418753D01*
X00400759Y00412041D01*
X00400197Y00411201D01*
X00400000Y00410210D01*
Y00404119D01*
X00396726D01*
Y00401250D01*
X00393214D01*
Y00404119D01*
X00381486D01*
Y00393201D01*
X00393214D01*
Y00396070D01*
X00396726D01*
Y00393201D01*
X00408454D01*
Y00404119D01*
X00405180D01*
Y00409137D01*
X00415966Y00419924D01*
X00547916Y00419887D01*
X00548401Y00418714D01*
X00540459Y00410771D01*
X00539897Y00409931D01*
X00539700Y00408940D01*
Y00404119D01*
X00536426D01*
Y00401250D01*
X00532914D01*
Y00404119D01*
X00521186D01*
Y00393201D01*
X00532914D01*
Y00396070D01*
X00536426D01*
Y00393201D01*
X00548154D01*
Y00404119D01*
X00544880D01*
Y00407867D01*
X00556897Y00419885D01*
X00584600Y00419877D01*
X00589579Y00420368D01*
X00594367Y00421820D01*
X00598780Y00424179D01*
X00600268Y00425400D01*
X00690588D01*
X00691074Y00424227D01*
X00680159Y00413311D01*
X00679597Y00412471D01*
X00679400Y00411480D01*
Y00404119D01*
X00676126D01*
Y00401250D01*
X00672614D01*
Y00404119D01*
X00660886D01*
Y00393201D01*
X00672614D01*
Y00396070D01*
X00676126D01*
Y00393201D01*
X00687854D01*
Y00404119D01*
X00684580D01*
Y00410407D01*
X00695763Y00421590D01*
X00830288D01*
X00830774Y00420417D01*
X00819859Y00409501D01*
X00819297Y00408661D01*
X00819100Y00407670D01*
Y00404119D01*
X00815826D01*
Y00401250D01*
X00812314D01*
Y00404119D01*
X00800586D01*
Y00393201D01*
X00812314D01*
Y00396070D01*
X00815826D01*
Y00393201D01*
X00827554D01*
Y00404119D01*
X00824280D01*
Y00406597D01*
X00831609Y00413927D01*
X00832596Y00413117D01*
X00831900Y00412077D01*
X00831684Y00410990D01*
X00836320D01*
Y00415626D01*
X00835233Y00415410D01*
X00834193Y00414714D01*
X00833383Y00415701D01*
X00835209Y00417526D01*
X00964654D01*
X00965140Y00416353D01*
X00959559Y00410771D01*
X00958997Y00409931D01*
X00958800Y00408940D01*
Y00404119D01*
X00955526D01*
Y00401250D01*
X00952014D01*
Y00404119D01*
X00940286D01*
Y00393201D01*
X00952014D01*
Y00396070D01*
X00955526D01*
Y00393201D01*
X00967254D01*
Y00404119D01*
X00963980D01*
Y00407867D01*
X00970083Y00413970D01*
X00971519D01*
X00972117Y00412850D01*
X00971600Y00412077D01*
X00971384Y00410990D01*
X00983196D01*
X00982980Y00412077D01*
X00982463Y00412850D01*
X00983061Y00413970D01*
X01100662D01*
X01101188Y00412700D01*
X01099259Y00410771D01*
X01098697Y00409931D01*
X01098500Y00408940D01*
Y00404119D01*
X01095226D01*
Y00401250D01*
X01091714D01*
Y00404119D01*
X01079986D01*
Y00393913D01*
X01079491Y00393742D01*
X01078716Y00393702D01*
X01077505Y00395515D01*
X01075507Y00396850D01*
X01074420Y00397066D01*
Y00392430D01*
X01079197D01*
X01080197Y00393201D01*
X01091714D01*
Y00396070D01*
X01095226D01*
Y00393201D01*
X01106954D01*
Y00404119D01*
X01103680D01*
Y00407867D01*
X01127563Y00431750D01*
X01148080D01*
X01149071Y00431947D01*
X01149911Y00432509D01*
X01162040Y00444638D01*
X01163310Y00444112D01*
Y00410053D01*
X01156918Y00403660D01*
X01155700Y00403902D01*
X01153740Y00403512D01*
X01152078Y00402402D01*
X01150967Y00400740D01*
X01150578Y00398780D01*
X01150967Y00396820D01*
X01152078Y00395158D01*
X01153740Y00394048D01*
X01155700Y00393658D01*
X01157660Y00394048D01*
X01157695Y00394071D01*
X01158611Y00393155D01*
X01158587Y00393120D01*
X01158198Y00391160D01*
X01158587Y00389200D01*
X01159698Y00387538D01*
X01161360Y00386427D01*
X01163320Y00386038D01*
X01165280Y00386427D01*
X01166942Y00387538D01*
X01168053Y00389200D01*
X01168442Y00391160D01*
X01168200Y00392378D01*
X01172040Y00396218D01*
X01173310Y00395692D01*
Y00392852D01*
X01172398Y00392242D01*
X01171288Y00390580D01*
X01170898Y00388620D01*
X01171288Y00386660D01*
X01172398Y00384998D01*
X01174060Y00383887D01*
X01176020Y00383498D01*
X01177980Y00383887D01*
X01179642Y00384998D01*
X01180752Y00386660D01*
X01181142Y00388620D01*
X01180752Y00390580D01*
X01179642Y00392242D01*
X01178490Y00393012D01*
Y00395932D01*
X01179760Y00396458D01*
X01183840Y00392378D01*
X01183598Y00391160D01*
X01183988Y00389200D01*
X01185098Y00387538D01*
X01186760Y00386427D01*
X01188720Y00386038D01*
X01190680Y00386427D01*
X01192342Y00387538D01*
X01193453Y00389200D01*
X01193842Y00391160D01*
X01193453Y00393120D01*
X01192342Y00394782D01*
X01190680Y00395892D01*
X01188720Y00396282D01*
X01187502Y00396040D01*
X01183490Y00400052D01*
Y00408711D01*
X01184760Y00409237D01*
X01194000Y00399998D01*
X01193758Y00398780D01*
X01194147Y00396820D01*
X01195258Y00395158D01*
X01196920Y00394048D01*
X01198880Y00393658D01*
X01200840Y00394048D01*
X01202502Y00395158D01*
X01203613Y00396820D01*
X01204002Y00398780D01*
X01203613Y00400740D01*
X01202502Y00402402D01*
X01200840Y00403512D01*
X01198880Y00403902D01*
X01197662Y00403660D01*
X01188490Y00412833D01*
Y00456891D01*
X01189630Y00457539D01*
Y00467750D01*
X01192170D01*
Y00457539D01*
X01193310Y00456891D01*
Y00453830D01*
X01193507Y00452839D01*
X01194069Y00451999D01*
X01195779Y00450289D01*
X01196619Y00449727D01*
X01197351Y00449582D01*
Y00446256D01*
X01208269D01*
Y00457984D01*
X01205659D01*
Y00462817D01*
X01206500Y00463508D01*
X01208460Y00463898D01*
X01210122Y00465008D01*
X01211233Y00466670D01*
X01211622Y00468630D01*
X01211233Y00470590D01*
X01210122Y00472252D01*
X01208460Y00473363D01*
X01206500Y00473752D01*
X01204540Y00473363D01*
X01202878Y00472252D01*
X01201768Y00470590D01*
X01201378Y00468630D01*
X01201559Y00467718D01*
X01200796Y00466954D01*
X01200178Y00466030D01*
X01199998Y00465127D01*
X01198728Y00465252D01*
Y00474250D01*
X01198513Y00475332D01*
X01197900Y00476250D01*
X01196982Y00476863D01*
X01195900Y00477079D01*
X01194828Y00476865D01*
X01194306Y00477932D01*
X01194359Y00478007D01*
X01195254Y00478606D01*
X01196589Y00480603D01*
X01196805Y00481690D01*
X01184994D01*
X01185210Y00480603D01*
X01186545Y00478606D01*
X01187441Y00478007D01*
X01187494Y00477932D01*
X01186972Y00476865D01*
X01185900Y00477078D01*
X01184818Y00476863D01*
X01184265Y00476493D01*
X01182900Y00476250D01*
X01181983Y00476863D01*
X01180900Y00477079D01*
X01179818Y00476863D01*
X01179265Y00476494D01*
X01178400Y00476339D01*
X01177536Y00476494D01*
X01176982Y00476863D01*
X01175900Y00477079D01*
X01174818Y00476863D01*
X01173900Y00476250D01*
X01172535Y00476493D01*
X01171982Y00476863D01*
X01170900Y00477078D01*
X01169818Y00476863D01*
X01169265Y00476493D01*
X01167900Y00476250D01*
X01166982Y00476863D01*
X01165900Y00477079D01*
X01164818Y00476863D01*
X01164265Y00476494D01*
X01163400Y00476339D01*
X01162535Y00476494D01*
X01161982Y00476863D01*
X01160900Y00477079D01*
X01159818Y00476863D01*
X01159264Y00476494D01*
X01158400Y00476339D01*
X01157535Y00476494D01*
X01156982Y00476863D01*
X01155900Y00477079D01*
X01154817Y00476863D01*
X01153900Y00476250D01*
X01152535Y00476493D01*
X01151982Y00476863D01*
X01150900Y00477078D01*
X01149818Y00476863D01*
X01149265Y00476493D01*
X01147900Y00476250D01*
X01146982Y00476863D01*
X01145900Y00477079D01*
X01144818Y00476863D01*
X01144265Y00476494D01*
X01143400Y00476339D01*
X01142535Y00476494D01*
X01141982Y00476863D01*
X01140900Y00477079D01*
X01139818Y00476863D01*
X01138900Y00476250D01*
X01138287Y00475332D01*
X01138072Y00474250D01*
Y00461250D01*
X01138287Y00460168D01*
X01138310Y00460133D01*
Y00454903D01*
X01135577Y00452170D01*
X01121702D01*
X01121216Y00453343D01*
X01129981Y00462109D01*
X01130543Y00462949D01*
X01130740Y00463940D01*
Y00477672D01*
X01134650D01*
X01135732Y00477887D01*
X01136650Y00478500D01*
X01137263Y00479418D01*
X01137478Y00480500D01*
X01137263Y00481582D01*
X01136894Y00482136D01*
X01136739Y00483000D01*
X01136894Y00483865D01*
X01137263Y00484418D01*
X01137478Y00485500D01*
X01137263Y00486582D01*
X01136650Y00487500D01*
X01136893Y00488865D01*
X01137263Y00489417D01*
X01137478Y00490500D01*
X01137263Y00491582D01*
X01136893Y00492135D01*
X01136650Y00493500D01*
X01137263Y00494417D01*
X01137478Y00495500D01*
X01137263Y00496582D01*
X01137173Y00496716D01*
X01137383Y00497767D01*
X01138220Y00499021D01*
X01138262Y00499230D01*
X01128150D01*
Y00501770D01*
X01138262D01*
X01138220Y00501979D01*
X01137383Y00503232D01*
X01137173Y00504283D01*
X01137263Y00504418D01*
X01137478Y00505500D01*
X01137263Y00506582D01*
X01136650Y00507500D01*
X01136893Y00508865D01*
X01137263Y00509417D01*
X01137478Y00510500D01*
X01137263Y00511582D01*
X01136893Y00512135D01*
X01136650Y00513500D01*
X01137263Y00514418D01*
X01137478Y00515500D01*
X01137263Y00516582D01*
X01136894Y00517136D01*
X01136739Y00518000D01*
X01136894Y00518865D01*
X01137263Y00519418D01*
X01137478Y00520500D01*
X01137263Y00521583D01*
X01136650Y00522500D01*
X01136893Y00523865D01*
X01137263Y00524418D01*
X01137478Y00525500D01*
X01137263Y00526582D01*
X01136893Y00527135D01*
X01136650Y00528500D01*
X01137263Y00529417D01*
X01137478Y00530500D01*
X01137263Y00531582D01*
X01136894Y00532135D01*
X01136739Y00533000D01*
X01136894Y00533865D01*
X01137263Y00534418D01*
X01137478Y00535500D01*
X01137263Y00536582D01*
X01136650Y00537500D01*
X01135732Y00538113D01*
X01134650Y00538328D01*
X01121650D01*
X01120568Y00538113D01*
X01120533Y00538090D01*
X01118384D01*
Y00547869D01*
X01106656D01*
X01106656Y00547869D01*
Y00547869D01*
X01105511Y00548247D01*
X01105209Y00548550D01*
Y00549844D01*
X01105640Y00550935D01*
X01111250D01*
Y00557410D01*
X01113790D01*
Y00550935D01*
X01119400D01*
Y00558270D01*
X01122800D01*
Y00565150D01*
X01124070D01*
Y00566420D01*
X01130545D01*
Y00571191D01*
X01132414D01*
X01133611Y00571014D01*
Y00559286D01*
X01136660D01*
X01136677Y00559199D01*
X01137239Y00558359D01*
X01138310Y00557287D01*
Y00555867D01*
X01138287Y00555832D01*
X01138072Y00554750D01*
Y00541750D01*
X01138287Y00540667D01*
X01138900Y00539750D01*
X01139818Y00539137D01*
X01140900Y00538922D01*
X01141982Y00539137D01*
X01142117Y00539226D01*
X01143168Y00539017D01*
X01144421Y00538180D01*
X01144630Y00538138D01*
Y00548250D01*
X01147170D01*
Y00538138D01*
X01147379Y00538180D01*
X01148633Y00539017D01*
X01149684Y00539226D01*
X01149818Y00539137D01*
X01150900Y00538922D01*
X01151982Y00539137D01*
X01152535Y00539506D01*
X01153900Y00539750D01*
X01154817Y00539137D01*
X01155900Y00538922D01*
X01156982Y00539137D01*
X01157116Y00539226D01*
X01158167Y00539017D01*
X01159421Y00538180D01*
X01159524Y00538159D01*
Y00536865D01*
X01158543Y00536669D01*
X01156545Y00535335D01*
X01155210Y00533337D01*
X01154994Y00532250D01*
X01166806D01*
X01166589Y00533337D01*
X01165255Y00535335D01*
X01163257Y00536669D01*
X01162276Y00536865D01*
Y00538159D01*
X01162379Y00538180D01*
X01163632Y00539017D01*
X01164684Y00539227D01*
X01164818Y00539137D01*
X01165900Y00538922D01*
X01166982Y00539137D01*
X01167535Y00539507D01*
X01168400Y00539661D01*
X01169265Y00539507D01*
X01169818Y00539137D01*
X01170900Y00538922D01*
X01171982Y00539137D01*
X01172535Y00539507D01*
X01173900Y00539750D01*
X01174818Y00539137D01*
X01175900Y00538922D01*
X01176982Y00539137D01*
X01177536Y00539506D01*
X01178400Y00539661D01*
X01179265Y00539506D01*
X01179818Y00539137D01*
X01180900Y00538922D01*
X01181983Y00539137D01*
X01182900Y00539750D01*
X01184265Y00539506D01*
X01184818Y00539137D01*
X01185900Y00538922D01*
X01186982Y00539137D01*
X01187535Y00539506D01*
X01188900Y00539750D01*
X01189818Y00539137D01*
X01190900Y00538922D01*
X01191982Y00539137D01*
X01192535Y00539506D01*
X01193400Y00539661D01*
X01194265Y00539506D01*
X01194818Y00539137D01*
X01195900Y00538922D01*
X01196982Y00539137D01*
X01197900Y00539750D01*
X01198513Y00540667D01*
X01198728Y00541750D01*
Y00554750D01*
X01198513Y00555832D01*
X01198490Y00555867D01*
Y00562367D01*
X01224083Y00587960D01*
X01249875D01*
X01250688Y00585999D01*
X01252134Y00584114D01*
X01254019Y00582668D01*
X01256214Y00581758D01*
X01258570Y00581448D01*
X01260926Y00581758D01*
X01263121Y00582668D01*
X01265006Y00584114D01*
X01266452Y00585999D01*
X01267362Y00588194D01*
X01267672Y00590550D01*
X01267362Y00592906D01*
X01266452Y00595101D01*
X01265006Y00596986D01*
X01263121Y00598432D01*
X01260926Y00599342D01*
X01258570Y00599652D01*
X01256214Y00599342D01*
X01254019Y00598432D01*
X01252134Y00596986D01*
X01250688Y00595101D01*
X01249875Y00593140D01*
X01223010D01*
X01222019Y00592943D01*
X01221179Y00592381D01*
X01194760Y00565962D01*
X01193490Y00566488D01*
Y00637377D01*
X01221031Y00664919D01*
X01221593Y00665759D01*
X01221790Y00666750D01*
Y00677105D01*
X01223751Y00677918D01*
X01225636Y00679364D01*
X01227082Y00681249D01*
X01227992Y00683444D01*
X01228302Y00685800D01*
X01227992Y00688156D01*
X01227082Y00690351D01*
X01225636Y00692236D01*
X01223751Y00693682D01*
X01221556Y00694592D01*
X01219200Y00694902D01*
X01216844Y00694592D01*
X01214649Y00693682D01*
X01212764Y00692236D01*
X01211318Y00690351D01*
X01210408Y00688156D01*
X01210098Y00685800D01*
X01210408Y00683444D01*
X01211318Y00681249D01*
X01212764Y00679364D01*
X01214649Y00677918D01*
X01216610Y00677105D01*
Y00667823D01*
X01189760Y00640972D01*
X01188490Y00641498D01*
Y00657777D01*
X01195631Y00664919D01*
X01196193Y00665759D01*
X01196390Y00666750D01*
Y00677105D01*
X01198351Y00677918D01*
X01200236Y00679364D01*
X01201682Y00681249D01*
X01202592Y00683444D01*
X01202902Y00685800D01*
X01202592Y00688156D01*
X01201682Y00690351D01*
X01200236Y00692236D01*
X01198351Y00693682D01*
X01196156Y00694592D01*
X01193800Y00694902D01*
X01191444Y00694592D01*
X01189249Y00693682D01*
X01187364Y00692236D01*
X01185918Y00690351D01*
X01185008Y00688156D01*
X01184698Y00685800D01*
X01185008Y00683444D01*
X01185918Y00681249D01*
X01187364Y00679364D01*
X01189249Y00677918D01*
X01191210Y00677105D01*
Y00667823D01*
X01184069Y00660681D01*
X01183508Y00659841D01*
X01183310Y00658850D01*
Y00657298D01*
X01182040Y00656772D01*
X01170990Y00667823D01*
Y00677105D01*
X01172951Y00677918D01*
X01174836Y00679364D01*
X01176282Y00681249D01*
X01177192Y00683444D01*
X01177502Y00685800D01*
X01177192Y00688156D01*
X01176282Y00690351D01*
X01174836Y00692236D01*
X01172951Y00693682D01*
X01170756Y00694592D01*
X01168400Y00694902D01*
X01166044Y00694592D01*
X01163849Y00693682D01*
X01161964Y00692236D01*
X01160518Y00690351D01*
X01159608Y00688156D01*
X01159298Y00685800D01*
X01159608Y00683444D01*
X01160518Y00681249D01*
X01161964Y00679364D01*
X01163849Y00677918D01*
X01165810Y00677105D01*
Y00666750D01*
X01166007Y00665759D01*
X01166569Y00664919D01*
X01178311Y00653177D01*
Y00636898D01*
X01177041Y00636372D01*
X01145590Y00667823D01*
Y00677105D01*
X01147551Y00677918D01*
X01149436Y00679364D01*
X01150882Y00681249D01*
X01151792Y00683444D01*
X01152102Y00685800D01*
X01151792Y00688156D01*
X01150882Y00690351D01*
X01149436Y00692236D01*
X01147551Y00693682D01*
X01145356Y00694592D01*
X01143000Y00694902D01*
X01140644Y00694592D01*
X01138449Y00693682D01*
X01136564Y00692236D01*
X01135118Y00690351D01*
X01134208Y00688156D01*
X01133898Y00685800D01*
X01134208Y00683444D01*
X01135118Y00681249D01*
X01136564Y00679364D01*
X01138449Y00677918D01*
X01140410Y00677105D01*
Y00666750D01*
X01140607Y00665759D01*
X01141169Y00664919D01*
X01173310Y00632777D01*
Y00616498D01*
X01172040Y00615972D01*
X01120190Y00667823D01*
Y00677105D01*
X01122151Y00677918D01*
X01124036Y00679364D01*
X01125482Y00681249D01*
X01126392Y00683444D01*
X01126702Y00685800D01*
X01126392Y00688156D01*
X01125482Y00690351D01*
X01124036Y00692236D01*
X01122151Y00693682D01*
X01119956Y00694592D01*
X01117600Y00694902D01*
X01115244Y00694592D01*
X01113049Y00693682D01*
X01111164Y00692236D01*
X01109718Y00690351D01*
X01108808Y00688156D01*
X01108498Y00685800D01*
X01108808Y00683444D01*
X01109718Y00681249D01*
X01111164Y00679364D01*
X01113049Y00677918D01*
X01115010Y00677105D01*
Y00666750D01*
X01115207Y00665759D01*
X01115769Y00664919D01*
X01168310Y00612377D01*
Y00596098D01*
X01167040Y00595572D01*
X01094790Y00667823D01*
Y00677105D01*
X01096751Y00677918D01*
X01098636Y00679364D01*
X01100082Y00681249D01*
X01100992Y00683444D01*
X01101302Y00685800D01*
X01100992Y00688156D01*
X01100082Y00690351D01*
X01098636Y00692236D01*
X01096751Y00693682D01*
X01094556Y00694592D01*
X01092200Y00694902D01*
X01089844Y00694592D01*
X01087649Y00693682D01*
X01085764Y00692236D01*
X01084318Y00690351D01*
X01083408Y00688156D01*
X01083098Y00685800D01*
X01083408Y00683444D01*
X01084318Y00681249D01*
X01085764Y00679364D01*
X01087649Y00677918D01*
X01089610Y00677105D01*
Y00666750D01*
X01089807Y00665759D01*
X01090369Y00664919D01*
X01163310Y00591977D01*
Y00559109D01*
X01162170Y00558461D01*
Y00548250D01*
X01159630D01*
Y00558461D01*
X01158489Y00559109D01*
Y00577650D01*
X01158292Y00578641D01*
X01157731Y00579482D01*
X01069390Y00667823D01*
Y00677105D01*
X01071351Y00677918D01*
X01073236Y00679364D01*
X01074682Y00681249D01*
X01075592Y00683444D01*
X01075902Y00685800D01*
X01075592Y00688156D01*
X01074682Y00690351D01*
X01073236Y00692236D01*
X01071351Y00693682D01*
X01069156Y00694592D01*
X01066800Y00694902D01*
X01064444Y00694592D01*
X01062249Y00693682D01*
X01060364Y00692236D01*
X01058918Y00690351D01*
X01058008Y00688156D01*
X01057698Y00685800D01*
X01058008Y00683444D01*
X01058918Y00681249D01*
X01060364Y00679364D01*
X01062249Y00677918D01*
X01064210Y00677105D01*
Y00666750D01*
X01064407Y00665759D01*
X01064969Y00664919D01*
X01153310Y00576578D01*
Y00570714D01*
X01152040Y00570188D01*
X01046625Y00675603D01*
X01047111Y00676776D01*
X01050424D01*
Y00694824D01*
X01032376D01*
Y00676776D01*
X01038888D01*
X01039007Y00676174D01*
X01039569Y00675334D01*
X01136790Y00578113D01*
X01136781Y00578031D01*
X01136218Y00576889D01*
X01110309D01*
X01109792Y00577662D01*
X01108130Y00578773D01*
X01106170Y00579162D01*
X01104210Y00578773D01*
X01102548Y00577662D01*
X01101438Y00576000D01*
X01101048Y00574040D01*
X01101229Y00573128D01*
X01100346Y00572244D01*
X01099728Y00571320D01*
X01099511Y00570230D01*
X01099511Y00570230D01*
Y00547370D01*
X01099511Y00547370D01*
X01099728Y00546280D01*
X01100346Y00545356D01*
X01105306Y00540396D01*
X01106230Y00539778D01*
X01106656Y00539693D01*
Y00536951D01*
X01110487D01*
X01110689Y00536649D01*
X01113669Y00533669D01*
X01114509Y00533107D01*
X01115500Y00532910D01*
X01118397D01*
X01119076Y00531640D01*
X01119037Y00531582D01*
X01118822Y00530500D01*
X01119037Y00529417D01*
X01119406Y00528865D01*
X01119650Y00527500D01*
X01119037Y00526582D01*
X01118821Y00525500D01*
X01119037Y00524418D01*
X01119650Y00523500D01*
X01119406Y00522135D01*
X01119037Y00521583D01*
X01118822Y00520500D01*
X01119037Y00519418D01*
X01119076Y00519360D01*
X01118397Y00518090D01*
X01088313D01*
X01083751Y00522651D01*
X01082911Y00523213D01*
X01081920Y00523410D01*
X01080284D01*
Y00526279D01*
X01068556D01*
Y00523410D01*
X01061240D01*
X01060855Y00524680D01*
X01061793Y00525307D01*
X01063180Y00527382D01*
X01063667Y00529830D01*
Y00539330D01*
X01063180Y00541778D01*
X01061793Y00543853D01*
X01059718Y00545240D01*
X01057270Y00545727D01*
X01040770D01*
X01038322Y00545240D01*
X01036247Y00543853D01*
X01034860Y00541778D01*
X01034373Y00539330D01*
Y00529830D01*
X01034860Y00527382D01*
X01036247Y00525307D01*
X01038322Y00523920D01*
X01040770Y00523433D01*
X01046430D01*
Y00523240D01*
X01046627Y00522249D01*
X01047189Y00521409D01*
X01049609Y00518989D01*
X01050449Y00518427D01*
X01051440Y00518230D01*
X01068556D01*
Y00515361D01*
X01080284D01*
Y00516997D01*
X01081554Y00517523D01*
X01085231Y00513847D01*
X01085321Y00512935D01*
X01085251Y00512355D01*
X01085199Y00512281D01*
X01081554Y00508637D01*
X01080284Y00509162D01*
Y00510799D01*
X01068556D01*
Y00507930D01*
X01051440D01*
X01050449Y00507733D01*
X01049609Y00507171D01*
X01047189Y00504751D01*
X01046627Y00503911D01*
X01046430Y00502920D01*
Y00502727D01*
X01040770D01*
X01038322Y00502240D01*
X01036247Y00500853D01*
X01034860Y00498778D01*
X01034373Y00496330D01*
Y00486830D01*
X01034860Y00484382D01*
X01036247Y00482307D01*
X01038322Y00480920D01*
X01040770Y00480433D01*
X01057270D01*
X01059718Y00480920D01*
X01061793Y00482307D01*
X01062203Y00482920D01*
X01062975Y00482600D01*
X01075251D01*
X01076289Y00483865D01*
X01080765D01*
Y00483340D01*
Y00478790D01*
X01093715D01*
Y00483340D01*
Y00488950D01*
X01087240D01*
Y00490220D01*
X01085970D01*
Y00497100D01*
X01080765D01*
Y00496815D01*
X01075690D01*
Y00490340D01*
X01074420D01*
Y00489070D01*
X01067540D01*
Y00487130D01*
X01066983Y00487020D01*
X01064985Y00485685D01*
X01064627Y00485149D01*
X01063431Y00485644D01*
X01063667Y00486830D01*
Y00496330D01*
X01063180Y00498778D01*
X01061793Y00500853D01*
X01060855Y00501480D01*
X01061240Y00502750D01*
X01068556D01*
Y00499881D01*
X01080284D01*
Y00502750D01*
X01081920D01*
X01082911Y00502947D01*
X01083751Y00503509D01*
X01088153Y00507910D01*
X01114592D01*
X01115118Y00506640D01*
X01111447Y00502970D01*
X01107440D01*
X01106449Y00502773D01*
X01105609Y00502211D01*
X01100409Y00497011D01*
X01099847Y00496171D01*
X01099830Y00496084D01*
X01096781D01*
Y00484356D01*
X01096781Y00484356D01*
Y00484356D01*
Y00483384D01*
X01096781D01*
X01096781Y00483086D01*
Y00471656D01*
X01099650D01*
Y00469252D01*
X01098618Y00468562D01*
X01097507Y00466900D01*
X01097118Y00464940D01*
X01097507Y00462980D01*
X01098618Y00461318D01*
X01100280Y00460207D01*
X01102240Y00459818D01*
X01104200Y00460207D01*
X01105862Y00461318D01*
X01106973Y00462980D01*
X01107362Y00464940D01*
X01106973Y00466900D01*
X01105862Y00468562D01*
X01104830Y00469252D01*
Y00471656D01*
X01107699D01*
Y00479316D01*
X01110027Y00481644D01*
X01111200Y00481158D01*
Y00460813D01*
X01092397Y00442010D01*
X00610734D01*
X00609882Y00442951D01*
X00610123Y00445400D01*
X00610000D01*
Y00560000D01*
X00609877Y00714600D01*
X00610367Y00719579D01*
X00611820Y00724367D01*
X00614178Y00728780D01*
X00617352Y00732647D01*
X00621220Y00735822D01*
X00625633Y00738180D01*
X00630421Y00739633D01*
X00635277Y00740111D01*
X00635400Y00740000D01*
Y00740000D01*
X00650000D01*
X01464600Y00740123D01*
X01469579Y00739633D01*
D02*
G37*
%LPC*%
G36*
X00843496Y00408450D02*
X00831684D01*
X00831900Y00407363D01*
X00832299Y00406767D01*
X00832050Y00405620D01*
X00832050D01*
X00832050Y00405620D01*
Y00398600D01*
X00843130D01*
Y00405620D01*
X00843130Y00405620D01*
X00843130D01*
X00842881Y00406767D01*
X00843280Y00407363D01*
X00843496Y00408450D01*
D02*
G37*
G36*
X01262596D02*
X01250784D01*
X01251001Y00407363D01*
X01251399Y00406767D01*
X01251150Y00405620D01*
X01251150D01*
X01251150Y00405620D01*
Y00398600D01*
X01262230D01*
Y00405620D01*
X01262230Y00405620D01*
X01262230D01*
X01261981Y00406767D01*
X01262380Y00407363D01*
X01262596Y00408450D01*
D02*
G37*
G36*
X00983196D02*
X00971384D01*
X00971600Y00407363D01*
X00971999Y00406767D01*
X00971750Y00405620D01*
X00971750D01*
X00971750Y00405620D01*
Y00398600D01*
X00982830D01*
Y00405620D01*
X00982830Y00405620D01*
X00982830D01*
X00982581Y00406767D01*
X00982980Y00407363D01*
X00983196Y00408450D01*
D02*
G37*
G36*
X00703796D02*
X00691984D01*
X00692200Y00407363D01*
X00692599Y00406767D01*
X00692350Y00405620D01*
X00692350D01*
X00692350Y00405620D01*
Y00398600D01*
X00703430D01*
Y00405620D01*
X00703430Y00405620D01*
X00703430D01*
X00703181Y00406767D01*
X00703580Y00407363D01*
X00703796Y00408450D01*
D02*
G37*
G36*
X00284696D02*
X00272884D01*
X00273100Y00407363D01*
X00273499Y00406767D01*
X00273250Y00405620D01*
X00273250D01*
X00273250Y00405620D01*
Y00398600D01*
X00284330D01*
Y00405620D01*
X00284330Y00405620D01*
X00284330D01*
X00284081Y00406767D01*
X00284480Y00407363D01*
X00284696Y00408450D01*
D02*
G37*
G36*
X00424396D02*
X00412584D01*
X00412800Y00407363D01*
X00413199Y00406767D01*
X00412950Y00405620D01*
X00412950D01*
X00412950Y00405620D01*
Y00398600D01*
X00424030D01*
Y00405620D01*
X00424030Y00405620D01*
X00424030D01*
X00423781Y00406767D01*
X00424180Y00407363D01*
X00424396Y00408450D01*
D02*
G37*
G36*
X00564096D02*
X00552284D01*
X00552500Y00407363D01*
X00552899Y00406767D01*
X00552650Y00405620D01*
X00552650D01*
X00552650Y00405620D01*
Y00398600D01*
X00563730D01*
Y00405620D01*
X00563730Y00405620D01*
X00563730D01*
X00563481Y00406767D01*
X00563880Y00407363D01*
X00564096Y00408450D01*
D02*
G37*
G36*
X01395120Y00415506D02*
X01394033Y00415290D01*
X01392035Y00413955D01*
X01390701Y00411957D01*
X01390484Y00410870D01*
X01395120D01*
Y00415506D01*
D02*
G37*
G36*
X00280060Y00415626D02*
Y00410990D01*
X00284696D01*
X00284480Y00412077D01*
X00283145Y00414075D01*
X00281147Y00415410D01*
X00280060Y00415626D01*
D02*
G37*
G36*
X00417220D02*
X00416133Y00415410D01*
X00414135Y00414075D01*
X00412800Y00412077D01*
X00412584Y00410990D01*
X00417220D01*
Y00415626D01*
D02*
G37*
G36*
X00419760D02*
Y00410990D01*
X00424396D01*
X00424180Y00412077D01*
X00422845Y00414075D01*
X00420847Y00415410D01*
X00419760Y00415626D01*
D02*
G37*
G36*
X00277520D02*
X00276433Y00415410D01*
X00274435Y00414075D01*
X00273100Y00412077D01*
X00272884Y00410990D01*
X00277520D01*
Y00415626D01*
D02*
G37*
G36*
X01397660Y00415506D02*
Y00410870D01*
X01402296D01*
X01402080Y00411957D01*
X01400745Y00413955D01*
X01398747Y00415290D01*
X01397660Y00415506D01*
D02*
G37*
G36*
X00137820Y00415626D02*
X00136733Y00415410D01*
X00134735Y00414075D01*
X00133400Y00412077D01*
X00133184Y00410990D01*
X00137820D01*
Y00415626D01*
D02*
G37*
G36*
X00140360D02*
Y00410990D01*
X00144996D01*
X00144780Y00412077D01*
X00143445Y00414075D01*
X00141447Y00415410D01*
X00140360Y00415626D01*
D02*
G37*
G36*
X00696620Y00396060D02*
X00692350D01*
Y00389040D01*
X00696620D01*
Y00396060D01*
D02*
G37*
G36*
X00836320D02*
X00832050D01*
Y00389040D01*
X00836320D01*
Y00396060D01*
D02*
G37*
G36*
X00976020D02*
X00971750D01*
Y00389040D01*
X00976020D01*
Y00396060D01*
D02*
G37*
G36*
X00556920D02*
X00552650D01*
Y00389040D01*
X00556920D01*
Y00396060D01*
D02*
G37*
G36*
X00137820D02*
X00133550D01*
Y00389040D01*
X00137820D01*
Y00396060D01*
D02*
G37*
G36*
X00277520D02*
X00273250D01*
Y00389040D01*
X00277520D01*
Y00396060D01*
D02*
G37*
G36*
X00417220D02*
X00412950D01*
Y00389040D01*
X00417220D01*
Y00396060D01*
D02*
G37*
G36*
X01115720D02*
X01111450D01*
Y00389040D01*
X01115720D01*
Y00396060D01*
D02*
G37*
G36*
X01122530Y00405620D02*
X01118260D01*
Y00398600D01*
X01122530D01*
Y00405620D01*
D02*
G37*
G36*
X01402296Y00408330D02*
X01390484D01*
X01390701Y00407243D01*
X01391007Y00406785D01*
X01390850Y00405620D01*
X01390850D01*
X01390850Y00405620D01*
Y00398600D01*
X01401930D01*
Y00405620D01*
X01401930Y00405620D01*
X01401930D01*
X01401777Y00406790D01*
X01402080Y00407243D01*
X01402296Y00408330D01*
D02*
G37*
G36*
X00144996Y00408450D02*
X00133184D01*
X00133400Y00407363D01*
X00133799Y00406767D01*
X00133550Y00405620D01*
X00133550D01*
X00133550Y00405620D01*
Y00398600D01*
X00144630D01*
Y00405620D01*
X00144630Y00405620D01*
X00144630D01*
X00144381Y00406767D01*
X00144780Y00407363D01*
X00144996Y00408450D01*
D02*
G37*
G36*
X01115720Y00405620D02*
X01111450D01*
Y00398600D01*
X01115720D01*
Y00405620D01*
D02*
G37*
G36*
X01255420Y00396060D02*
X01251150D01*
Y00389040D01*
X01255420D01*
Y00396060D01*
D02*
G37*
G36*
X01395120D02*
X01390850D01*
Y00389040D01*
X01395120D01*
Y00396060D01*
D02*
G37*
G36*
X01071880Y00397066D02*
X01070793Y00396850D01*
X01068795Y00395515D01*
X01067460Y00393517D01*
X01067244Y00392430D01*
X01071880D01*
Y00397066D01*
D02*
G37*
G36*
X01189630Y00488866D02*
X01188543Y00488650D01*
X01186545Y00487315D01*
X01185210Y00485317D01*
X01184994Y00484230D01*
X01189630D01*
Y00488866D01*
D02*
G37*
G36*
X01192170D02*
Y00484230D01*
X01196805D01*
X01196589Y00485317D01*
X01195254Y00487315D01*
X01193257Y00488650D01*
X01192170Y00488866D01*
D02*
G37*
G36*
X01093715Y00497100D02*
X01088510D01*
Y00491490D01*
X01093715D01*
Y00497100D01*
D02*
G37*
G36*
X01075246Y00480060D02*
X01070610D01*
Y00475424D01*
X01071697Y00475640D01*
X01073695Y00476975D01*
X01075030Y00478973D01*
X01075246Y00480060D01*
D02*
G37*
G36*
X01093715Y00476250D02*
X01088510D01*
Y00470640D01*
X01093715D01*
Y00476250D01*
D02*
G37*
G36*
X01451950Y00478716D02*
X01438345D01*
X01436344Y00478453D01*
X01434480Y00477680D01*
X01432878Y00476452D01*
X01431650Y00474851D01*
X01431407Y00474265D01*
X01430033D01*
X01429790Y00474851D01*
X01428562Y00476452D01*
X01426960Y00477680D01*
X01425096Y00478453D01*
X01423095Y00478716D01*
X01411990D01*
Y00465860D01*
Y00453004D01*
X01423095D01*
X01425096Y00453267D01*
X01426960Y00454040D01*
X01428562Y00455268D01*
X01429790Y00456870D01*
X01430033Y00457455D01*
X01431407D01*
X01431650Y00456870D01*
X01432878Y00455268D01*
X01434480Y00454040D01*
X01436344Y00453267D01*
X01438345Y00453004D01*
X01451950D01*
Y00465860D01*
Y00478716D01*
D02*
G37*
G36*
X01068070Y00480060D02*
X01063434D01*
X01063651Y00478973D01*
X01064985Y00476975D01*
X01066983Y00475640D01*
X01068070Y00475424D01*
Y00480060D01*
D02*
G37*
G36*
X01073150Y00496815D02*
X01067540D01*
Y00491610D01*
X01073150D01*
Y00496815D01*
D02*
G37*
G36*
X01190900Y00529230D02*
X01186264D01*
X01186480Y00528143D01*
X01187815Y00526145D01*
X01189813Y00524810D01*
X01190900Y00524594D01*
Y00529230D01*
D02*
G37*
G36*
X01159630Y00529710D02*
X01154994D01*
X01155210Y00528623D01*
X01156545Y00526625D01*
X01158543Y00525290D01*
X01159630Y00525074D01*
Y00529710D01*
D02*
G37*
G36*
X01166806D02*
X01162170D01*
Y00525074D01*
X01163257Y00525290D01*
X01165255Y00526625D01*
X01166589Y00528623D01*
X01166806Y00529710D01*
D02*
G37*
G36*
X01147960Y00506406D02*
Y00501770D01*
X01152596D01*
X01152380Y00502857D01*
X01151045Y00504855D01*
X01149047Y00506189D01*
X01147960Y00506406D01*
D02*
G37*
G36*
X01145420Y00499230D02*
X01140784D01*
X01141001Y00498143D01*
X01142336Y00496145D01*
X01144333Y00494810D01*
X01145420Y00494594D01*
Y00499230D01*
D02*
G37*
G36*
X01152596D02*
X01147960D01*
Y00494594D01*
X01149047Y00494810D01*
X01151045Y00496145D01*
X01152380Y00498143D01*
X01152596Y00499230D01*
D02*
G37*
G36*
X01145420Y00506406D02*
X01144333Y00506189D01*
X01142336Y00504855D01*
X01141001Y00502857D01*
X01140784Y00501770D01*
X01145420D01*
Y00506406D01*
D02*
G37*
G36*
X00838860Y00415626D02*
Y00410990D01*
X00843496D01*
X00843280Y00412077D01*
X00841945Y00414075D01*
X00839947Y00415410D01*
X00838860Y00415626D01*
D02*
G37*
G36*
X01216540Y00450850D02*
X01211335D01*
Y00445240D01*
X01216540D01*
Y00450850D01*
D02*
G37*
G36*
X01224285D02*
X01219080D01*
Y00445240D01*
X01224285D01*
Y00450850D01*
D02*
G37*
G36*
X00699160Y00415626D02*
Y00410990D01*
X00703796D01*
X00703580Y00412077D01*
X00702245Y00414075D01*
X00700247Y00415410D01*
X00699160Y00415626D01*
D02*
G37*
G36*
X00556920D02*
X00555833Y00415410D01*
X00553835Y00414075D01*
X00552500Y00412077D01*
X00552284Y00410990D01*
X00556920D01*
Y00415626D01*
D02*
G37*
G36*
X00559460D02*
Y00410990D01*
X00564096D01*
X00563880Y00412077D01*
X00562545Y00414075D01*
X00560547Y00415410D01*
X00559460Y00415626D01*
D02*
G37*
G36*
X00696620D02*
X00695533Y00415410D01*
X00693535Y00414075D01*
X00692200Y00412077D01*
X00691984Y00410990D01*
X00696620D01*
Y00415626D01*
D02*
G37*
G36*
X01409450Y00464590D02*
X01390614D01*
Y00460735D01*
X01390877Y00458734D01*
X01391649Y00456870D01*
X01392878Y00455268D01*
X01394479Y00454040D01*
X01396344Y00453267D01*
X01398345Y00453004D01*
X01409450D01*
Y00464590D01*
D02*
G37*
G36*
Y00478716D02*
X01398345D01*
X01396344Y00478453D01*
X01394479Y00477680D01*
X01392878Y00476452D01*
X01391649Y00474851D01*
X01390877Y00472986D01*
X01390614Y00470985D01*
Y00467130D01*
X01409450D01*
Y00478716D01*
D02*
G37*
G36*
X01468095D02*
X01454490D01*
Y00467130D01*
X01475826D01*
Y00470985D01*
X01475563Y00472986D01*
X01474790Y00474851D01*
X01473562Y00476452D01*
X01471961Y00477680D01*
X01470096Y00478453D01*
X01468095Y00478716D01*
D02*
G37*
G36*
X01085970Y00476250D02*
X01080765D01*
Y00470640D01*
X01085970D01*
Y00476250D01*
D02*
G37*
G36*
X01219080Y00468306D02*
Y00463670D01*
X01223716D01*
X01223500Y00464757D01*
X01222165Y00466755D01*
X01220167Y00468089D01*
X01219080Y00468306D01*
D02*
G37*
G36*
X01475826Y00464590D02*
X01454490D01*
Y00453004D01*
X01468095D01*
X01470096Y00453267D01*
X01471961Y00454040D01*
X01473562Y00455268D01*
X01474790Y00456870D01*
X01475563Y00458734D01*
X01475826Y00460735D01*
Y00464590D01*
D02*
G37*
G36*
X01223716Y00461130D02*
X01211904D01*
X01212075Y00460270D01*
X01211406Y00459000D01*
X01211335D01*
Y00453390D01*
X01224285D01*
Y00459000D01*
X01224214D01*
X01223545Y00460270D01*
X01223716Y00461130D01*
D02*
G37*
G36*
X01216540Y00468306D02*
X01215453Y00468089D01*
X01213455Y00466755D01*
X01212121Y00464757D01*
X01211904Y00463670D01*
X01216540D01*
Y00468306D01*
D02*
G37*
G36*
X01071880Y00389890D02*
X01067244D01*
X01067460Y00388803D01*
X01068795Y00386805D01*
X01070793Y00385471D01*
X01071880Y00385254D01*
Y00389890D01*
D02*
G37*
G36*
X00599440Y00340036D02*
Y00335400D01*
X00604076D01*
X00603859Y00336487D01*
X00602525Y00338485D01*
X00600527Y00339819D01*
X00599440Y00340036D01*
D02*
G37*
G36*
X00736600D02*
X00735513Y00339819D01*
X00733515Y00338485D01*
X00732180Y00336487D01*
X00731964Y00335400D01*
X00736600D01*
Y00340036D01*
D02*
G37*
G36*
X00739140D02*
Y00335400D01*
X00743776D01*
X00743559Y00336487D01*
X00742225Y00338485D01*
X00740227Y00339819D01*
X00739140Y00340036D01*
D02*
G37*
G36*
X00596900D02*
X00595813Y00339819D01*
X00593815Y00338485D01*
X00592481Y00336487D01*
X00592264Y00335400D01*
X00596900D01*
Y00340036D01*
D02*
G37*
G36*
X00320040D02*
Y00335400D01*
X00324676D01*
X00324459Y00336487D01*
X00323125Y00338485D01*
X00321127Y00339819D01*
X00320040Y00340036D01*
D02*
G37*
G36*
X00457200D02*
X00456113Y00339819D01*
X00454115Y00338485D01*
X00452780Y00336487D01*
X00452564Y00335400D01*
X00457200D01*
Y00340036D01*
D02*
G37*
G36*
X00459740D02*
Y00335400D01*
X00464376D01*
X00464160Y00336487D01*
X00462825Y00338485D01*
X00460827Y00339819D01*
X00459740Y00340036D01*
D02*
G37*
G36*
X00876300D02*
X00875213Y00339819D01*
X00873215Y00338485D01*
X00871880Y00336487D01*
X00871664Y00335400D01*
X00876300D01*
Y00340036D01*
D02*
G37*
G36*
X01158240D02*
Y00335400D01*
X01162876D01*
X01162660Y00336487D01*
X01161325Y00338485D01*
X01159327Y00339819D01*
X01158240Y00340036D01*
D02*
G37*
G36*
X01295400D02*
X01294313Y00339819D01*
X01292315Y00338485D01*
X01290981Y00336487D01*
X01290764Y00335400D01*
X01295400D01*
Y00340036D01*
D02*
G37*
G36*
X01297940D02*
Y00335400D01*
X01302576D01*
X01302359Y00336487D01*
X01301025Y00338485D01*
X01299027Y00339819D01*
X01297940Y00340036D01*
D02*
G37*
G36*
X01155700D02*
X01154613Y00339819D01*
X01152615Y00338485D01*
X01151281Y00336487D01*
X01151064Y00335400D01*
X01155700D01*
Y00340036D01*
D02*
G37*
G36*
X00878840D02*
Y00335400D01*
X00883476D01*
X00883260Y00336487D01*
X00881925Y00338485D01*
X00879927Y00339819D01*
X00878840Y00340036D01*
D02*
G37*
G36*
X01016000D02*
X01014913Y00339819D01*
X01012915Y00338485D01*
X01011581Y00336487D01*
X01011364Y00335400D01*
X01016000D01*
Y00340036D01*
D02*
G37*
G36*
X01018540D02*
Y00335400D01*
X01023176D01*
X01022960Y00336487D01*
X01021625Y00338485D01*
X01019627Y00339819D01*
X01018540Y00340036D01*
D02*
G37*
G36*
X00744750Y00321190D02*
X00739140D01*
Y00315985D01*
X00744750D01*
Y00321190D01*
D02*
G37*
G36*
X00884450D02*
X00878840D01*
Y00315985D01*
X00884450D01*
Y00321190D01*
D02*
G37*
G36*
X01024150D02*
X01018540D01*
Y00315985D01*
X01024150D01*
Y00321190D01*
D02*
G37*
G36*
X00605050D02*
X00599440D01*
Y00315985D01*
X00605050D01*
Y00321190D01*
D02*
G37*
G36*
X00185950D02*
X00180340D01*
Y00315985D01*
X00185950D01*
Y00321190D01*
D02*
G37*
G36*
X00325650D02*
X00320040D01*
Y00315985D01*
X00325650D01*
Y00321190D01*
D02*
G37*
G36*
X00465350D02*
X00459740D01*
Y00315985D01*
X00465350D01*
Y00321190D01*
D02*
G37*
G36*
X01163850D02*
X01158240D01*
Y00315985D01*
X01163850D01*
Y00321190D01*
D02*
G37*
G36*
X00177800Y00340036D02*
X00176713Y00339819D01*
X00174715Y00338485D01*
X00173381Y00336487D01*
X00173164Y00335400D01*
X00177800D01*
Y00340036D01*
D02*
G37*
G36*
X00180340D02*
Y00335400D01*
X00184976D01*
X00184760Y00336487D01*
X00183425Y00338485D01*
X00181427Y00339819D01*
X00180340Y00340036D01*
D02*
G37*
G36*
X00317500D02*
X00316413Y00339819D01*
X00314415Y00338485D01*
X00313081Y00336487D01*
X00312864Y00335400D01*
X00317500D01*
Y00340036D01*
D02*
G37*
G36*
X01437640Y00339916D02*
Y00335280D01*
X01442276D01*
X01442059Y00336367D01*
X01440725Y00338365D01*
X01438727Y00339700D01*
X01437640Y00339916D01*
D02*
G37*
G36*
X01303550Y00321190D02*
X01297940D01*
Y00315985D01*
X01303550D01*
Y00321190D01*
D02*
G37*
G36*
X01443250D02*
X01437640D01*
Y00315985D01*
X01443250D01*
Y00321190D01*
D02*
G37*
G36*
X01435100Y00339916D02*
X01434013Y00339700D01*
X01432015Y00338365D01*
X01430681Y00336367D01*
X01430464Y00335280D01*
X01435100D01*
Y00339916D01*
D02*
G37*
G36*
X00135674Y00362124D02*
X00122626D01*
Y00349076D01*
X00135674D01*
Y00353010D01*
X00140711D01*
Y00349736D01*
X00151629D01*
Y00361464D01*
X00140711D01*
Y00358190D01*
X00135674D01*
Y00362124D01*
D02*
G37*
G36*
X00688870Y00390135D02*
X00683260D01*
Y00384930D01*
X00688870D01*
Y00390135D01*
D02*
G37*
G36*
X00820420D02*
X00814810D01*
Y00384930D01*
X00820420D01*
Y00390135D01*
D02*
G37*
G36*
X00828570D02*
X00822960D01*
Y00384930D01*
X00828570D01*
Y00390135D01*
D02*
G37*
G36*
X00680720D02*
X00675110D01*
Y00384930D01*
X00680720D01*
Y00390135D01*
D02*
G37*
G36*
X00409470D02*
X00403860D01*
Y00384930D01*
X00409470D01*
Y00390135D01*
D02*
G37*
G36*
X00541020D02*
X00535410D01*
Y00384930D01*
X00541020D01*
Y00390135D01*
D02*
G37*
G36*
X00549170D02*
X00543560D01*
Y00384930D01*
X00549170D01*
Y00390135D01*
D02*
G37*
G36*
X00960120D02*
X00954510D01*
Y00384930D01*
X00960120D01*
Y00390135D01*
D02*
G37*
G36*
X01247670D02*
X01242060D01*
Y00384930D01*
X01247670D01*
Y00390135D01*
D02*
G37*
G36*
X01379220D02*
X01373610D01*
Y00384930D01*
X01379220D01*
Y00390135D01*
D02*
G37*
G36*
X01387370D02*
X01381760D01*
Y00384930D01*
X01387370D01*
Y00390135D01*
D02*
G37*
G36*
X01239520D02*
X01233910D01*
Y00384930D01*
X01239520D01*
Y00390135D01*
D02*
G37*
G36*
X00968270D02*
X00962660D01*
Y00384930D01*
X00968270D01*
Y00390135D01*
D02*
G37*
G36*
X01099820D02*
X01094210D01*
Y00384930D01*
X01099820D01*
Y00390135D01*
D02*
G37*
G36*
X01107970D02*
X01102360D01*
Y00384930D01*
X01107970D01*
Y00390135D01*
D02*
G37*
G36*
X00834174Y00362124D02*
X00821126D01*
Y00349076D01*
X00834174D01*
Y00353010D01*
X00839211D01*
Y00349736D01*
X00850129D01*
Y00361464D01*
X00839211D01*
Y00358190D01*
X00834174D01*
Y00362124D01*
D02*
G37*
G36*
X00973874D02*
X00960826D01*
Y00349076D01*
X00973874D01*
Y00353010D01*
X00978911D01*
Y00349736D01*
X00989829D01*
Y00361464D01*
X00978911D01*
Y00358190D01*
X00973874D01*
Y00362124D01*
D02*
G37*
G36*
X01113574D02*
X01100526D01*
Y00349076D01*
X01113574D01*
Y00353010D01*
X01118611D01*
Y00349736D01*
X01129529D01*
Y00361464D01*
X01118611D01*
Y00358190D01*
X01113574D01*
Y00362124D01*
D02*
G37*
G36*
X00694474D02*
X00681426D01*
Y00349076D01*
X00694474D01*
Y00353010D01*
X00699511D01*
Y00349736D01*
X00710429D01*
Y00361464D01*
X00699511D01*
Y00358190D01*
X00694474D01*
Y00362124D01*
D02*
G37*
G36*
X00275374D02*
X00262326D01*
Y00349076D01*
X00275374D01*
Y00353010D01*
X00280411D01*
Y00349736D01*
X00291329D01*
Y00361464D01*
X00280411D01*
Y00358190D01*
X00275374D01*
Y00362124D01*
D02*
G37*
G36*
X00415074D02*
X00402026D01*
Y00349076D01*
X00415074D01*
Y00353010D01*
X00420111D01*
Y00349736D01*
X00431029D01*
Y00361464D01*
X00420111D01*
Y00358190D01*
X00415074D01*
Y00362124D01*
D02*
G37*
G36*
X00554774D02*
X00541726D01*
Y00349076D01*
X00554774D01*
Y00353010D01*
X00559811D01*
Y00349736D01*
X00570729D01*
Y00361464D01*
X00559811D01*
Y00358190D01*
X00554774D01*
Y00362124D01*
D02*
G37*
G36*
X01253274D02*
X01240226D01*
Y00349076D01*
X01253274D01*
Y00353010D01*
X01258311D01*
Y00349736D01*
X01269229D01*
Y00361464D01*
X01258311D01*
Y00358190D01*
X01253274D01*
Y00362124D01*
D02*
G37*
G36*
X00261620Y00390135D02*
X00256010D01*
Y00384930D01*
X00261620D01*
Y00390135D01*
D02*
G37*
G36*
X00269770D02*
X00264160D01*
Y00384930D01*
X00269770D01*
Y00390135D01*
D02*
G37*
G36*
X00401320D02*
X00395710D01*
Y00384930D01*
X00401320D01*
Y00390135D01*
D02*
G37*
G36*
X00130070D02*
X00124460D01*
Y00384930D01*
X00130070D01*
Y00390135D01*
D02*
G37*
G36*
X01392974Y00362124D02*
X01379926D01*
Y00349076D01*
X01392974D01*
Y00353010D01*
X01398011D01*
Y00349736D01*
X01408929D01*
Y00361464D01*
X01398011D01*
Y00358190D01*
X01392974D01*
Y00362124D01*
D02*
G37*
G36*
X01379220Y00382390D02*
X01373610D01*
Y00377185D01*
X01379220D01*
Y00382390D01*
D02*
G37*
G36*
X00121920Y00390135D02*
X00116310D01*
Y00384930D01*
X00121920D01*
Y00390135D01*
D02*
G37*
G36*
X01167130Y00709930D02*
X01158441D01*
X01158618Y00708579D01*
X01159630Y00706137D01*
X01161239Y00704039D01*
X01163337Y00702430D01*
X01165779Y00701418D01*
X01167130Y00701241D01*
Y00709930D01*
D02*
G37*
G36*
X01152959D02*
X01144270D01*
Y00701241D01*
X01145621Y00701418D01*
X01148063Y00702430D01*
X01150161Y00704039D01*
X01151770Y00706137D01*
X01152782Y00708579D01*
X01152959Y00709930D01*
D02*
G37*
G36*
X01192530D02*
X01183841D01*
X01184018Y00708579D01*
X01185030Y00706137D01*
X01186639Y00704039D01*
X01188737Y00702430D01*
X01191179Y00701418D01*
X01192530Y00701241D01*
Y00709930D01*
D02*
G37*
G36*
X01178359D02*
X01169670D01*
Y00701241D01*
X01171021Y00701418D01*
X01173463Y00702430D01*
X01175561Y00704039D01*
X01177170Y00706137D01*
X01178182Y00708579D01*
X01178359Y00709930D01*
D02*
G37*
G36*
X01116330D02*
X01107641D01*
X01107818Y00708579D01*
X01108830Y00706137D01*
X01110439Y00704039D01*
X01112537Y00702430D01*
X01114979Y00701418D01*
X01116330Y00701241D01*
Y00709930D01*
D02*
G37*
G36*
X01102159D02*
X01093470D01*
Y00701241D01*
X01094821Y00701418D01*
X01097263Y00702430D01*
X01099361Y00704039D01*
X01100970Y00706137D01*
X01101982Y00708579D01*
X01102159Y00709930D01*
D02*
G37*
G36*
X01141730D02*
X01133041D01*
X01133218Y00708579D01*
X01134230Y00706137D01*
X01135839Y00704039D01*
X01137937Y00702430D01*
X01140379Y00701418D01*
X01141730Y00701241D01*
Y00709930D01*
D02*
G37*
G36*
X01127559D02*
X01118870D01*
Y00701241D01*
X01120221Y00701418D01*
X01122663Y00702430D01*
X01124761Y00704039D01*
X01126370Y00706137D01*
X01127382Y00708579D01*
X01127559Y00709930D01*
D02*
G37*
G36*
X00760730Y00721159D02*
X00759379Y00720982D01*
X00756937Y00719970D01*
X00754839Y00718361D01*
X00753230Y00716263D01*
X00752218Y00713821D01*
X00752041Y00712470D01*
X00760730D01*
Y00721159D01*
D02*
G37*
G36*
X01254559Y00709930D02*
X01245870D01*
Y00701241D01*
X01247221Y00701418D01*
X01249663Y00702430D01*
X01251761Y00704039D01*
X01253370Y00706137D01*
X01254382Y00708579D01*
X01254559Y00709930D01*
D02*
G37*
G36*
X00786130Y00721159D02*
X00784779Y00720982D01*
X00782337Y00719970D01*
X00780239Y00718361D01*
X00778630Y00716263D01*
X00777618Y00713821D01*
X00777441Y00712470D01*
X00786130D01*
Y00721159D01*
D02*
G37*
G36*
X00763270D02*
Y00712470D01*
X00771959D01*
X00771782Y00713821D01*
X00770770Y00716263D01*
X00769161Y00718361D01*
X00767063Y00719970D01*
X00764621Y00720982D01*
X00763270Y00721159D01*
D02*
G37*
G36*
X01217930Y00709930D02*
X01209241D01*
X01209418Y00708579D01*
X01210430Y00706137D01*
X01212039Y00704039D01*
X01214137Y00702430D01*
X01216579Y00701418D01*
X01217930Y00701241D01*
Y00709930D01*
D02*
G37*
G36*
X01203759D02*
X01195070D01*
Y00701241D01*
X01196421Y00701418D01*
X01198863Y00702430D01*
X01200961Y00704039D01*
X01202570Y00706137D01*
X01203582Y00708579D01*
X01203759Y00709930D01*
D02*
G37*
G36*
X01243330D02*
X01234641D01*
X01234818Y00708579D01*
X01235830Y00706137D01*
X01237439Y00704039D01*
X01239537Y00702430D01*
X01241979Y00701418D01*
X01243330Y00701241D01*
Y00709930D01*
D02*
G37*
G36*
X01229159D02*
X01220470D01*
Y00701241D01*
X01221821Y00701418D01*
X01224263Y00702430D01*
X01226361Y00704039D01*
X01227970Y00706137D01*
X01228982Y00708579D01*
X01229159Y00709930D01*
D02*
G37*
G36*
X00913130D02*
X00904441D01*
X00904618Y00708579D01*
X00905630Y00706137D01*
X00907239Y00704039D01*
X00909337Y00702430D01*
X00911779Y00701418D01*
X00913130Y00701241D01*
Y00709930D01*
D02*
G37*
G36*
X00898959D02*
X00890270D01*
Y00701241D01*
X00891621Y00701418D01*
X00894063Y00702430D01*
X00896161Y00704039D01*
X00897770Y00706137D01*
X00898782Y00708579D01*
X00898959Y00709930D01*
D02*
G37*
G36*
X00938530D02*
X00929841D01*
X00930018Y00708579D01*
X00931030Y00706137D01*
X00932639Y00704039D01*
X00934737Y00702430D01*
X00937179Y00701418D01*
X00938530Y00701241D01*
Y00709930D01*
D02*
G37*
G36*
X00924359D02*
X00915670D01*
Y00701241D01*
X00917021Y00701418D01*
X00919463Y00702430D01*
X00921561Y00704039D01*
X00923170Y00706137D01*
X00924182Y00708579D01*
X00924359Y00709930D01*
D02*
G37*
G36*
X00862330D02*
X00853641D01*
X00853818Y00708579D01*
X00854830Y00706137D01*
X00856439Y00704039D01*
X00858537Y00702430D01*
X00860979Y00701418D01*
X00862330Y00701241D01*
Y00709930D01*
D02*
G37*
G36*
X00848159D02*
X00839470D01*
Y00701241D01*
X00840821Y00701418D01*
X00843263Y00702430D01*
X00845361Y00704039D01*
X00846970Y00706137D01*
X00847982Y00708579D01*
X00848159Y00709930D01*
D02*
G37*
G36*
X00887730D02*
X00879041D01*
X00879218Y00708579D01*
X00880230Y00706137D01*
X00881839Y00704039D01*
X00883937Y00702430D01*
X00886379Y00701418D01*
X00887730Y00701241D01*
Y00709930D01*
D02*
G37*
G36*
X00873559D02*
X00864870D01*
Y00701241D01*
X00866221Y00701418D01*
X00868663Y00702430D01*
X00870761Y00704039D01*
X00872370Y00706137D01*
X00873382Y00708579D01*
X00873559Y00709930D01*
D02*
G37*
G36*
X01065530D02*
X01056841D01*
X01057018Y00708579D01*
X01058030Y00706137D01*
X01059639Y00704039D01*
X01061737Y00702430D01*
X01064179Y00701418D01*
X01065530Y00701241D01*
Y00709930D01*
D02*
G37*
G36*
X01051359D02*
X01042670D01*
Y00701241D01*
X01044021Y00701418D01*
X01046463Y00702430D01*
X01048561Y00704039D01*
X01050170Y00706137D01*
X01051182Y00708579D01*
X01051359Y00709930D01*
D02*
G37*
G36*
X01090930D02*
X01082241D01*
X01082418Y00708579D01*
X01083430Y00706137D01*
X01085039Y00704039D01*
X01087137Y00702430D01*
X01089579Y00701418D01*
X01090930Y00701241D01*
Y00709930D01*
D02*
G37*
G36*
X01076759D02*
X01068070D01*
Y00701241D01*
X01069421Y00701418D01*
X01071863Y00702430D01*
X01073961Y00704039D01*
X01075570Y00706137D01*
X01076582Y00708579D01*
X01076759Y00709930D01*
D02*
G37*
G36*
X00963930D02*
X00955241D01*
X00955418Y00708579D01*
X00956430Y00706137D01*
X00958039Y00704039D01*
X00960137Y00702430D01*
X00962579Y00701418D01*
X00963930Y00701241D01*
Y00709930D01*
D02*
G37*
G36*
X00949759D02*
X00941070D01*
Y00701241D01*
X00942421Y00701418D01*
X00944863Y00702430D01*
X00946961Y00704039D01*
X00948570Y00706137D01*
X00949582Y00708579D01*
X00949759Y00709930D01*
D02*
G37*
G36*
X01040130D02*
X01031441D01*
X01031618Y00708579D01*
X01032630Y00706137D01*
X01034239Y00704039D01*
X01036337Y00702430D01*
X01038779Y00701418D01*
X01040130Y00701241D01*
Y00709930D01*
D02*
G37*
G36*
X00975159D02*
X00966470D01*
Y00701241D01*
X00967821Y00701418D01*
X00970263Y00702430D01*
X00972361Y00704039D01*
X00973970Y00706137D01*
X00974982Y00708579D01*
X00975159Y00709930D01*
D02*
G37*
G36*
X00788670Y00721159D02*
Y00712470D01*
X00797359D01*
X00797182Y00713821D01*
X00796170Y00716263D01*
X00794561Y00718361D01*
X00792463Y00719970D01*
X00790021Y00720982D01*
X00788670Y00721159D01*
D02*
G37*
G36*
X01118870D02*
Y00712470D01*
X01127559D01*
X01127382Y00713821D01*
X01126370Y00716263D01*
X01124761Y00718361D01*
X01122663Y00719970D01*
X01120221Y00720982D01*
X01118870Y00721159D01*
D02*
G37*
G36*
X01116330D02*
X01114979Y00720982D01*
X01112537Y00719970D01*
X01110439Y00718361D01*
X01108830Y00716263D01*
X01107818Y00713821D01*
X01107641Y00712470D01*
X01116330D01*
Y00721159D01*
D02*
G37*
G36*
X01144270D02*
Y00712470D01*
X01152959D01*
X01152782Y00713821D01*
X01151770Y00716263D01*
X01150161Y00718361D01*
X01148063Y00719970D01*
X01145621Y00720982D01*
X01144270Y00721159D01*
D02*
G37*
G36*
X01141730D02*
X01140379Y00720982D01*
X01137937Y00719970D01*
X01135839Y00718361D01*
X01134230Y00716263D01*
X01133218Y00713821D01*
X01133041Y00712470D01*
X01141730D01*
Y00721159D01*
D02*
G37*
G36*
X01068070D02*
Y00712470D01*
X01076759D01*
X01076582Y00713821D01*
X01075570Y00716263D01*
X01073961Y00718361D01*
X01071863Y00719970D01*
X01069421Y00720982D01*
X01068070Y00721159D01*
D02*
G37*
G36*
X01065530D02*
X01064179Y00720982D01*
X01061737Y00719970D01*
X01059639Y00718361D01*
X01058030Y00716263D01*
X01057018Y00713821D01*
X01056841Y00712470D01*
X01065530D01*
Y00721159D01*
D02*
G37*
G36*
X01093470D02*
Y00712470D01*
X01102159D01*
X01101982Y00713821D01*
X01100970Y00716263D01*
X01099361Y00718361D01*
X01097263Y00719970D01*
X01094821Y00720982D01*
X01093470Y00721159D01*
D02*
G37*
G36*
X01090930D02*
X01089579Y00720982D01*
X01087137Y00719970D01*
X01085039Y00718361D01*
X01083430Y00716263D01*
X01082418Y00713821D01*
X01082241Y00712470D01*
X01090930D01*
Y00721159D01*
D02*
G37*
G36*
X01220470D02*
Y00712470D01*
X01229159D01*
X01228982Y00713821D01*
X01227970Y00716263D01*
X01226361Y00718361D01*
X01224263Y00719970D01*
X01221821Y00720982D01*
X01220470Y00721159D01*
D02*
G37*
G36*
X01217930D02*
X01216579Y00720982D01*
X01214137Y00719970D01*
X01212039Y00718361D01*
X01210430Y00716263D01*
X01209418Y00713821D01*
X01209241Y00712470D01*
X01217930D01*
Y00721159D01*
D02*
G37*
G36*
X01245870D02*
Y00712470D01*
X01254559D01*
X01254382Y00713821D01*
X01253370Y00716263D01*
X01251761Y00718361D01*
X01249663Y00719970D01*
X01247221Y00720982D01*
X01245870Y00721159D01*
D02*
G37*
G36*
X01243330D02*
X01241979Y00720982D01*
X01239537Y00719970D01*
X01237439Y00718361D01*
X01235830Y00716263D01*
X01234818Y00713821D01*
X01234641Y00712470D01*
X01243330D01*
Y00721159D01*
D02*
G37*
G36*
X01169670D02*
Y00712470D01*
X01178359D01*
X01178182Y00713821D01*
X01177170Y00716263D01*
X01175561Y00718361D01*
X01173463Y00719970D01*
X01171021Y00720982D01*
X01169670Y00721159D01*
D02*
G37*
G36*
X01167130D02*
X01165779Y00720982D01*
X01163337Y00719970D01*
X01161239Y00718361D01*
X01159630Y00716263D01*
X01158618Y00713821D01*
X01158441Y00712470D01*
X01167130D01*
Y00721159D01*
D02*
G37*
G36*
X01195070D02*
Y00712470D01*
X01203759D01*
X01203582Y00713821D01*
X01202570Y00716263D01*
X01200961Y00718361D01*
X01198863Y00719970D01*
X01196421Y00720982D01*
X01195070Y00721159D01*
D02*
G37*
G36*
X01192530D02*
X01191179Y00720982D01*
X01188737Y00719970D01*
X01186639Y00718361D01*
X01185030Y00716263D01*
X01184018Y00713821D01*
X01183841Y00712470D01*
X01192530D01*
Y00721159D01*
D02*
G37*
G36*
X00864870D02*
Y00712470D01*
X00873559D01*
X00873382Y00713821D01*
X00872370Y00716263D01*
X00870761Y00718361D01*
X00868663Y00719970D01*
X00866221Y00720982D01*
X00864870Y00721159D01*
D02*
G37*
G36*
X00862330D02*
X00860979Y00720982D01*
X00858537Y00719970D01*
X00856439Y00718361D01*
X00854830Y00716263D01*
X00853818Y00713821D01*
X00853641Y00712470D01*
X00862330D01*
Y00721159D01*
D02*
G37*
G36*
X00890270D02*
Y00712470D01*
X00898959D01*
X00898782Y00713821D01*
X00897770Y00716263D01*
X00896161Y00718361D01*
X00894063Y00719970D01*
X00891621Y00720982D01*
X00890270Y00721159D01*
D02*
G37*
G36*
X00887730D02*
X00886379Y00720982D01*
X00883937Y00719970D01*
X00881839Y00718361D01*
X00880230Y00716263D01*
X00879218Y00713821D01*
X00879041Y00712470D01*
X00887730D01*
Y00721159D01*
D02*
G37*
G36*
X00814070D02*
Y00712470D01*
X00822759D01*
X00822582Y00713821D01*
X00821570Y00716263D01*
X00819961Y00718361D01*
X00817863Y00719970D01*
X00815421Y00720982D01*
X00814070Y00721159D01*
D02*
G37*
G36*
X00811530D02*
X00810179Y00720982D01*
X00807737Y00719970D01*
X00805639Y00718361D01*
X00804030Y00716263D01*
X00803018Y00713821D01*
X00802841Y00712470D01*
X00811530D01*
Y00721159D01*
D02*
G37*
G36*
X00839470D02*
Y00712470D01*
X00848159D01*
X00847982Y00713821D01*
X00846970Y00716263D01*
X00845361Y00718361D01*
X00843263Y00719970D01*
X00840821Y00720982D01*
X00839470Y00721159D01*
D02*
G37*
G36*
X00836930D02*
X00835579Y00720982D01*
X00833137Y00719970D01*
X00831039Y00718361D01*
X00829430Y00716263D01*
X00828418Y00713821D01*
X00828241Y00712470D01*
X00836930D01*
Y00721159D01*
D02*
G37*
G36*
X00966470D02*
Y00712470D01*
X00975159D01*
X00974982Y00713821D01*
X00973970Y00716263D01*
X00972361Y00718361D01*
X00970263Y00719970D01*
X00967821Y00720982D01*
X00966470Y00721159D01*
D02*
G37*
G36*
X00963930D02*
X00962579Y00720982D01*
X00960137Y00719970D01*
X00958039Y00718361D01*
X00956430Y00716263D01*
X00955418Y00713821D01*
X00955241Y00712470D01*
X00963930D01*
Y00721159D01*
D02*
G37*
G36*
X01042670D02*
Y00712470D01*
X01051359D01*
X01051182Y00713821D01*
X01050170Y00716263D01*
X01048561Y00718361D01*
X01046463Y00719970D01*
X01044021Y00720982D01*
X01042670Y00721159D01*
D02*
G37*
G36*
X01040130D02*
X01038779Y00720982D01*
X01036337Y00719970D01*
X01034239Y00718361D01*
X01032630Y00716263D01*
X01031618Y00713821D01*
X01031441Y00712470D01*
X01040130D01*
Y00721159D01*
D02*
G37*
G36*
X00915670D02*
Y00712470D01*
X00924359D01*
X00924182Y00713821D01*
X00923170Y00716263D01*
X00921561Y00718361D01*
X00919463Y00719970D01*
X00917021Y00720982D01*
X00915670Y00721159D01*
D02*
G37*
G36*
X00913130D02*
X00911779Y00720982D01*
X00909337Y00719970D01*
X00907239Y00718361D01*
X00905630Y00716263D01*
X00904618Y00713821D01*
X00904441Y00712470D01*
X00913130D01*
Y00721159D01*
D02*
G37*
G36*
X00941070D02*
Y00712470D01*
X00949759D01*
X00949582Y00713821D01*
X00948570Y00716263D01*
X00946961Y00718361D01*
X00944863Y00719970D01*
X00942421Y00720982D01*
X00941070Y00721159D01*
D02*
G37*
G36*
X00938530D02*
X00937179Y00720982D01*
X00934737Y00719970D01*
X00932639Y00718361D01*
X00931030Y00716263D01*
X00930018Y00713821D01*
X00929841Y00712470D01*
X00938530D01*
Y00721159D01*
D02*
G37*
G36*
X00836930Y00709930D02*
X00828241D01*
X00828418Y00708579D01*
X00829430Y00706137D01*
X00831039Y00704039D01*
X00833137Y00702430D01*
X00835579Y00701418D01*
X00836930Y00701241D01*
Y00709930D01*
D02*
G37*
G36*
X01257300Y00625990D02*
X01248530D01*
Y00617220D01*
X01257300D01*
Y00625990D01*
D02*
G37*
G36*
X01268610D02*
X01259840D01*
Y00617220D01*
X01268610D01*
Y00625990D01*
D02*
G37*
G36*
X01416900Y00647420D02*
X01409026D01*
Y00640752D01*
X01416900D01*
Y00647420D01*
D02*
G37*
G36*
X01268610Y00614680D02*
X01259840D01*
Y00605910D01*
X01268610D01*
Y00614680D01*
D02*
G37*
G36*
X01223010Y00563885D02*
X01217400D01*
Y00563814D01*
X01216130Y00563145D01*
X01215270Y00563316D01*
Y00557410D01*
Y00551504D01*
X01216130Y00551675D01*
X01217400Y00551006D01*
Y00550935D01*
X01223010D01*
Y00557410D01*
Y00563885D01*
D02*
G37*
G36*
X01409450Y00577216D02*
X01398345D01*
X01396344Y00576953D01*
X01394479Y00576181D01*
X01392878Y00574952D01*
X01391649Y00573351D01*
X01390877Y00571486D01*
X01390614Y00569485D01*
Y00565630D01*
X01409450D01*
Y00577216D01*
D02*
G37*
G36*
X01257300Y00614680D02*
X01248530D01*
Y00605910D01*
X01257300D01*
Y00614680D01*
D02*
G37*
G36*
X01427314Y00647420D02*
X01419440D01*
Y00640752D01*
X01427314D01*
Y00647420D01*
D02*
G37*
G36*
X01321650Y00647794D02*
X01316040D01*
Y00642589D01*
X01321650D01*
Y00647794D01*
D02*
G37*
G36*
X01329800D02*
X01324190D01*
Y00642589D01*
X01329800D01*
Y00647794D01*
D02*
G37*
G36*
X01073150Y00534550D02*
X01067540D01*
Y00529345D01*
X01073150D01*
Y00534550D01*
D02*
G37*
G36*
X01258570Y00574252D02*
X01256214Y00573942D01*
X01254019Y00573032D01*
X01252134Y00571586D01*
X01250688Y00569701D01*
X01249778Y00567506D01*
X01249468Y00565150D01*
X01249778Y00562794D01*
X01250688Y00560599D01*
X01252134Y00558714D01*
X01254019Y00557268D01*
X01256214Y00556358D01*
X01258570Y00556048D01*
X01260926Y00556358D01*
X01262887Y00557171D01*
X01271220Y00548837D01*
Y00529393D01*
X01269917Y00528090D01*
X01219509D01*
X01218861Y00529230D01*
X01208650D01*
Y00531770D01*
X01218861D01*
X01219509Y00532910D01*
X01223840D01*
X01224831Y00533107D01*
X01225671Y00533669D01*
X01226111Y00534109D01*
X01226673Y00534949D01*
X01226870Y00535940D01*
Y00536951D01*
X01230144D01*
Y00539820D01*
X01238327D01*
X01240229Y00537919D01*
X01241069Y00537357D01*
X01242060Y00537160D01*
X01249875D01*
X01250688Y00535199D01*
X01252134Y00533314D01*
X01254019Y00531868D01*
X01256214Y00530958D01*
X01258570Y00530648D01*
X01260926Y00530958D01*
X01263121Y00531868D01*
X01265006Y00533314D01*
X01266452Y00535199D01*
X01267362Y00537394D01*
X01267672Y00539750D01*
X01267362Y00542106D01*
X01266452Y00544301D01*
X01265006Y00546186D01*
X01263121Y00547632D01*
X01260926Y00548542D01*
X01258570Y00548852D01*
X01256214Y00548542D01*
X01254019Y00547632D01*
X01252134Y00546186D01*
X01250688Y00544301D01*
X01249875Y00542340D01*
X01243133D01*
X01241231Y00544241D01*
X01240391Y00544803D01*
X01239400Y00545000D01*
X01230144D01*
Y00547869D01*
X01218416D01*
Y00538090D01*
X01216267D01*
X01216232Y00538113D01*
X01215150Y00538328D01*
X01202150D01*
X01201068Y00538113D01*
X01200150Y00537500D01*
X01199537Y00536582D01*
X01199322Y00535500D01*
X01199537Y00534418D01*
X01198975Y00533307D01*
X01198287Y00532904D01*
X01197749Y00533022D01*
X01196524Y00534854D01*
X01194527Y00536189D01*
X01193440Y00536405D01*
Y00530500D01*
Y00524594D01*
X01194527Y00524810D01*
X01196524Y00526145D01*
X01197749Y00527978D01*
X01198287Y00528096D01*
X01198976Y00527692D01*
X01199537Y00526582D01*
X01199322Y00525500D01*
X01199537Y00524418D01*
X01199906Y00523865D01*
X01200150Y00522500D01*
X01199537Y00521583D01*
X01199322Y00520500D01*
X01199537Y00519418D01*
X01199906Y00518865D01*
X01200061Y00518000D01*
X01199906Y00517136D01*
X01199537Y00516582D01*
X01199322Y00515500D01*
X01199537Y00514418D01*
X01200150Y00513500D01*
X01199907Y00512135D01*
X01199537Y00511582D01*
X01199322Y00510500D01*
X01199537Y00509417D01*
X01199907Y00508865D01*
X01200061Y00508000D01*
X01199907Y00507135D01*
X01199537Y00506582D01*
X01199322Y00505500D01*
X01199537Y00504418D01*
X01199907Y00503865D01*
X01200150Y00502500D01*
X01199537Y00501582D01*
X01199322Y00500500D01*
X01199537Y00499417D01*
X01199906Y00498864D01*
X01200061Y00498000D01*
X01199906Y00497135D01*
X01199537Y00496582D01*
X01199322Y00495500D01*
X01199537Y00494417D01*
X01200150Y00493500D01*
X01199906Y00492135D01*
X01199537Y00491582D01*
X01199322Y00490500D01*
X01199537Y00489417D01*
X01199906Y00488865D01*
X01200150Y00487500D01*
X01199537Y00486582D01*
X01199322Y00485500D01*
X01199537Y00484418D01*
X01199906Y00483865D01*
X01200061Y00483000D01*
X01199906Y00482136D01*
X01199537Y00481582D01*
X01199322Y00480500D01*
X01199537Y00479418D01*
X01200150Y00478500D01*
X01201068Y00477887D01*
X01202150Y00477672D01*
X01215150D01*
X01216232Y00477887D01*
X01216267Y00477910D01*
X01231811D01*
X01239470Y00470251D01*
Y00437953D01*
X01230827Y00429310D01*
X01228592D01*
X01227902Y00430342D01*
X01226240Y00431452D01*
X01224280Y00431842D01*
X01222320Y00431452D01*
X01220658Y00430342D01*
X01219548Y00428680D01*
X01219158Y00426720D01*
X01219548Y00424760D01*
X01220658Y00423098D01*
X01222320Y00421987D01*
X01224280Y00421598D01*
X01226240Y00421987D01*
X01227902Y00423098D01*
X01228592Y00424130D01*
X01231900D01*
X01232891Y00424327D01*
X01233731Y00424889D01*
X01235786Y00426943D01*
X01237007Y00426369D01*
X01237327Y00424760D01*
X01238438Y00423098D01*
X01240100Y00421987D01*
X01242060Y00421598D01*
X01244020Y00421987D01*
X01245682Y00423098D01*
X01246406Y00424182D01*
X01247874D01*
X01248598Y00423098D01*
X01248805Y00422960D01*
X01248419Y00421690D01*
X01247140D01*
X01246149Y00421493D01*
X01245309Y00420931D01*
X01238959Y00414581D01*
X01238397Y00413741D01*
X01238200Y00412750D01*
Y00404119D01*
X01234926D01*
Y00401250D01*
X01231414D01*
Y00404119D01*
X01219686D01*
Y00393201D01*
X01231414D01*
Y00396070D01*
X01234926D01*
Y00393201D01*
X01246654D01*
Y00404119D01*
X01243380D01*
Y00411677D01*
X01248213Y00416510D01*
X01253852D01*
X01254080Y00415240D01*
X01252335Y00414075D01*
X01251001Y00412077D01*
X01250784Y00410990D01*
X01262596D01*
X01262380Y00412077D01*
X01261045Y00414075D01*
X01259300Y00415240D01*
X01259528Y00416510D01*
X01295400D01*
X01296391Y00416707D01*
X01297231Y00417269D01*
X01318787Y00438824D01*
X01320240Y00438858D01*
X01341829Y00417269D01*
X01342669Y00416707D01*
X01343660Y00416510D01*
X01357827D01*
X01362660Y00411677D01*
Y00404119D01*
X01359386D01*
Y00393201D01*
X01371114D01*
Y00396070D01*
X01374626D01*
Y00393201D01*
X01386354D01*
Y00404119D01*
X01374626D01*
Y00401250D01*
X01371114D01*
Y00404119D01*
X01367840D01*
Y00412750D01*
X01367643Y00413741D01*
X01367081Y00414581D01*
X01360731Y00420931D01*
X01359891Y00421493D01*
X01358900Y00421690D01*
X01344733D01*
X01323390Y00443033D01*
Y00486410D01*
X01323193Y00487401D01*
X01322631Y00488241D01*
X01303541Y00507331D01*
X01302701Y00507893D01*
X01301710Y00508090D01*
X01218404D01*
X01217725Y00509360D01*
X01217763Y00509417D01*
X01217979Y00510500D01*
X01217763Y00511582D01*
X01217725Y00511640D01*
X01218403Y00512910D01*
X01312476D01*
X01315408Y00509979D01*
X01316248Y00509417D01*
X01316731Y00509321D01*
Y00505946D01*
X01327649D01*
Y00517674D01*
X01327649D01*
Y00518646D01*
X01327649D01*
Y00530374D01*
X01316731D01*
Y00526999D01*
X01316248Y00526903D01*
X01315408Y00526341D01*
X01312157Y00523090D01*
X01274039D01*
X01273513Y00524360D01*
X01275641Y00526489D01*
X01276203Y00527329D01*
X01276400Y00528320D01*
Y00549910D01*
X01276203Y00550901D01*
X01275641Y00551741D01*
X01266549Y00560833D01*
X01267362Y00562794D01*
X01267672Y00565150D01*
X01267362Y00567506D01*
X01266452Y00569701D01*
X01265006Y00571586D01*
X01263121Y00573032D01*
X01260926Y00573942D01*
X01258570Y00574252D01*
D02*
G37*
G36*
X01391906Y00534240D02*
X01387270D01*
Y00529604D01*
X01388357Y00529821D01*
X01390355Y00531155D01*
X01391689Y00533153D01*
X01391906Y00534240D01*
D02*
G37*
G36*
X01081300Y00534550D02*
X01075690D01*
Y00529345D01*
X01081300D01*
Y00534550D01*
D02*
G37*
G36*
X01322190Y00565072D02*
X01320230Y00564683D01*
X01318568Y00563572D01*
X01317457Y00561910D01*
X01317068Y00559950D01*
X01317457Y00557990D01*
X01318568Y00556328D01*
X01319397Y00555774D01*
X01319288Y00554504D01*
X01316731D01*
Y00542776D01*
X01327649D01*
Y00554504D01*
X01325092D01*
X01324983Y00555774D01*
X01325812Y00556328D01*
X01326922Y00557990D01*
X01327312Y00559950D01*
X01326922Y00561910D01*
X01325812Y00563572D01*
X01324150Y00564683D01*
X01322190Y00565072D01*
D02*
G37*
G36*
X01190900Y00536405D02*
X01189813Y00536189D01*
X01187815Y00534854D01*
X01186480Y00532856D01*
X01186264Y00531770D01*
X01190900D01*
Y00536405D01*
D02*
G37*
G36*
X01434220Y00543252D02*
X01431869Y00542785D01*
X01429877Y00541453D01*
X01428545Y00539460D01*
X01428078Y00537110D01*
X01428545Y00534760D01*
X01429877Y00532767D01*
X01431869Y00531436D01*
X01434220Y00530968D01*
X01436570Y00531436D01*
X01438563Y00532767D01*
X01439894Y00534760D01*
X01440362Y00537110D01*
X01439894Y00539460D01*
X01438563Y00541453D01*
X01436570Y00542785D01*
X01434220Y00543252D01*
D02*
G37*
G36*
X01076521Y00543560D02*
X01064704D01*
X01064921Y00542473D01*
X01066255Y00540475D01*
X01067540Y00539617D01*
Y00537090D01*
X01081300D01*
Y00542295D01*
X01077559D01*
X01076521Y00543560D01*
D02*
G37*
G36*
X01387270Y00541416D02*
Y00536780D01*
X01391906D01*
X01391689Y00537867D01*
X01390355Y00539865D01*
X01388357Y00541200D01*
X01387270Y00541416D01*
D02*
G37*
G36*
X01423720Y00536224D02*
X01412240D01*
Y00532380D01*
X01427581D01*
X01427290Y00533839D01*
X01426453Y00535093D01*
X01425199Y00535930D01*
X01423720Y00536224D01*
D02*
G37*
G36*
X01409700D02*
X01398220D01*
X01396741Y00535930D01*
X01395488Y00535093D01*
X01394650Y00533839D01*
X01394360Y00532380D01*
X01409700D01*
Y00536224D01*
D02*
G37*
G36*
X01130545Y00563880D02*
X01125340D01*
Y00558270D01*
X01130545D01*
Y00563880D01*
D02*
G37*
G36*
X01212730Y00563316D02*
X01211643Y00563100D01*
X01209645Y00561765D01*
X01208310Y00559767D01*
X01208094Y00558680D01*
X01212730D01*
Y00563316D01*
D02*
G37*
G36*
X01231160Y00563885D02*
X01225550D01*
Y00558680D01*
X01231160D01*
Y00563885D01*
D02*
G37*
G36*
X01212730Y00556140D02*
X01208094D01*
X01208310Y00555053D01*
X01209645Y00553055D01*
X01211643Y00551721D01*
X01212730Y00551504D01*
Y00556140D01*
D02*
G37*
G36*
X01069340Y00550736D02*
X01068253Y00550519D01*
X01066255Y00549185D01*
X01064921Y00547187D01*
X01064704Y00546100D01*
X01069340D01*
Y00550736D01*
D02*
G37*
G36*
X01071880D02*
Y00546100D01*
X01076516D01*
X01076300Y00547187D01*
X01074965Y00549185D01*
X01072967Y00550519D01*
X01071880Y00550736D01*
D02*
G37*
G36*
X01231160Y00556140D02*
X01225550D01*
Y00550935D01*
X01231160D01*
Y00556140D01*
D02*
G37*
G36*
X00965200Y00694902D02*
X00962844Y00694592D01*
X00960649Y00693682D01*
X00958764Y00692236D01*
X00957318Y00690351D01*
X00956408Y00688156D01*
X00956098Y00685800D01*
X00956408Y00683444D01*
X00957318Y00681249D01*
X00958764Y00679364D01*
X00960649Y00677918D01*
X00962844Y00677008D01*
X00965200Y00676698D01*
X00967556Y00677008D01*
X00969751Y00677918D01*
X00971636Y00679364D01*
X00973082Y00681249D01*
X00973992Y00683444D01*
X00974302Y00685800D01*
X00973992Y00688156D01*
X00973082Y00690351D01*
X00971636Y00692236D01*
X00969751Y00693682D01*
X00967556Y00694592D01*
X00965200Y00694902D01*
D02*
G37*
G36*
X01244600D02*
X01242244Y00694592D01*
X01240049Y00693682D01*
X01238164Y00692236D01*
X01236718Y00690351D01*
X01235808Y00688156D01*
X01235498Y00685800D01*
X01235808Y00683444D01*
X01236718Y00681249D01*
X01238164Y00679364D01*
X01240049Y00677918D01*
X01242244Y00677008D01*
X01244600Y00676698D01*
X01246956Y00677008D01*
X01249151Y00677918D01*
X01251036Y00679364D01*
X01252482Y00681249D01*
X01253392Y00683444D01*
X01253702Y00685800D01*
X01253392Y00688156D01*
X01252482Y00690351D01*
X01251036Y00692236D01*
X01249151Y00693682D01*
X01246956Y00694592D01*
X01244600Y00694902D01*
D02*
G37*
G36*
X00771024Y00694824D02*
X00752976D01*
Y00676776D01*
X00771024D01*
Y00694824D01*
D02*
G37*
G36*
X00939800Y00694902D02*
X00937444Y00694592D01*
X00935249Y00693682D01*
X00933364Y00692236D01*
X00931918Y00690351D01*
X00931008Y00688156D01*
X00930698Y00685800D01*
X00931008Y00683444D01*
X00931918Y00681249D01*
X00933364Y00679364D01*
X00935249Y00677918D01*
X00937444Y00677008D01*
X00939800Y00676698D01*
X00942156Y00677008D01*
X00944351Y00677918D01*
X00946236Y00679364D01*
X00947682Y00681249D01*
X00948592Y00683444D01*
X00948902Y00685800D01*
X00948592Y00688156D01*
X00947682Y00690351D01*
X00946236Y00692236D01*
X00944351Y00693682D01*
X00942156Y00694592D01*
X00939800Y00694902D01*
D02*
G37*
G36*
X00863600D02*
X00861244Y00694592D01*
X00859049Y00693682D01*
X00857164Y00692236D01*
X00855718Y00690351D01*
X00854808Y00688156D01*
X00854498Y00685800D01*
X00854808Y00683444D01*
X00855718Y00681249D01*
X00857164Y00679364D01*
X00859049Y00677918D01*
X00861244Y00677008D01*
X00863600Y00676698D01*
X00865956Y00677008D01*
X00868151Y00677918D01*
X00870036Y00679364D01*
X00871482Y00681249D01*
X00872392Y00683444D01*
X00872702Y00685800D01*
X00872392Y00688156D01*
X00871482Y00690351D01*
X00870036Y00692236D01*
X00868151Y00693682D01*
X00865956Y00694592D01*
X00863600Y00694902D01*
D02*
G37*
G36*
X00889000D02*
X00886644Y00694592D01*
X00884449Y00693682D01*
X00882564Y00692236D01*
X00881118Y00690351D01*
X00880208Y00688156D01*
X00879898Y00685800D01*
X00880208Y00683444D01*
X00881118Y00681249D01*
X00882564Y00679364D01*
X00884449Y00677918D01*
X00886644Y00677008D01*
X00889000Y00676698D01*
X00891356Y00677008D01*
X00893551Y00677918D01*
X00895436Y00679364D01*
X00896882Y00681249D01*
X00897792Y00683444D01*
X00898102Y00685800D01*
X00897792Y00688156D01*
X00896882Y00690351D01*
X00895436Y00692236D01*
X00893551Y00693682D01*
X00891356Y00694592D01*
X00889000Y00694902D01*
D02*
G37*
G36*
X00914400D02*
X00912044Y00694592D01*
X00909849Y00693682D01*
X00907964Y00692236D01*
X00906518Y00690351D01*
X00905608Y00688156D01*
X00905298Y00685800D01*
X00905608Y00683444D01*
X00906518Y00681249D01*
X00907964Y00679364D01*
X00909849Y00677918D01*
X00912044Y00677008D01*
X00914400Y00676698D01*
X00916756Y00677008D01*
X00918951Y00677918D01*
X00920836Y00679364D01*
X00922282Y00681249D01*
X00923192Y00683444D01*
X00923502Y00685800D01*
X00923192Y00688156D01*
X00922282Y00690351D01*
X00920836Y00692236D01*
X00918951Y00693682D01*
X00916756Y00694592D01*
X00914400Y00694902D01*
D02*
G37*
G36*
X00797359Y00709930D02*
X00788670D01*
Y00701241D01*
X00790021Y00701418D01*
X00792463Y00702430D01*
X00794561Y00704039D01*
X00796170Y00706137D01*
X00797182Y00708579D01*
X00797359Y00709930D01*
D02*
G37*
G36*
X00811530D02*
X00802841D01*
X00803018Y00708579D01*
X00804030Y00706137D01*
X00805639Y00704039D01*
X00807737Y00702430D01*
X00810179Y00701418D01*
X00811530Y00701241D01*
Y00709930D01*
D02*
G37*
G36*
X00822759D02*
X00814070D01*
Y00701241D01*
X00815421Y00701418D01*
X00817863Y00702430D01*
X00819961Y00704039D01*
X00821570Y00706137D01*
X00822582Y00708579D01*
X00822759Y00709930D01*
D02*
G37*
G36*
X00786130D02*
X00777441D01*
X00777618Y00708579D01*
X00778630Y00706137D01*
X00780239Y00704039D01*
X00782337Y00702430D01*
X00784779Y00701418D01*
X00786130Y00701241D01*
Y00709930D01*
D02*
G37*
G36*
X01450000Y00716604D02*
X01446761Y00716285D01*
X01443646Y00715340D01*
X01440775Y00713806D01*
X01438259Y00711741D01*
X01436194Y00709225D01*
X01434660Y00706354D01*
X01433715Y00703239D01*
X01433396Y00700000D01*
X01433715Y00696761D01*
X01434660Y00693646D01*
X01436194Y00690775D01*
X01438259Y00688259D01*
X01440775Y00686194D01*
X01443646Y00684660D01*
X01446761Y00683715D01*
X01450000Y00683396D01*
X01453239Y00683715D01*
X01456354Y00684660D01*
X01459225Y00686194D01*
X01461741Y00688259D01*
X01463806Y00690775D01*
X01465340Y00693646D01*
X01466285Y00696761D01*
X01466604Y00700000D01*
X01466285Y00703239D01*
X01465340Y00706354D01*
X01463806Y00709225D01*
X01461741Y00711741D01*
X01459225Y00713806D01*
X01456354Y00715340D01*
X01453239Y00716285D01*
X01450000Y00716604D01*
D02*
G37*
G36*
X00760730Y00709930D02*
X00752041D01*
X00752218Y00708579D01*
X00753230Y00706137D01*
X00754839Y00704039D01*
X00756937Y00702430D01*
X00759379Y00701418D01*
X00760730Y00701241D01*
Y00709930D01*
D02*
G37*
G36*
X00771959D02*
X00763270D01*
Y00701241D01*
X00764621Y00701418D01*
X00767063Y00702430D01*
X00769161Y00704039D01*
X00770770Y00706137D01*
X00771782Y00708579D01*
X00771959Y00709930D01*
D02*
G37*
G36*
X00838200Y00694902D02*
X00835844Y00694592D01*
X00833649Y00693682D01*
X00831764Y00692236D01*
X00830318Y00690351D01*
X00829408Y00688156D01*
X00829098Y00685800D01*
X00829408Y00683444D01*
X00830318Y00681249D01*
X00831764Y00679364D01*
X00833649Y00677918D01*
X00835844Y00677008D01*
X00838200Y00676698D01*
X00840556Y00677008D01*
X00842751Y00677918D01*
X00844636Y00679364D01*
X00846082Y00681249D01*
X00846992Y00683444D01*
X00847302Y00685800D01*
X00846992Y00688156D01*
X00846082Y00690351D01*
X00844636Y00692236D01*
X00842751Y00693682D01*
X00840556Y00694592D01*
X00838200Y00694902D01*
D02*
G37*
G36*
X01368450Y00669582D02*
X01360830D01*
Y00658787D01*
X01368450D01*
Y00669582D01*
D02*
G37*
G36*
X01378610D02*
X01370990D01*
Y00658787D01*
X01378610D01*
Y00669582D01*
D02*
G37*
G36*
X00812800Y00694902D02*
X00810444Y00694592D01*
X00808249Y00693682D01*
X00806364Y00692236D01*
X00804918Y00690351D01*
X00804008Y00688156D01*
X00803698Y00685800D01*
X00804008Y00683444D01*
X00804918Y00681249D01*
X00806364Y00679364D01*
X00808249Y00677918D01*
X00810330Y00677056D01*
Y00671344D01*
X00807461D01*
Y00659616D01*
X00818379D01*
Y00671344D01*
X00815510D01*
Y00677155D01*
X00817351Y00677918D01*
X00819236Y00679364D01*
X00820682Y00681249D01*
X00821592Y00683444D01*
X00821902Y00685800D01*
X00821592Y00688156D01*
X00820682Y00690351D01*
X00819236Y00692236D01*
X00817351Y00693682D01*
X00815156Y00694592D01*
X00812800Y00694902D01*
D02*
G37*
G36*
X01329800Y00655539D02*
X01324190D01*
Y00650334D01*
X01329800D01*
Y00655539D01*
D02*
G37*
G36*
X00826650Y00664210D02*
X00821445D01*
Y00658600D01*
X00826650D01*
Y00664210D01*
D02*
G37*
G36*
X00834395D02*
X00829190D01*
Y00658600D01*
X00834395D01*
Y00664210D01*
D02*
G37*
G36*
X01368450Y00682917D02*
X01360830D01*
Y00672122D01*
X01368450D01*
Y00682917D01*
D02*
G37*
G36*
X01378610D02*
X01370990D01*
Y00672122D01*
X01378610D01*
Y00682917D01*
D02*
G37*
G36*
X00787400Y00694902D02*
X00785044Y00694592D01*
X00782849Y00693682D01*
X00780964Y00692236D01*
X00779518Y00690351D01*
X00778608Y00688156D01*
X00778298Y00685800D01*
X00778608Y00683444D01*
X00779518Y00681249D01*
X00780964Y00679364D01*
X00782849Y00677918D01*
X00785044Y00677008D01*
X00787400Y00676698D01*
X00789756Y00677008D01*
X00791951Y00677918D01*
X00793836Y00679364D01*
X00795282Y00681249D01*
X00796192Y00683444D01*
X00796502Y00685800D01*
X00796192Y00688156D01*
X00795282Y00690351D01*
X00793836Y00692236D01*
X00791951Y00693682D01*
X00789756Y00694592D01*
X00787400Y00694902D01*
D02*
G37*
G36*
X00834395Y00672360D02*
X00829190D01*
Y00666750D01*
X00834395D01*
Y00672360D01*
D02*
G37*
G36*
X00826650D02*
X00821445D01*
Y00666750D01*
X00826650D01*
Y00672360D01*
D02*
G37*
G36*
X01354480Y00681901D02*
X01338732D01*
Y00667922D01*
X01338370Y00667560D01*
X01328784D01*
Y00669523D01*
X01317056D01*
Y00669523D01*
X01316923Y00669434D01*
X01316355Y00669670D01*
X01296670D01*
X01295504Y00669186D01*
X01295020Y00668020D01*
Y00657860D01*
X01295504Y00656694D01*
X01296670Y00656210D01*
X01315048D01*
X01316040Y00655539D01*
X01316040Y00654940D01*
Y00650334D01*
X01321650D01*
Y00655539D01*
X01318026D01*
X01318026Y00655539D01*
X01317569Y00656809D01*
X01318005Y00657860D01*
Y00658605D01*
X01328784D01*
Y00660568D01*
X01338732D01*
Y00659803D01*
X01354480D01*
Y00681901D01*
D02*
G37*
%LPD*%
G36*
X01316355Y00657860D02*
X01296670D01*
Y00668020D01*
X01316355D01*
Y00657860D01*
D02*
G37*
G36*
X01314654Y00483864D02*
Y00442017D01*
X01294327Y00421690D01*
X01256021D01*
X01255635Y00422960D01*
X01255842Y00423098D01*
X01256953Y00424760D01*
X01257342Y00426720D01*
X01256953Y00428680D01*
X01255842Y00430342D01*
X01254810Y00431032D01*
Y00468338D01*
X01255983Y00468824D01*
X01262330Y00462477D01*
Y00436112D01*
X01261298Y00435422D01*
X01260188Y00433760D01*
X01259798Y00431800D01*
X01260188Y00429840D01*
X01261298Y00428178D01*
X01262960Y00427067D01*
X01264920Y00426678D01*
X01266880Y00427067D01*
X01268542Y00428178D01*
X01269652Y00429840D01*
X01270042Y00431800D01*
X01269652Y00433760D01*
X01268542Y00435422D01*
X01267510Y00436112D01*
Y00463550D01*
X01267313Y00464541D01*
X01266751Y00465381D01*
X01235492Y00496640D01*
X01236018Y00497910D01*
X01300608D01*
X01314654Y00483864D01*
D02*
G37*
%LPC*%
G36*
X01288730Y00445906D02*
X01287643Y00445690D01*
X01285645Y00444355D01*
X01284310Y00442357D01*
X01284094Y00441270D01*
X01288730D01*
Y00445906D01*
D02*
G37*
G36*
X01291270D02*
Y00441270D01*
X01295906D01*
X01295690Y00442357D01*
X01294355Y00444355D01*
X01292357Y00445690D01*
X01291270Y00445906D01*
D02*
G37*
G36*
X01288730Y00438730D02*
X01284094D01*
X01284310Y00437643D01*
X01285645Y00435645D01*
X01287643Y00434310D01*
X01288730Y00434094D01*
Y00438730D01*
D02*
G37*
G36*
X01295906D02*
X01291270D01*
Y00434094D01*
X01292357Y00434310D01*
X01294355Y00435645D01*
X01295690Y00437643D01*
X01295906Y00438730D01*
D02*
G37*
G36*
X01288730Y00495906D02*
X01287643Y00495690D01*
X01285645Y00494355D01*
X01284310Y00492357D01*
X01284094Y00491270D01*
X01288730D01*
Y00495906D01*
D02*
G37*
G36*
X01291270D02*
Y00491270D01*
X01295906D01*
X01295690Y00492357D01*
X01294355Y00494355D01*
X01292357Y00495690D01*
X01291270Y00495906D01*
D02*
G37*
G36*
X01288730Y00488730D02*
X01284094D01*
X01284310Y00487643D01*
X01285645Y00485645D01*
X01287643Y00484310D01*
X01288730Y00484094D01*
Y00488730D01*
D02*
G37*
G36*
X01295906D02*
X01291270D01*
Y00484094D01*
X01292357Y00484310D01*
X01294355Y00485645D01*
X01295690Y00487643D01*
X01295906Y00488730D01*
D02*
G37*
%LPD*%
D10*
X00827920Y00665480D02*
D03*
X00812920D02*
D03*
X01337190Y00511810D02*
D03*
X01322190D02*
D03*
X01337190Y00524510D02*
D03*
X01322190D02*
D03*
X01337190Y00548640D02*
D03*
X01322190D02*
D03*
X01362830Y00309880D02*
D03*
X01377830D02*
D03*
X01362830Y00325120D02*
D03*
X01377830D02*
D03*
X01423550Y00309880D02*
D03*
X01408550D02*
D03*
X01423550Y00325120D02*
D03*
X01408550D02*
D03*
X01403470Y00355600D02*
D03*
X01418470D02*
D03*
X01223130Y00309880D02*
D03*
X01238130D02*
D03*
X01223130Y00325120D02*
D03*
X01238130D02*
D03*
X01283850Y00309880D02*
D03*
X01268850D02*
D03*
X01283850Y00325120D02*
D03*
X01268850D02*
D03*
X01263770Y00355600D02*
D03*
X01278770D02*
D03*
X01083430Y00309880D02*
D03*
X01098430D02*
D03*
X01083430Y00325120D02*
D03*
X01098430D02*
D03*
X01144150Y00309880D02*
D03*
X01129150D02*
D03*
X01144150Y00325120D02*
D03*
X01129150D02*
D03*
X01124070Y00355600D02*
D03*
X01139070D02*
D03*
X00943730Y00309880D02*
D03*
X00958730D02*
D03*
X00943730Y00325120D02*
D03*
X00958730D02*
D03*
X01004450Y00309880D02*
D03*
X00989450D02*
D03*
X01004450Y00325120D02*
D03*
X00989450D02*
D03*
X00984370Y00355600D02*
D03*
X00999370D02*
D03*
X00804030Y00309880D02*
D03*
X00819030D02*
D03*
X00804030Y00325120D02*
D03*
X00819030D02*
D03*
X00864750Y00309880D02*
D03*
X00849750D02*
D03*
X00864750Y00325120D02*
D03*
X00849750D02*
D03*
X00844670Y00355600D02*
D03*
X00859670D02*
D03*
X00664330Y00309880D02*
D03*
X00679330D02*
D03*
X00664330Y00325120D02*
D03*
X00679330D02*
D03*
X00725050Y00309880D02*
D03*
X00710050D02*
D03*
X00725050Y00325120D02*
D03*
X00710050D02*
D03*
X00704970Y00355600D02*
D03*
X00719970D02*
D03*
X00524630Y00309880D02*
D03*
X00539630D02*
D03*
X00524630Y00325120D02*
D03*
X00539630D02*
D03*
X00585350Y00309880D02*
D03*
X00570350D02*
D03*
X00585350Y00325120D02*
D03*
X00570350D02*
D03*
X00565270Y00355600D02*
D03*
X00580270D02*
D03*
X00384930Y00309880D02*
D03*
X00399930D02*
D03*
X00384930Y00325120D02*
D03*
X00399930D02*
D03*
X00445650Y00309880D02*
D03*
X00430650D02*
D03*
X00445650Y00325120D02*
D03*
X00430650D02*
D03*
X00425570Y00355600D02*
D03*
X00440570D02*
D03*
X00245230Y00309880D02*
D03*
X00260230D02*
D03*
X00245230Y00325120D02*
D03*
X00260230D02*
D03*
X00305950Y00309880D02*
D03*
X00290950D02*
D03*
X00305950Y00325120D02*
D03*
X00290950D02*
D03*
X00285870Y00355600D02*
D03*
X00300870D02*
D03*
X00105530Y00309880D02*
D03*
X00120530D02*
D03*
X00105530Y00325120D02*
D03*
X00120530D02*
D03*
X00166250Y00309880D02*
D03*
X00151250D02*
D03*
X00166250Y00325120D02*
D03*
X00151250D02*
D03*
X00146170Y00355600D02*
D03*
X00161170D02*
D03*
X01087240Y00477520D02*
D03*
X01102240D02*
D03*
X01124070Y00565150D02*
D03*
X01139070D02*
D03*
X01217810Y00452120D02*
D03*
X01202810D02*
D03*
X01102240Y00490220D02*
D03*
X01087240D02*
D03*
D11*
X01441450Y00279400D02*
D03*
Y00254000D02*
D03*
Y00228600D02*
D03*
Y00203200D02*
D03*
Y00177800D02*
D03*
X01339850D02*
D03*
Y00203200D02*
D03*
Y00228600D02*
D03*
Y00254000D02*
D03*
Y00279400D02*
D03*
X01301750D02*
D03*
Y00254000D02*
D03*
Y00228600D02*
D03*
Y00203200D02*
D03*
Y00177800D02*
D03*
X01200150D02*
D03*
Y00203200D02*
D03*
Y00228600D02*
D03*
Y00254000D02*
D03*
Y00279400D02*
D03*
X01162050D02*
D03*
Y00254000D02*
D03*
Y00228600D02*
D03*
Y00203200D02*
D03*
Y00177800D02*
D03*
X01060450D02*
D03*
Y00203200D02*
D03*
Y00228600D02*
D03*
Y00254000D02*
D03*
Y00279400D02*
D03*
X01022350D02*
D03*
Y00254000D02*
D03*
Y00228600D02*
D03*
Y00203200D02*
D03*
Y00177800D02*
D03*
X00920750D02*
D03*
Y00203200D02*
D03*
Y00228600D02*
D03*
Y00254000D02*
D03*
Y00279400D02*
D03*
X00882650D02*
D03*
Y00254000D02*
D03*
Y00228600D02*
D03*
Y00203200D02*
D03*
Y00177800D02*
D03*
X00781050D02*
D03*
Y00203200D02*
D03*
Y00228600D02*
D03*
Y00254000D02*
D03*
Y00279400D02*
D03*
X00742950D02*
D03*
Y00254000D02*
D03*
Y00228600D02*
D03*
Y00203200D02*
D03*
Y00177800D02*
D03*
X00641350D02*
D03*
Y00203200D02*
D03*
Y00228600D02*
D03*
Y00254000D02*
D03*
Y00279400D02*
D03*
X00603250D02*
D03*
Y00254000D02*
D03*
Y00228600D02*
D03*
Y00203200D02*
D03*
Y00177800D02*
D03*
X00501650D02*
D03*
Y00203200D02*
D03*
Y00228600D02*
D03*
Y00254000D02*
D03*
Y00279400D02*
D03*
X00463550D02*
D03*
Y00254000D02*
D03*
Y00228600D02*
D03*
Y00203200D02*
D03*
Y00177800D02*
D03*
X00361950D02*
D03*
Y00203200D02*
D03*
Y00228600D02*
D03*
Y00254000D02*
D03*
Y00279400D02*
D03*
X00323850D02*
D03*
Y00254000D02*
D03*
Y00228600D02*
D03*
Y00203200D02*
D03*
Y00177800D02*
D03*
X00222250D02*
D03*
Y00203200D02*
D03*
Y00228600D02*
D03*
Y00254000D02*
D03*
Y00279400D02*
D03*
X00184150D02*
D03*
Y00254000D02*
D03*
Y00228600D02*
D03*
Y00203200D02*
D03*
Y00177800D02*
D03*
X00082550D02*
D03*
Y00203200D02*
D03*
Y00228600D02*
D03*
Y00254000D02*
D03*
Y00279400D02*
D03*
D12*
X01380490Y00383660D02*
D03*
Y00398660D02*
D03*
X01365250D02*
D03*
Y00383660D02*
D03*
X01436370Y00322460D02*
D03*
Y00307460D02*
D03*
X01240790Y00383660D02*
D03*
Y00398660D02*
D03*
X01225550D02*
D03*
Y00383660D02*
D03*
X01296670Y00322460D02*
D03*
Y00307460D02*
D03*
X01101090Y00383660D02*
D03*
Y00398660D02*
D03*
X01085850D02*
D03*
Y00383660D02*
D03*
X01156970Y00322460D02*
D03*
Y00307460D02*
D03*
X00961390Y00383660D02*
D03*
Y00398660D02*
D03*
X00946150D02*
D03*
Y00383660D02*
D03*
X01017270Y00322460D02*
D03*
Y00307460D02*
D03*
X00821690Y00383660D02*
D03*
Y00398660D02*
D03*
X00806450D02*
D03*
Y00383660D02*
D03*
X00877570Y00322460D02*
D03*
Y00307460D02*
D03*
X00681990Y00383660D02*
D03*
Y00398660D02*
D03*
X00666750D02*
D03*
Y00383660D02*
D03*
X00737870Y00322460D02*
D03*
Y00307460D02*
D03*
X00542290Y00383660D02*
D03*
Y00398660D02*
D03*
X00527050D02*
D03*
Y00383660D02*
D03*
X00598170Y00322460D02*
D03*
Y00307460D02*
D03*
X00402590Y00383660D02*
D03*
Y00398660D02*
D03*
X00387350D02*
D03*
Y00383660D02*
D03*
X00458470Y00322460D02*
D03*
Y00307460D02*
D03*
X00262890Y00383660D02*
D03*
Y00398660D02*
D03*
X00247650D02*
D03*
Y00383660D02*
D03*
X00318770Y00322460D02*
D03*
Y00307460D02*
D03*
X00123190Y00383660D02*
D03*
Y00398660D02*
D03*
X00107950D02*
D03*
Y00383660D02*
D03*
X00179070Y00322460D02*
D03*
Y00307460D02*
D03*
X01322920Y00649064D02*
D03*
Y00664064D02*
D03*
X01112520Y00557410D02*
D03*
Y00542410D02*
D03*
X01224280Y00557410D02*
D03*
Y00542410D02*
D03*
X01074420Y00505340D02*
D03*
Y00490340D02*
D03*
Y00520820D02*
D03*
Y00535820D02*
D03*
D13*
X01415390Y00397330D02*
D03*
X01396390D02*
D03*
X01405890Y00374830D02*
D03*
X01275690Y00397330D02*
D03*
X01256690D02*
D03*
X01266190Y00374830D02*
D03*
X01135990Y00397330D02*
D03*
X01116990D02*
D03*
X01126490Y00374830D02*
D03*
X00996290Y00397330D02*
D03*
X00977290D02*
D03*
X00986790Y00374830D02*
D03*
X00856590Y00397330D02*
D03*
X00837590D02*
D03*
X00847090Y00374830D02*
D03*
X00716890Y00397330D02*
D03*
X00697890D02*
D03*
X00707390Y00374830D02*
D03*
X00577190Y00397330D02*
D03*
X00558190D02*
D03*
X00567690Y00374830D02*
D03*
X00437490Y00397330D02*
D03*
X00418490D02*
D03*
X00427990Y00374830D02*
D03*
X00297790Y00397330D02*
D03*
X00278790D02*
D03*
X00288290Y00374830D02*
D03*
X00158090Y00397330D02*
D03*
X00139090D02*
D03*
X00148590Y00374830D02*
D03*
D14*
X01386450Y00355600D02*
D03*
X01369450D02*
D03*
X01246750D02*
D03*
X01229750D02*
D03*
X01107050D02*
D03*
X01090050D02*
D03*
X00967350D02*
D03*
X00950350D02*
D03*
X00827650D02*
D03*
X00810650D02*
D03*
X00687950D02*
D03*
X00670950D02*
D03*
X00548250D02*
D03*
X00531250D02*
D03*
X00408550D02*
D03*
X00391550D02*
D03*
X00268850D02*
D03*
X00251850D02*
D03*
X00129150D02*
D03*
X00112150D02*
D03*
D15*
X01363330Y00339090D02*
D03*
X01377330D02*
D03*
X01223630D02*
D03*
X01237630D02*
D03*
X01083930D02*
D03*
X01097930D02*
D03*
X00944230D02*
D03*
X00958230D02*
D03*
X00804530D02*
D03*
X00818530D02*
D03*
X00664830D02*
D03*
X00678830D02*
D03*
X00525130D02*
D03*
X00539130D02*
D03*
X00385430D02*
D03*
X00399430D02*
D03*
X00245730D02*
D03*
X00259730D02*
D03*
X00106030D02*
D03*
X00120030D02*
D03*
D16*
X01418170Y00648690D02*
D03*
Y00664438D02*
D03*
D17*
X01369720Y00608874D02*
D03*
D18*
X01346606Y00670852D02*
D03*
X01369720D02*
D03*
X01392834D02*
D03*
D19*
X01049020Y00491580D02*
D03*
Y00534580D02*
D03*
D20*
X01410970Y00515110D02*
D03*
Y00531110D02*
D03*
Y00523110D02*
D03*
Y00499110D02*
D03*
Y00507110D02*
D03*
D21*
X01410720Y00564360D02*
D03*
D22*
X01453220D02*
D03*
Y00465860D02*
D03*
D23*
X01410720D02*
D03*
D24*
X01372750Y00535510D02*
D03*
D25*
X01355750D02*
D03*
Y00513510D02*
D03*
X01374750D02*
D03*
D26*
X01140900Y00548250D02*
D03*
X01145900D02*
D03*
X01150900Y00548250D02*
D03*
X01155900Y00548250D02*
D03*
X01160900D02*
D03*
X01165900Y00548250D02*
D03*
X01170900D02*
D03*
X01175900Y00548250D02*
D03*
X01180900D02*
D03*
X01185900Y00548250D02*
D03*
X01190900Y00548250D02*
D03*
X01195900D02*
D03*
Y00467750D02*
D03*
X01190900D02*
D03*
X01185900Y00467750D02*
D03*
X01180900Y00467750D02*
D03*
X01175900D02*
D03*
X01170900Y00467750D02*
D03*
X01165900Y00467750D02*
D03*
X01160900D02*
D03*
X01155900D02*
D03*
X01150900Y00467750D02*
D03*
X01145900Y00467750D02*
D03*
X01140900D02*
D03*
D27*
X01208650Y00535500D02*
D03*
Y00530500D02*
D03*
X01208650Y00525500D02*
D03*
X01208650Y00520500D02*
D03*
Y00515500D02*
D03*
X01208650Y00510500D02*
D03*
Y00505500D02*
D03*
X01208650Y00500500D02*
D03*
Y00495500D02*
D03*
X01208650Y00490500D02*
D03*
X01208650Y00485500D02*
D03*
Y00480500D02*
D03*
X01128150D02*
D03*
Y00485500D02*
D03*
X01128150Y00490500D02*
D03*
X01128150Y00495500D02*
D03*
Y00500500D02*
D03*
Y00505500D02*
D03*
X01128150Y00510500D02*
D03*
X01128150Y00515500D02*
D03*
Y00520500D02*
D03*
X01128150Y00525500D02*
D03*
X01128150Y00530500D02*
D03*
Y00535500D02*
D03*
D28*
X01418170Y00664438D02*
X01429792D01*
X01435100Y00659130D01*
Y00622300D02*
Y00659130D01*
Y00622300D02*
X01479550Y00577850D01*
Y00552450D02*
Y00577850D01*
X01468120Y00541020D02*
X01479550Y00552450D01*
X01447800Y00541020D02*
X01468120D01*
X01451610Y00323850D02*
Y00411480D01*
X01427480Y00435610D02*
X01451610Y00411480D01*
X01399540Y00435610D02*
X01427480D01*
X01380490Y00454660D02*
X01399540Y00435610D01*
X01380490Y00454660D02*
Y00486410D01*
X01393190Y00499110D01*
X01410970D01*
X01078230Y00477520D02*
X01087240D01*
X01074420Y00481330D02*
X01078230Y00477520D01*
X01069340Y00481330D02*
X01074420D01*
X01069340D02*
X01074420Y00486410D01*
X01065530Y00477520D02*
X01069340Y00481330D01*
X01070610Y00544830D02*
X01074420Y00541020D01*
X01066800Y00548640D02*
X01070610Y00544830D01*
X01074420Y00535820D02*
Y00541020D01*
X01033780Y00548640D02*
X01066800D01*
X01026160Y00541020D02*
X01033780Y00548640D01*
X01026160Y00482600D02*
Y00541020D01*
Y00482600D02*
X01031240Y00477520D01*
X01065530D01*
X01074420Y00486410D02*
Y00490340D01*
X01390400Y00531110D02*
X01410970D01*
X01386000Y00535510D02*
X01390400Y00531110D01*
X01372750Y00535510D02*
X01386000D01*
X01410970Y00499110D02*
X01427480D01*
X01432560Y00504190D01*
Y00511810D01*
X01447800Y00527050D01*
Y00541020D01*
X01440180Y00548640D02*
X01447800Y00541020D01*
X01358900Y00548640D02*
X01440180D01*
X01355750Y00545490D02*
X01358900Y00548640D01*
X01355750Y00535510D02*
Y00545490D01*
X01369720Y00608874D02*
Y00648690D01*
Y00670852D01*
X01323294Y00648690D02*
X01369720D01*
X01418170D01*
X01322920Y00649064D02*
X01323294Y00648690D01*
X01339818Y00664064D02*
X01346606Y00670852D01*
X01314450Y00664064D02*
X01339818D01*
X01392834Y00670852D02*
X01396962Y00666724D01*
X01415884D01*
X01418170Y00664438D01*
X00082550Y00228600D02*
X00107950D01*
X00222250D02*
X00247650D01*
X00361950D02*
X00387350D01*
X00501650D02*
X00527050D01*
X00641350D02*
X00666750D01*
X00781050D02*
X00806450D01*
X00920750D02*
X00946150D01*
X01060450D02*
X01085850D01*
X01200150D02*
X01225550D01*
X01339850D02*
X01365250D01*
X01276350D02*
X01301750D01*
X01136650D02*
X01162050D01*
X00996950D02*
X01022350D01*
X00857250D02*
X00882650D01*
X00717550D02*
X00742950D01*
X00577850D02*
X00603250D01*
X00438150D02*
X00463550D01*
X00298450D02*
X00323850D01*
X00158750D02*
X00184150D01*
X01416050D02*
X01441450D01*
X00107950Y00120650D02*
Y00196850D01*
X00101600Y00203200D02*
X00107950Y00196850D01*
X00082550Y00203200D02*
X00101600D01*
X00165100D02*
X00184150D01*
X00158750Y00196850D02*
X00165100Y00203200D01*
X00158750Y00133350D02*
Y00196850D01*
X00247650Y00127000D02*
X00279400Y00095250D01*
X00247650Y00127000D02*
Y00196850D01*
X00241300Y00203200D02*
X00247650Y00196850D01*
X00222250Y00203200D02*
X00241300D01*
X00304800D02*
X00323850D01*
X00298450Y00196850D02*
X00304800Y00203200D01*
X00298450Y00133350D02*
Y00196850D01*
X00381000Y00050800D02*
Y00082550D01*
X00368300Y00095250D02*
X00381000Y00082550D01*
X00279400Y00095250D02*
X00368300D01*
X00381000Y00203200D02*
X00387350Y00196850D01*
X00361950Y00203200D02*
X00381000D01*
X00444500D02*
X00463550D01*
X00438150Y00196850D02*
X00444500Y00203200D01*
X00501650D02*
X00520700D01*
X00527050Y00196850D01*
X00577850D02*
X00584200Y00203200D01*
X00603250D01*
X00660400D02*
X00666750Y00196850D01*
X00641350Y00203200D02*
X00660400D01*
X00723900D02*
X00742950D01*
X00717550Y00196850D02*
X00723900Y00203200D01*
X00717550Y00069850D02*
Y00196850D01*
Y00069850D02*
X00736600Y00050800D01*
X00685800D02*
Y00057150D01*
X00666750Y00076200D02*
X00685800Y00057150D01*
X00666750Y00076200D02*
Y00196850D01*
X00177800Y00050800D02*
X00279400D01*
X00107950Y00120650D02*
X00177800Y00050800D01*
X00215900Y00076200D02*
X00323850D01*
X00158750Y00133350D02*
X00215900Y00076200D01*
X00323850D02*
X00330200Y00069850D01*
Y00050800D02*
Y00069850D01*
X00298450Y00133350D02*
X00323850Y00107950D01*
X00482600Y00050800D02*
Y00057150D01*
X00387350Y00152400D02*
X00482600Y00057150D01*
X00387350Y00152400D02*
Y00196850D01*
X00438150Y00146050D02*
X00533400Y00050800D01*
X00438150Y00146050D02*
Y00196850D01*
X00635000Y00050800D02*
Y00057150D01*
X00577850Y00114300D02*
X00635000Y00057150D01*
X00577850Y00114300D02*
Y00196850D01*
X00527050Y00107950D02*
X00584200Y00050800D01*
X00527050Y00107950D02*
Y00196850D01*
X00431800Y00050800D02*
Y00063500D01*
X00387350Y00107950D02*
X00431800Y00063500D01*
X00323850Y00107950D02*
X00387350D01*
X01136650D02*
X01200150D01*
X01092200Y00063500D02*
X01136650Y00107950D01*
X01092200Y00050800D02*
Y00063500D01*
X00996950Y00107950D02*
Y00196850D01*
X00939800Y00050800D02*
X00996950Y00107950D01*
X00946150Y00114300D02*
Y00196850D01*
X00889000Y00057150D02*
X00946150Y00114300D01*
X00889000Y00050800D02*
Y00057150D01*
X01085850Y00146050D02*
Y00196850D01*
X00990600Y00050800D02*
X01085850Y00146050D01*
X01136650Y00152400D02*
Y00196850D01*
X01041400Y00057150D02*
X01136650Y00152400D01*
X01041400Y00050800D02*
Y00057150D01*
X01200150Y00107950D02*
X01225550Y00133350D01*
X01193800Y00050800D02*
Y00069850D01*
X01200150Y00076200D01*
X01308100D02*
X01365250Y00133350D01*
X01200150Y00076200D02*
X01308100D01*
X01346200Y00050800D02*
X01416050Y00120650D01*
X01244600Y00050800D02*
X01346200D01*
X00857250Y00076200D02*
Y00196850D01*
X00838200Y00057150D02*
X00857250Y00076200D01*
X00838200Y00050800D02*
Y00057150D01*
X00787400Y00050800D02*
X00806450Y00069850D01*
Y00196850D01*
X00800100Y00203200D02*
X00806450Y00196850D01*
X00781050Y00203200D02*
X00800100D01*
X00863600D02*
X00882650D01*
X00857250Y00196850D02*
X00863600Y00203200D01*
X00920750D02*
X00939800D01*
X00946150Y00196850D01*
X00996950D02*
X01003300Y00203200D01*
X01022350D01*
X01079500D02*
X01085850Y00196850D01*
X01060450Y00203200D02*
X01079500D01*
X01143000D02*
X01162050D01*
X01136650Y00196850D02*
X01143000Y00203200D01*
X01155700Y00095250D02*
X01244600D01*
X01143000Y00082550D02*
X01155700Y00095250D01*
X01143000Y00050800D02*
Y00082550D01*
X01225550Y00133350D02*
Y00196850D01*
X01219200Y00203200D02*
X01225550Y00196850D01*
X01200150Y00203200D02*
X01219200D01*
X01282700D02*
X01301750D01*
X01276350Y00196850D02*
X01282700Y00203200D01*
X01276350Y00127000D02*
Y00196850D01*
X01244600Y00095250D02*
X01276350Y00127000D01*
X01365250Y00133350D02*
Y00196850D01*
X01358900Y00203200D02*
X01365250Y00196850D01*
X01339850Y00203200D02*
X01358900D01*
X01422400D02*
X01441450D01*
X01416050Y00196850D02*
X01422400Y00203200D01*
X01416050Y00120650D02*
Y00196850D01*
D29*
X01322190Y00548640D02*
Y00559950D01*
X01337190Y00524510D02*
Y00548640D01*
X01102240Y00464940D02*
Y00477520D01*
X01073150Y00391160D02*
X01098550D01*
X01101090Y00388620D01*
Y00383660D02*
Y00388620D01*
X00179070Y00322580D02*
Y00334130D01*
X00139090Y00397450D02*
Y00409720D01*
X00318770Y00322580D02*
Y00334130D01*
X00278790Y00397450D02*
Y00409720D01*
X00458470Y00322580D02*
Y00334130D01*
X00418490Y00397450D02*
Y00409720D01*
X00598170Y00322580D02*
Y00334130D01*
X00558190Y00397450D02*
Y00409720D01*
X00737870Y00322580D02*
Y00334130D01*
X00697890Y00397450D02*
Y00409720D01*
X00877570Y00322580D02*
Y00334130D01*
X00837590Y00397450D02*
Y00409720D01*
X01017270Y00322580D02*
Y00334130D01*
X00977290Y00397450D02*
Y00409720D01*
X01156970Y00322580D02*
Y00334130D01*
X01296670Y00322580D02*
Y00334130D01*
X01256690Y00397450D02*
Y00409720D01*
X01396390Y00397330D02*
Y00409600D01*
X01393190Y00368300D02*
X01399720Y00374830D01*
X01374140Y00368300D02*
X01393190D01*
X01369450Y00363610D02*
X01374140Y00368300D01*
X01386840Y00372110D02*
X01405890Y00391160D01*
X01369060Y00372110D02*
X01386840D01*
X01365250Y00375920D02*
X01369060Y00372110D01*
X01436370Y00322460D02*
Y00334010D01*
X00725050Y00325120D02*
Y00332860D01*
Y00309880D02*
Y00325120D01*
X01423550D02*
Y00332860D01*
Y00309880D02*
Y00325120D01*
X01283850D02*
Y00332860D01*
Y00309880D02*
Y00325120D01*
X01144150D02*
Y00332860D01*
Y00309880D02*
Y00325120D01*
X01004450D02*
Y00332860D01*
Y00309880D02*
Y00325120D01*
X00864750D02*
Y00332860D01*
Y00309880D02*
Y00325120D01*
X00585350D02*
Y00332860D01*
Y00309880D02*
Y00325120D01*
X00445650D02*
Y00332860D01*
Y00309880D02*
Y00325120D01*
X00305950D02*
Y00332860D01*
Y00309880D02*
Y00325120D01*
X01242060Y00436880D02*
Y00471323D01*
X01232883Y00480500D02*
X01242060Y00471323D01*
X01208650Y00480500D02*
X01232883D01*
X01247140Y00431800D02*
Y00471272D01*
X01232912Y00485500D02*
X01247140Y00471272D01*
X01208650Y00485500D02*
X01232912D01*
X01252220Y00426720D02*
Y00471221D01*
X01232941Y00490500D02*
X01252220Y00471221D01*
X01208650Y00490500D02*
X01232941D01*
X01264920Y00431800D02*
Y00463550D01*
X01232970Y00495500D02*
X01264920Y00463550D01*
X01208650Y00495500D02*
X01232970D01*
X00812920Y00665480D02*
Y00685680D01*
X00827920Y00665480D02*
Y00673220D01*
X00825500Y00675640D02*
X00827920Y00673220D01*
X00825500Y00675640D02*
Y00704850D01*
X00831850Y00711200D01*
X00838200D01*
X01208650Y00520500D02*
X01313229D01*
X01317239Y00524510D01*
X01322190D01*
X01208650Y00515500D02*
X01313549D01*
X01317239Y00511810D01*
X01322190D01*
X01185900Y00411760D02*
X01198880Y00398780D01*
X01185900Y00411760D02*
Y00467750D01*
X01180900Y00398980D02*
X01188720Y00391160D01*
X01180900Y00398980D02*
Y00467750D01*
X01175900Y00388740D02*
X01176020Y00388620D01*
X01175900Y00388740D02*
Y00467750D01*
X01163320Y00391160D02*
X01170900Y00398740D01*
Y00467750D01*
X01155700Y00398780D02*
X01165900Y00408980D01*
Y00467750D01*
X01242060Y00426720D02*
X01247140Y00431800D01*
Y00419100D02*
X01295400D01*
X01317244Y00440944D01*
X01240790Y00412750D02*
X01247140Y00419100D01*
X01231900Y00426720D02*
X01242060Y00436880D01*
X01224280Y00426720D02*
X01231900D01*
X01219200Y00666750D02*
Y00685800D01*
X01190900Y00638450D02*
X01219200Y00666750D01*
X01190900Y00548250D02*
Y00638450D01*
X01185900Y00548250D02*
Y00658850D01*
X01193800Y00666750D01*
Y00685800D01*
X01180900Y00548250D02*
Y00654250D01*
X01168400Y00666750D02*
X01180900Y00654250D01*
X01175900Y00548250D02*
Y00633850D01*
X01143000Y00666750D02*
X01175900Y00633850D01*
X01143000Y00666750D02*
Y00685800D01*
X01170900Y00548250D02*
Y00613450D01*
X01117600Y00666750D02*
X01170900Y00613450D01*
X01117600Y00666750D02*
Y00685800D01*
X01155900Y00548250D02*
Y00577650D01*
X01066800Y00666750D02*
X01155900Y00577650D01*
X01066800Y00666750D02*
Y00685800D01*
X01165900Y00548250D02*
Y00593050D01*
X01092200Y00666750D02*
X01165900Y00593050D01*
X01092200Y00666750D02*
Y00685800D01*
X01150900Y00548250D02*
Y00567665D01*
X01041400Y00677165D02*
X01150900Y00567665D01*
X01041400Y00677165D02*
Y00685800D01*
X01168400Y00666750D02*
Y00685800D01*
X01242060Y00539750D02*
X01258570D01*
X01239400Y00542410D02*
X01242060Y00539750D01*
X01224280Y00542410D02*
X01239400D01*
X01195900Y00548250D02*
Y00563440D01*
X01223010Y00590550D01*
X01258570D01*
Y00565150D02*
X01273810Y00549910D01*
Y00528320D02*
Y00549910D01*
X01270990Y00525500D02*
X01273810Y00528320D01*
X01208650Y00525500D02*
X01270990D01*
X01320800Y00441960D02*
X01343660Y00419100D01*
X01317244Y00440944D02*
Y00484937D01*
X01301681Y00500500D02*
X01317244Y00484937D01*
X01208650Y00500500D02*
X01301681D01*
X01093470Y00439420D02*
X01113790Y00459740D01*
X00151130Y00439420D02*
X01093470D01*
X00123190Y00411480D02*
X00151130Y00439420D01*
X00123190Y00398660D02*
Y00411480D01*
X00262890Y00398660D02*
Y00411480D01*
X00286766Y00435356D01*
X01094537D01*
X01113790Y00459740D02*
Y00483870D01*
X01120420Y00490500D01*
X01128150D01*
X01094537Y00435356D02*
X01117600Y00458419D01*
Y00482600D01*
X01120500Y00485500D01*
X01128150D01*
Y00463940D02*
Y00480500D01*
X01096010Y00431800D02*
X01128150Y00463940D01*
X00424180Y00431800D02*
X01096010D01*
X00402590Y00410210D02*
X00424180Y00431800D01*
X00402590Y00398660D02*
Y00410210D01*
X00542290Y00398660D02*
Y00408940D01*
X00561340Y00427990D01*
X01097280D01*
X01118870Y00449580D01*
X01136650D01*
X01140900Y00453830D01*
Y00467750D01*
X01145900Y00449940D02*
Y00467750D01*
X01141730Y00445770D02*
X01145900Y00449940D01*
X01120140Y00445770D02*
X01141730D01*
X01098550Y00424180D02*
X01120140Y00445770D01*
X00694690Y00424180D02*
X01098550D01*
X00681990Y00411480D02*
X00694690Y00424180D01*
X00681990Y00398660D02*
Y00411480D01*
X00821690Y00398660D02*
Y00407670D01*
X00834136Y00420116D01*
X01099566D01*
X01121156Y00441706D01*
X01145337D01*
X01150900Y00447269D01*
Y00467750D01*
X00961390Y00398660D02*
Y00408940D01*
X00969010Y00416560D01*
X01102360D01*
X01123950Y00438150D01*
X01146810D01*
X01155900Y00447240D01*
Y00467750D01*
X01160900Y00447160D02*
Y00467750D01*
X01148080Y00434340D02*
X01160900Y00447160D01*
X01126490Y00434340D02*
X01148080D01*
X01101090Y00408940D02*
X01126490Y00434340D01*
X01101090Y00398660D02*
Y00408940D01*
X01320800Y00441960D02*
Y00486410D01*
X01240790Y00398660D02*
Y00412750D01*
X01208650Y00505500D02*
X01301710D01*
X01320800Y00486410D01*
X01214000Y00557410D02*
X01224280D01*
X01217810Y00452120D02*
Y00462400D01*
X01197610Y00452120D02*
X01202810D01*
X01195900Y00453830D02*
X01197610Y00452120D01*
X01195900Y00453830D02*
Y00467750D01*
X01224280Y00535940D02*
Y00541140D01*
X01223840Y00535500D02*
X01224280Y00535940D01*
X01208650Y00535500D02*
X01223840D01*
X01115500D02*
X01128150D01*
X01112520Y00538480D02*
X01115500Y00535500D01*
X01112520Y00538480D02*
Y00542410D01*
Y00566420D02*
X01122800D01*
X01112520Y00557410D02*
Y00566420D01*
X01140900Y00548250D02*
Y00558360D01*
X01139070Y00560190D02*
X01140900Y00558360D01*
X01139070Y00560190D02*
Y00565150D01*
X01153040Y00530980D02*
X01160900D01*
X01145900Y00538120D02*
X01153040Y00530980D01*
X01145900Y00538120D02*
Y00548250D01*
X01087240Y00477520D02*
Y00490220D01*
X01117640Y00505500D02*
X01128150D01*
X01112520Y00500380D02*
X01117640Y00505500D01*
X01107440Y00500380D02*
X01112520D01*
X01102240Y00495180D02*
X01107440Y00500380D01*
X01102240Y00490220D02*
Y00495180D01*
Y00477520D02*
X01109980Y00485260D01*
Y00488950D01*
X01116530Y00495500D01*
X01128150D01*
X01160900Y00530980D02*
Y00548250D01*
X01192170Y00530500D02*
X01208650D01*
X01190900Y00467750D02*
Y00482960D01*
X01128150Y00500500D02*
X01146690D01*
X01074420Y00490340D02*
X01090810Y00506730D01*
X01111250D01*
X01074420Y00535820D02*
X01091184Y00519056D01*
X01111250D01*
X01049020Y00491580D02*
Y00502920D01*
X01051440Y00505340D01*
X01074420D01*
X01081920D01*
X01087080Y00510500D01*
X01128150D01*
X01049020Y00523240D02*
Y00534580D01*
Y00523240D02*
X01051440Y00520820D01*
X01074420D01*
X01081920D01*
X01087240Y00515500D01*
X01128150D01*
X01366950Y00524510D02*
X01376350Y00515110D01*
X01337190Y00524510D02*
X01366950D01*
X01338890Y00513510D02*
X01355750D01*
X01366340Y00502920D01*
X01384300D01*
X01388490Y00507110D01*
X01410970D01*
X01376350Y00515110D02*
X01410970D01*
X01423550Y00309880D02*
X01433950D01*
X01365250Y00398660D02*
X01380490D01*
X01369450Y00355600D02*
Y00363610D01*
X01399720Y00374830D02*
X01405890D01*
X01365250Y00375920D02*
Y00383660D01*
X01405890Y00391160D02*
Y00394970D01*
X01408250Y00397330D01*
X01415390D01*
X01390470D02*
X01396390D01*
X01389380Y00396240D02*
X01390470Y00397330D01*
X01389380Y00388620D02*
Y00396240D01*
X01384420Y00383660D02*
X01389380Y00388620D01*
X01380490Y00383660D02*
X01384420D01*
X01423550Y00332860D02*
Y00345560D01*
X01418470Y00350640D02*
X01423550Y00345560D01*
X01418470Y00350640D02*
Y00355600D01*
X01369450Y00348370D02*
Y00355600D01*
X01369060Y00347980D02*
X01369450Y00348370D01*
X01365250Y00347980D02*
X01369060D01*
X01363330Y00346060D02*
X01365250Y00347980D01*
X01386450Y00355600D02*
X01403470D01*
X01363330Y00339090D02*
Y00346060D01*
X01417320Y00339090D02*
X01423550Y00332860D01*
X01377330Y00339090D02*
X01417320D01*
X01362830Y00325120D02*
Y00338590D01*
Y00309880D02*
Y00325120D01*
X01339850Y00279400D02*
X01360170D01*
X01370330Y00289560D01*
Y00317620D01*
X01377830Y00325120D01*
X01416050Y00299720D02*
Y00317500D01*
Y00289560D02*
Y00299720D01*
X01395730D02*
X01416050D01*
X01385570Y00309880D02*
X01395730Y00299720D01*
X01377830Y00309880D02*
X01385570D01*
X01426210Y00279400D02*
X01441450D01*
X01416050Y00289560D02*
X01426210Y00279400D01*
X01408550Y00325000D02*
X01416050Y00317500D01*
X01408550Y00325000D02*
Y00325120D01*
X01399540Y00309880D02*
X01408550D01*
X01384300Y00325120D02*
X01399540Y00309880D01*
X01377830Y00325120D02*
X01384300D01*
X01283850Y00309880D02*
X01294250D01*
X01225550Y00398660D02*
X01240790D01*
X01229750Y00355600D02*
Y00363610D01*
X01233170Y00367030D01*
X01252220D01*
X01260020Y00374830D01*
X01266190D01*
X01225550Y00375920D02*
Y00383660D01*
Y00375920D02*
X01228090Y00373380D01*
X01248410D01*
X01266190Y00391160D01*
Y00394970D01*
X01268550Y00397330D01*
X01275690D01*
X01250770D02*
X01256690D01*
X01249680Y00396240D02*
X01250770Y00397330D01*
X01249680Y00388620D02*
Y00396240D01*
X01244720Y00383660D02*
X01249680Y00388620D01*
X01240790Y00383660D02*
X01244720D01*
X01283850Y00332860D02*
Y00345560D01*
X01278770Y00350640D02*
X01283850Y00345560D01*
X01278770Y00350640D02*
Y00355600D01*
X01229750Y00348370D02*
Y00355600D01*
X01229360Y00347980D02*
X01229750Y00348370D01*
X01225550Y00347980D02*
X01229360D01*
X01223630Y00346060D02*
X01225550Y00347980D01*
X01246750Y00355600D02*
X01263770D01*
X01223630Y00339090D02*
Y00346060D01*
X01277620Y00339090D02*
X01283850Y00332860D01*
X01237630Y00339090D02*
X01277620D01*
X01223130Y00325120D02*
Y00338590D01*
Y00309880D02*
Y00325120D01*
X01200150Y00279400D02*
X01220470D01*
X01230630Y00289560D01*
Y00317620D01*
X01238130Y00325120D01*
X01276350Y00299720D02*
Y00317500D01*
Y00289560D02*
Y00299720D01*
X01256030D02*
X01276350D01*
X01245870Y00309880D02*
X01256030Y00299720D01*
X01238130Y00309880D02*
X01245870D01*
X01286510Y00279400D02*
X01301750D01*
X01276350Y00289560D02*
X01286510Y00279400D01*
X01268850Y00325000D02*
X01276350Y00317500D01*
X01268850Y00325000D02*
Y00325120D01*
X01259840Y00309880D02*
X01268850D01*
X01244600Y00325120D02*
X01259840Y00309880D01*
X01238130Y00325120D02*
X01244600D01*
X01144150Y00309880D02*
X01154550D01*
X01085850Y00398660D02*
X01101090D01*
X01090050Y00355600D02*
Y00363610D01*
X01093470Y00367030D01*
X01112520D01*
X01120320Y00374830D01*
X01126490D01*
X01085850Y00375920D02*
Y00383660D01*
Y00375920D02*
X01088390Y00373380D01*
X01108710D01*
X01126490Y00391160D01*
Y00394970D01*
X01128850Y00397330D01*
X01135990D01*
X01111070D02*
X01116990D01*
X01109980Y00396240D02*
X01111070Y00397330D01*
X01109980Y00388620D02*
Y00396240D01*
X01105020Y00383660D02*
X01109980Y00388620D01*
X01101090Y00383660D02*
X01105020D01*
X01144150Y00332860D02*
Y00345560D01*
X01139070Y00350640D02*
X01144150Y00345560D01*
X01139070Y00350640D02*
Y00355600D01*
X01090050Y00348370D02*
Y00355600D01*
X01089660Y00347980D02*
X01090050Y00348370D01*
X01085850Y00347980D02*
X01089660D01*
X01083930Y00346060D02*
X01085850Y00347980D01*
X01107050Y00355600D02*
X01124070D01*
X01083930Y00339090D02*
Y00346060D01*
X01137920Y00339090D02*
X01144150Y00332860D01*
X01097930Y00339090D02*
X01137920D01*
X01083430Y00325120D02*
Y00338590D01*
Y00309880D02*
Y00325120D01*
X01060450Y00279400D02*
X01080770D01*
X01090930Y00289560D01*
Y00317620D01*
X01098430Y00325120D01*
X01136650Y00299720D02*
Y00317500D01*
Y00289560D02*
Y00299720D01*
X01116330D02*
X01136650D01*
X01106170Y00309880D02*
X01116330Y00299720D01*
X01098430Y00309880D02*
X01106170D01*
X01146810Y00279400D02*
X01162050D01*
X01136650Y00289560D02*
X01146810Y00279400D01*
X01129150Y00325000D02*
X01136650Y00317500D01*
X01129150Y00325000D02*
Y00325120D01*
X01120140Y00309880D02*
X01129150D01*
X01104900Y00325120D02*
X01120140Y00309880D01*
X01098430Y00325120D02*
X01104900D01*
X01004450Y00309880D02*
X01014850D01*
X00946150Y00398660D02*
X00961390D01*
X00950350Y00355600D02*
Y00363610D01*
X00953770Y00367030D01*
X00972820D01*
X00980620Y00374830D01*
X00986790D01*
X00946150Y00375920D02*
Y00383660D01*
Y00375920D02*
X00948690Y00373380D01*
X00969010D01*
X00986790Y00391160D01*
Y00394970D01*
X00989150Y00397330D01*
X00996290D01*
X00971370D02*
X00977290D01*
X00970280Y00396240D02*
X00971370Y00397330D01*
X00970280Y00388620D02*
Y00396240D01*
X00965320Y00383660D02*
X00970280Y00388620D01*
X00961390Y00383660D02*
X00965320D01*
X01004450Y00332860D02*
Y00345560D01*
X00999370Y00350640D02*
X01004450Y00345560D01*
X00999370Y00350640D02*
Y00355600D01*
X00950350Y00348370D02*
Y00355600D01*
X00949960Y00347980D02*
X00950350Y00348370D01*
X00946150Y00347980D02*
X00949960D01*
X00944230Y00346060D02*
X00946150Y00347980D01*
X00967350Y00355600D02*
X00984370D01*
X00944230Y00339090D02*
Y00346060D01*
X00998220Y00339090D02*
X01004450Y00332860D01*
X00958230Y00339090D02*
X00998220D01*
X00943730Y00325120D02*
Y00338590D01*
Y00309880D02*
Y00325120D01*
X00920750Y00279400D02*
X00941070D01*
X00951230Y00289560D01*
Y00317620D01*
X00958730Y00325120D01*
X00996950Y00299720D02*
Y00317500D01*
Y00289560D02*
Y00299720D01*
X00976630D02*
X00996950D01*
X00966470Y00309880D02*
X00976630Y00299720D01*
X00958730Y00309880D02*
X00966470D01*
X01007110Y00279400D02*
X01022350D01*
X00996950Y00289560D02*
X01007110Y00279400D01*
X00989450Y00325000D02*
X00996950Y00317500D01*
X00989450Y00325000D02*
Y00325120D01*
X00980440Y00309880D02*
X00989450D01*
X00965200Y00325120D02*
X00980440Y00309880D01*
X00958730Y00325120D02*
X00965200D01*
X00864750Y00309880D02*
X00875150D01*
X00806450Y00398660D02*
X00821690D01*
X00810650Y00355600D02*
Y00363610D01*
X00814070Y00367030D01*
X00833120D01*
X00840920Y00374830D01*
X00847090D01*
X00806450Y00375920D02*
Y00383660D01*
Y00375920D02*
X00808990Y00373380D01*
X00829310D01*
X00847090Y00391160D01*
Y00394970D01*
X00849450Y00397330D01*
X00856590D01*
X00831670D02*
X00837590D01*
X00830580Y00396240D02*
X00831670Y00397330D01*
X00830580Y00388620D02*
Y00396240D01*
X00825620Y00383660D02*
X00830580Y00388620D01*
X00821690Y00383660D02*
X00825620D01*
X00864750Y00332860D02*
Y00345560D01*
X00859670Y00350640D02*
X00864750Y00345560D01*
X00859670Y00350640D02*
Y00355600D01*
X00810650Y00348370D02*
Y00355600D01*
X00810260Y00347980D02*
X00810650Y00348370D01*
X00806450Y00347980D02*
X00810260D01*
X00804530Y00346060D02*
X00806450Y00347980D01*
X00827650Y00355600D02*
X00844670D01*
X00804530Y00339090D02*
Y00346060D01*
X00858520Y00339090D02*
X00864750Y00332860D01*
X00818530Y00339090D02*
X00858520D01*
X00804030Y00325120D02*
Y00338590D01*
Y00309880D02*
Y00325120D01*
X00781050Y00279400D02*
X00801370D01*
X00811530Y00289560D01*
Y00317620D01*
X00819030Y00325120D01*
X00857250Y00299720D02*
Y00317500D01*
Y00289560D02*
Y00299720D01*
X00836930D02*
X00857250D01*
X00826770Y00309880D02*
X00836930Y00299720D01*
X00819030Y00309880D02*
X00826770D01*
X00867410Y00279400D02*
X00882650D01*
X00857250Y00289560D02*
X00867410Y00279400D01*
X00849750Y00325000D02*
X00857250Y00317500D01*
X00849750Y00325000D02*
Y00325120D01*
X00840740Y00309880D02*
X00849750D01*
X00825500Y00325120D02*
X00840740Y00309880D01*
X00819030Y00325120D02*
X00825500D01*
X00725050Y00309880D02*
X00735450D01*
X00666750Y00398660D02*
X00681990D01*
X00670950Y00355600D02*
Y00363610D01*
X00674370Y00367030D01*
X00693420D01*
X00701220Y00374830D01*
X00707390D01*
X00666750Y00375920D02*
Y00383660D01*
Y00375920D02*
X00669290Y00373380D01*
X00689610D01*
X00707390Y00391160D01*
Y00394970D01*
X00709750Y00397330D01*
X00716890D01*
X00691970D02*
X00697890D01*
X00690880Y00396240D02*
X00691970Y00397330D01*
X00690880Y00388620D02*
Y00396240D01*
X00685920Y00383660D02*
X00690880Y00388620D01*
X00681990Y00383660D02*
X00685920D01*
X00725050Y00332860D02*
Y00345560D01*
X00719970Y00350640D02*
X00725050Y00345560D01*
X00719970Y00350640D02*
Y00355600D01*
X00670950Y00348370D02*
Y00355600D01*
X00670560Y00347980D02*
X00670950Y00348370D01*
X00666750Y00347980D02*
X00670560D01*
X00664830Y00346060D02*
X00666750Y00347980D01*
X00687950Y00355600D02*
X00704970D01*
X00664830Y00339090D02*
Y00346060D01*
X00718820Y00339090D02*
X00725050Y00332860D01*
X00678830Y00339090D02*
X00718820D01*
X00664330Y00325120D02*
Y00338590D01*
Y00309880D02*
Y00325120D01*
X00641350Y00279400D02*
X00661670D01*
X00671830Y00289560D01*
Y00317620D01*
X00679330Y00325120D01*
X00717550Y00299720D02*
Y00317500D01*
Y00289560D02*
Y00299720D01*
X00697230D02*
X00717550D01*
X00687070Y00309880D02*
X00697230Y00299720D01*
X00679330Y00309880D02*
X00687070D01*
X00727710Y00279400D02*
X00742950D01*
X00717550Y00289560D02*
X00727710Y00279400D01*
X00710050Y00325000D02*
X00717550Y00317500D01*
X00710050Y00325000D02*
Y00325120D01*
X00701040Y00309880D02*
X00710050D01*
X00685800Y00325120D02*
X00701040Y00309880D01*
X00679330Y00325120D02*
X00685800D01*
X00585350Y00309880D02*
X00595750D01*
X00527050Y00398660D02*
X00542290D01*
X00531250Y00355600D02*
Y00363610D01*
X00534670Y00367030D01*
X00553720D01*
X00561520Y00374830D01*
X00567690D01*
X00527050Y00375920D02*
Y00383660D01*
Y00375920D02*
X00529590Y00373380D01*
X00549910D01*
X00567690Y00391160D01*
Y00394970D01*
X00570050Y00397330D01*
X00577190D01*
X00552270D02*
X00558190D01*
X00551180Y00396240D02*
X00552270Y00397330D01*
X00551180Y00388620D02*
Y00396240D01*
X00546220Y00383660D02*
X00551180Y00388620D01*
X00542290Y00383660D02*
X00546220D01*
X00585350Y00332860D02*
Y00345560D01*
X00580270Y00350640D02*
X00585350Y00345560D01*
X00580270Y00350640D02*
Y00355600D01*
X00531250Y00348370D02*
Y00355600D01*
X00530860Y00347980D02*
X00531250Y00348370D01*
X00527050Y00347980D02*
X00530860D01*
X00525130Y00346060D02*
X00527050Y00347980D01*
X00548250Y00355600D02*
X00565270D01*
X00525130Y00339090D02*
Y00346060D01*
X00579120Y00339090D02*
X00585350Y00332860D01*
X00539130Y00339090D02*
X00579120D01*
X00524630Y00325120D02*
Y00338590D01*
Y00309880D02*
Y00325120D01*
X00501650Y00279400D02*
X00521970D01*
X00532130Y00289560D01*
Y00317620D01*
X00539630Y00325120D01*
X00577850Y00299720D02*
Y00317500D01*
Y00289560D02*
Y00299720D01*
X00557530D02*
X00577850D01*
X00547370Y00309880D02*
X00557530Y00299720D01*
X00539630Y00309880D02*
X00547370D01*
X00588010Y00279400D02*
X00603250D01*
X00577850Y00289560D02*
X00588010Y00279400D01*
X00570350Y00325000D02*
X00577850Y00317500D01*
X00570350Y00325000D02*
Y00325120D01*
X00561340Y00309880D02*
X00570350D01*
X00546100Y00325120D02*
X00561340Y00309880D01*
X00539630Y00325120D02*
X00546100D01*
X00445650Y00309880D02*
X00456050D01*
X00387350Y00398660D02*
X00402590D01*
X00391550Y00355600D02*
Y00363610D01*
X00394970Y00367030D01*
X00414020D01*
X00421820Y00374830D01*
X00427990D01*
X00387350Y00375920D02*
Y00383660D01*
Y00375920D02*
X00389890Y00373380D01*
X00410210D01*
X00427990Y00391160D01*
Y00394970D01*
X00430350Y00397330D01*
X00437490D01*
X00412570D02*
X00418490D01*
X00411480Y00396240D02*
X00412570Y00397330D01*
X00411480Y00388620D02*
Y00396240D01*
X00406520Y00383660D02*
X00411480Y00388620D01*
X00402590Y00383660D02*
X00406520D01*
X00445650Y00332860D02*
Y00345560D01*
X00440570Y00350640D02*
X00445650Y00345560D01*
X00440570Y00350640D02*
Y00355600D01*
X00391550Y00348370D02*
Y00355600D01*
X00391160Y00347980D02*
X00391550Y00348370D01*
X00387350Y00347980D02*
X00391160D01*
X00385430Y00346060D02*
X00387350Y00347980D01*
X00408550Y00355600D02*
X00425570D01*
X00385430Y00339090D02*
Y00346060D01*
X00439420Y00339090D02*
X00445650Y00332860D01*
X00399430Y00339090D02*
X00439420D01*
X00384930Y00325120D02*
Y00338590D01*
Y00309880D02*
Y00325120D01*
X00361950Y00279400D02*
X00382270D01*
X00392430Y00289560D01*
Y00317620D01*
X00399930Y00325120D01*
X00438150Y00299720D02*
Y00317500D01*
Y00289560D02*
Y00299720D01*
X00417830D02*
X00438150D01*
X00407670Y00309880D02*
X00417830Y00299720D01*
X00399930Y00309880D02*
X00407670D01*
X00448310Y00279400D02*
X00463550D01*
X00438150Y00289560D02*
X00448310Y00279400D01*
X00430650Y00325000D02*
X00438150Y00317500D01*
X00430650Y00325000D02*
Y00325120D01*
X00421640Y00309880D02*
X00430650D01*
X00406400Y00325120D02*
X00421640Y00309880D01*
X00399930Y00325120D02*
X00406400D01*
X00305950Y00309880D02*
X00316350D01*
X00247650Y00398660D02*
X00262890D01*
X00251850Y00355600D02*
Y00363610D01*
X00255270Y00367030D01*
X00274320D01*
X00282120Y00374830D01*
X00288290D01*
X00247650Y00375920D02*
Y00383660D01*
Y00375920D02*
X00250190Y00373380D01*
X00270510D01*
X00288290Y00391160D01*
Y00394970D01*
X00290650Y00397330D01*
X00297790D01*
X00272870D02*
X00278790D01*
X00271780Y00396240D02*
X00272870Y00397330D01*
X00271780Y00388620D02*
Y00396240D01*
X00266820Y00383660D02*
X00271780Y00388620D01*
X00262890Y00383660D02*
X00266820D01*
X00305950Y00332860D02*
Y00345560D01*
X00300870Y00350640D02*
X00305950Y00345560D01*
X00300870Y00350640D02*
Y00355600D01*
X00251850Y00348370D02*
Y00355600D01*
X00251460Y00347980D02*
X00251850Y00348370D01*
X00247650Y00347980D02*
X00251460D01*
X00245730Y00346060D02*
X00247650Y00347980D01*
X00268850Y00355600D02*
X00285870D01*
X00245730Y00339090D02*
Y00346060D01*
X00299720Y00339090D02*
X00305950Y00332860D01*
X00259730Y00339090D02*
X00299720D01*
X00245230Y00325120D02*
Y00338590D01*
Y00309880D02*
Y00325120D01*
X00222250Y00279400D02*
X00242570D01*
X00252730Y00289560D01*
Y00317620D01*
X00260230Y00325120D01*
X00298450Y00299720D02*
Y00317500D01*
Y00289560D02*
Y00299720D01*
X00278130D02*
X00298450D01*
X00267970Y00309880D02*
X00278130Y00299720D01*
X00260230Y00309880D02*
X00267970D01*
X00308610Y00279400D02*
X00323850D01*
X00298450Y00289560D02*
X00308610Y00279400D01*
X00290950Y00325000D02*
X00298450Y00317500D01*
X00290950Y00325000D02*
Y00325120D01*
X00281940Y00309880D02*
X00290950D01*
X00266700Y00325120D02*
X00281940Y00309880D01*
X00260230Y00325120D02*
X00266700D01*
X00166250Y00309880D02*
X00176650D01*
X00107950Y00398660D02*
X00123190D01*
X00112150Y00355600D02*
Y00363610D01*
X00115570Y00367030D01*
X00134620D01*
X00142420Y00374830D01*
X00148590D01*
X00107950Y00375920D02*
Y00383660D01*
Y00375920D02*
X00110490Y00373380D01*
X00130810D01*
X00148590Y00391160D01*
Y00394970D01*
X00150950Y00397330D01*
X00158090D01*
X00133170D02*
X00139090D01*
X00132080Y00396240D02*
X00133170Y00397330D01*
X00132080Y00388620D02*
Y00396240D01*
X00127120Y00383660D02*
X00132080Y00388620D01*
X00123190Y00383660D02*
X00127120D01*
X00166250Y00332860D02*
Y00345560D01*
X00161170Y00350640D02*
X00166250Y00345560D01*
X00161170Y00350640D02*
Y00355600D01*
X00112150Y00348370D02*
Y00355600D01*
X00111760Y00347980D02*
X00112150Y00348370D01*
X00107950Y00347980D02*
X00111760D01*
X00106030Y00346060D02*
X00107950Y00347980D01*
X00129150Y00355600D02*
X00146170D01*
X00106030Y00339090D02*
Y00346060D01*
X00160020Y00339090D02*
X00166250Y00332860D01*
X00120030Y00339090D02*
X00160020D01*
X00105530Y00325120D02*
Y00338590D01*
X00166250Y00309880D02*
Y00332860D01*
X00105530Y00309880D02*
Y00325120D01*
X00082550Y00279400D02*
X00102870D01*
X00113030Y00289560D01*
Y00317620D01*
X00120530Y00325120D01*
X00158750Y00299720D02*
Y00317500D01*
Y00289560D02*
Y00299720D01*
X00138430D02*
X00158750D01*
X00128270Y00309880D02*
X00138430Y00299720D01*
X00120530Y00309880D02*
X00128270D01*
X00168910Y00279400D02*
X00184150D01*
X00158750Y00289560D02*
X00168910Y00279400D01*
X00151250Y00325000D02*
X00158750Y00317500D01*
X00151250Y00325000D02*
Y00325120D01*
X00142240Y00309880D02*
X00151250D01*
X00127000Y00325120D02*
X00142240Y00309880D01*
X00120530Y00325120D02*
X00127000D01*
X01343660Y00419100D02*
X01358900D01*
X01365250Y00412750D01*
Y00398660D02*
Y00412750D01*
D30*
X01139070Y00565150D02*
Y00571620D01*
X01136650Y00574040D02*
X01139070Y00571620D01*
X01106170Y00574040D02*
X01136650D01*
X01102360Y00570230D02*
X01106170Y00574040D01*
X01102360Y00547370D02*
Y00570230D01*
Y00547370D02*
X01107320Y00542410D01*
X01112520D01*
X01202810Y00464940D02*
X01206500Y00468630D01*
X01202810Y00452120D02*
Y00464940D01*
X00179070Y00307460D02*
X00189350D01*
X00194310Y00312420D01*
Y00323850D01*
X00318770Y00307460D02*
X00329050D01*
X00334010Y00312420D01*
Y00323850D01*
X00458470Y00307460D02*
X00468750D01*
X00473710Y00312420D01*
Y00323850D01*
X00598170Y00307460D02*
X00608450D01*
X00613410Y00312420D01*
Y00323850D01*
X00737870Y00307460D02*
X00748150D01*
X00753110Y00312420D01*
Y00323850D01*
X00877570Y00307460D02*
X00887850D01*
X00892810Y00312420D01*
Y00323850D01*
X01017270Y00307460D02*
X01027550D01*
X01032510Y00312420D01*
Y00323850D01*
X01156970Y00307460D02*
X01167250D01*
X01172210Y00312420D01*
Y00323850D01*
X01296670Y00307460D02*
X01306950D01*
X01311910Y00312420D01*
Y00323850D01*
X01451610Y00312420D02*
Y00323850D01*
X01446650Y00307460D02*
X01451610Y00312420D01*
X01436370Y00307460D02*
X01446650D01*
D31*
X01041400Y00685800D02*
D03*
X00762000D02*
D03*
D32*
X01244600Y00711200D02*
D03*
Y00685800D02*
D03*
X01219200Y00711200D02*
D03*
Y00685800D02*
D03*
X01193800Y00711200D02*
D03*
Y00685800D02*
D03*
X01168400Y00711200D02*
D03*
Y00685800D02*
D03*
X01143000Y00711200D02*
D03*
Y00685800D02*
D03*
X01117600Y00711200D02*
D03*
Y00685800D02*
D03*
X01092200Y00711200D02*
D03*
Y00685800D02*
D03*
X01066800Y00711200D02*
D03*
Y00685800D02*
D03*
X01041400Y00711200D02*
D03*
X00965200D02*
D03*
Y00685800D02*
D03*
X00939800Y00711200D02*
D03*
Y00685800D02*
D03*
X00914400Y00711200D02*
D03*
Y00685800D02*
D03*
X00889000Y00711200D02*
D03*
Y00685800D02*
D03*
X00863600Y00711200D02*
D03*
Y00685800D02*
D03*
X00838200Y00711200D02*
D03*
Y00685800D02*
D03*
X00812800Y00711200D02*
D03*
Y00685800D02*
D03*
X00787400Y00711200D02*
D03*
Y00685800D02*
D03*
X00762000Y00711200D02*
D03*
X01258570Y00590550D02*
D03*
Y00565150D02*
D03*
Y00539750D02*
D03*
D33*
X00050000Y00700000D02*
D03*
X01450000D02*
D03*
X00050000Y00050000D02*
D03*
X01450000D02*
D03*
D34*
X01258570Y00615950D02*
D03*
D35*
X01434220Y00537110D02*
D03*
Y00493110D02*
D03*
D36*
X00190500Y00698500D02*
D03*
Y00540500D02*
D03*
X00381000Y00698500D02*
D03*
Y00540500D02*
D03*
D37*
X00787400Y00050800D02*
D03*
X00838200D02*
D03*
X00939800D02*
D03*
X00889000D02*
D03*
X01041400D02*
D03*
X00990600D02*
D03*
X01143000D02*
D03*
X01092200D02*
D03*
X01244600D02*
D03*
X01193800D02*
D03*
X00685800D02*
D03*
X00736600D02*
D03*
X00584200D02*
D03*
X00635000D02*
D03*
X00482600D02*
D03*
X00533400D02*
D03*
X00381000D02*
D03*
X00431800D02*
D03*
X00330200D02*
D03*
X00279400D02*
D03*
D38*
X01290000Y00440000D02*
D03*
Y00490000D02*
D03*
X01310640Y00662940D02*
D03*
X01301750D02*
D03*
X01322190Y00559950D02*
D03*
X01102240Y00464940D02*
D03*
X01106170Y00574040D02*
D03*
X01206500Y00468630D02*
D03*
X01073150Y00391160D02*
D03*
X00179070Y00334130D02*
D03*
X00139090Y00409720D02*
D03*
X00318770Y00334130D02*
D03*
X00278790Y00409720D02*
D03*
X00458470Y00334130D02*
D03*
X00418490Y00409720D02*
D03*
X00598170Y00334130D02*
D03*
X00558190Y00409720D02*
D03*
X00737870Y00334130D02*
D03*
X00697890Y00409720D02*
D03*
X00877570Y00334130D02*
D03*
X00837590Y00409720D02*
D03*
X01017270Y00334130D02*
D03*
X00977290Y00409720D02*
D03*
X01156970Y00334130D02*
D03*
X01296670D02*
D03*
X01256690Y00409720D02*
D03*
X01396390Y00409600D02*
D03*
X01436370Y00334010D02*
D03*
X00194310Y00323850D02*
D03*
X00334010D02*
D03*
X00473710D02*
D03*
X00613410D02*
D03*
X00753110D02*
D03*
X00892810D02*
D03*
X01032510D02*
D03*
X01172210D02*
D03*
X01311910D02*
D03*
X01451610D02*
D03*
X01264920Y00431800D02*
D03*
X01198880Y00398780D02*
D03*
X01188720Y00391160D02*
D03*
X01176020Y00388620D02*
D03*
X01163320Y00391160D02*
D03*
X01155700Y00398780D02*
D03*
X01252220Y00426720D02*
D03*
X01242060D02*
D03*
X01224280D02*
D03*
X01214000Y00557410D02*
D03*
X01217810Y00462400D02*
D03*
X01112520Y00566420D02*
D03*
X01160900Y00530980D02*
D03*
X01192170Y00530500D02*
D03*
X01190900Y00482960D02*
D03*
X01146690Y00500500D02*
D03*
X01069340Y00481330D02*
D03*
X01070610Y00544830D02*
D03*
X01386000Y00535510D02*
D03*
X01344510Y00613384D02*
D03*
Y00603224D02*
D03*
Y00593064D02*
D03*
X01358480D02*
D03*
X01369910D02*
D03*
X01381340D02*
D03*
X01395310D02*
D03*
Y00603224D02*
D03*
Y00613384D02*
D03*
X00107950Y00228600D02*
D03*
X00247650D02*
D03*
X00387350D02*
D03*
X00527050D02*
D03*
X00666750D02*
D03*
X00806450D02*
D03*
X00946150D02*
D03*
X01085850D02*
D03*
X01225550D02*
D03*
X01365250D02*
D03*
X01276350D02*
D03*
X01136650D02*
D03*
X00996950D02*
D03*
X00857250D02*
D03*
X00717550D02*
D03*
X00577850D02*
D03*
X00438150D02*
D03*
X00298450D02*
D03*
X00158750D02*
D03*
X01416050D02*
D03*
M02*
